<svg width="138" height="36" xmlns="http://www.w3.org/2000/svg"><title>Hansa Logo White</title><path d="M2.03 17.728V3.48C2.03 2.107 0 .51 0 .51h7.73c.097.127-1.323 1.747-1.323 4.473v5.205h8.991V5.06A7.93 7.93 0 0 0 13.415.532h8.543A3.667 3.667 0 0 0 20.332 3.6v15.441c0 1.406 2.127 2.97 2.127 2.97h-8.756c-.094-.126 1.645-1.747 1.645-4.473v-5.335H6.407v6.838c0 .48 1.982 2.97 1.982 2.97H.064S2.03 19.87 2.03 17.729zm42.444-2.681h-6.976c-.73 2.461-1.302 4.408-1.302 4.666 0 .446 2.727 2.299 2.727 2.299h-7.23c-.094-.16 1.713-2.14 2.156-3.246.794-2.012 6.28-18.242 6.28-18.242h3.617l6.057 17.02c.728 2.044 2.567 4.473 2.567 4.473h-9.006s2.632-1.748 2.632-2.332a3.265 3.265 0 0 0-.22-.894l-1.302-3.744zM40.7 4.282c-.318 1.248-1.522 5.207-2.6 8.785h5.675c-1.583-4.601-2.79-8.146-2.949-8.785H40.7zm24.994 1.34h-.062l.476 13.17c.032 1.115 2.632 3.225 2.632 3.225h-7.517s2.188-3.483 2.188-4.244V3.813c0-.64-2.156-3.291-2.124-3.291h6.025S78.284 15.44 78.792 16.5h.064l-.475-12.733C78.348 2.584 75.843.54 75.843.54h7.326s-2.189 3.61-2.189 4.6l-.032 16.397-2.823.894S66.425 6.963 65.694 5.622zm27.004 8.9c.094-.127 4.407 5.538 7.579 5.538 1.839 0 3.425-.927 3.425-2.939 0-4.888-10.34-4.024-10.34-10.605 0-3.643 2.57-6.516 7.435-6.516 2.6 0 5.232.894 5.948 1.308 0 1.438-.495 6.082-.99 5.992-.509-2.746-2.507-5.058-5.265-5.058-1.735 0-2.974 1.086-2.974 2.779 0 4.728 10.275 3.61 10.275 10.8 0 3.8-2.57 6.578-7.422 6.578-2.03 0-4.915-.64-6.628-1.468-.282-1.987-.535-4.459-1.043-6.409zm37.406.525h-6.977c-.73 2.461-1.3 4.408-1.3 4.666 0 .446 2.725 2.299 2.725 2.299h-7.226c-.097-.16 1.712-2.14 2.156-3.246.793-2.012 6.28-18.242 6.28-18.242h3.613l6.055 17.02c.743 2.044 2.57 4.473 2.57 4.473h-9.006s2.632-1.748 2.632-2.332a3.287 3.287 0 0 0-.223-.894l-1.3-3.744zm-3.775-10.765c-.317 1.248-1.521 5.207-2.6 8.785h5.676c-1.586-4.601-2.79-8.146-2.95-8.785h-.126zM22.697 31.688h.399l1.043 3.713 1.051-3.713h.496l1.053 3.713h.012l1.034-3.713h.399l-1.21 4.192H26.5l-1.054-3.73-1.058 3.73h-.476zm8.436 0h.39v4.192h-.39zm3.879 0h.495l2.533 3.67v-3.67h.387v4.192h-.496l-2.533-3.67h-.012v3.67h-.387zm6.922 0h2.543v.355H42.32v1.498h2.023v.354H42.32v1.623h2.25v.357h-2.636zm5.946 3.416c.091.167.229.305.396.397.171.089.362.133.555.13.124 0 .247-.02.364-.06a.935.935 0 0 0 .298-.165.81.81 0 0 0 .198-.25.754.754 0 0 0 .074-.34.648.648 0 0 0-.091-.362.746.746 0 0 0-.248-.234 2 2 0 0 0-.345-.157l-.394-.13a4.396 4.396 0 0 1-.394-.148 1.287 1.287 0 0 1-.342-.217.948.948 0 0 1-.248-.332 1.229 1.229 0 0 1-.091-.5 1.04 1.04 0 0 1 .404-.853c.127-.099.272-.173.426-.22a1.676 1.676 0 0 1 1.125.048c.2.086.371.227.496.407l-.335.25a.972.972 0 0 0-.344-.313 1.01 1.01 0 0 0-.466-.102 1.214 1.214 0 0 0-.36.05.84.84 0 0 0-.294.147.73.73 0 0 0-.28.597.677.677 0 0 0 .158.484c.112.116.247.206.397.265.168.068.341.126.518.172.178.047.35.113.515.197.158.083.293.202.397.347.116.183.171.398.158.614.003.173-.033.343-.104.5a1.107 1.107 0 0 1-.285.37 1.248 1.248 0 0 1-.416.226c-.16.054-.328.08-.496.078a1.928 1.928 0 0 1-.758-.145 1.42 1.42 0 0 1-.595-.487l.406-.264zm10.656-3.416h.4l1.752 4.192h-.434l-.454-1.11h-2.203l-.47 1.113h-.405l1.814-4.195zm.184.427l-.97 2.297h1.91l-.94-2.297zm4.917-.427h.496l2.53 3.67v-3.67h.389v4.192h-.496l-2.515-3.67v3.67h-.39zm6.87 0h1.286a2.77 2.77 0 0 1 .917.135c.227.074.439.19.625.34.157.127.29.282.394.457a2.327 2.327 0 0 1 .297.901c0 .125.017.212.017.25 0 .037 0 .14-.017.264a2.307 2.307 0 0 1-.297.899 1.704 1.704 0 0 1-.394.46 2.02 2.02 0 0 1-.625.339 2.747 2.747 0 0 1-.917.135h-1.286v-4.18zm.386 3.83h.798c.26.003.52-.032.771-.102a1.77 1.77 0 0 0 .622-.317c.18-.146.323-.331.42-.542a2.076 2.076 0 0 0 0-1.555 1.496 1.496 0 0 0-.42-.542 1.77 1.77 0 0 0-.617-.312 2.727 2.727 0 0 0-.77-.105h-.799l-.005 3.475zm10.36-.414c.092.167.23.305.397.397.17.089.362.133.555.13.124 0 .247-.02.364-.06a.935.935 0 0 0 .297-.165.81.81 0 0 0 .199-.25.754.754 0 0 0 .074-.34.648.648 0 0 0-.092-.362.746.746 0 0 0-.247-.234 2 2 0 0 0-.345-.157l-.394-.13a4.396 4.396 0 0 1-.394-.148 1.287 1.287 0 0 1-.342-.217.948.948 0 0 1-.248-.332 1.229 1.229 0 0 1-.092-.5c-.009-.332.142-.65.404-.853.128-.099.272-.173.427-.22a1.676 1.676 0 0 1 1.125.048c.2.086.371.227.495.407l-.334.25a.972.972 0 0 0-.345-.313 1.01 1.01 0 0 0-.466-.102 1.214 1.214 0 0 0-.359.05.84.84 0 0 0-.295.147.73.73 0 0 0-.28.597.677.677 0 0 0 .159.484c.112.116.247.206.396.265.17.068.342.126.518.172.179.047.351.113.516.197.157.083.293.202.396.347.116.183.172.398.159.614.003.173-.033.343-.104.5a1.107 1.107 0 0 1-.285.37 1.253 1.253 0 0 1-.417.226A1.49 1.49 0 0 1 82.2 36a1.928 1.928 0 0 1-.759-.145 1.42 1.42 0 0 1-.594-.487l.406-.264zm5.504-3.416h1.2c.152.002.304.018.454.05.154.032.302.092.436.175a.968.968 0 0 1 .322.342c.09.165.133.351.126.54.005.171-.03.342-.101.499a.932.932 0 0 1-.278.34c-.119.092-.254.16-.399.199a1.723 1.723 0 0 1-.473.065h-.897v1.997h-.39v-4.207zm.39 1.848h.88a1.3 1.3 0 0 0 .324-.04.812.812 0 0 0 .28-.123.643.643 0 0 0 .2-.23.713.713 0 0 0 .078-.349.703.703 0 0 0-.08-.342.747.747 0 0 0-.498-.367 1.337 1.337 0 0 0-.327-.042h-.857v1.493zm5.333-1.848h.39v4.192h-.39zm3.879 0h1.316c.102.006.204.019.304.038.116.02.228.052.338.095a.933.933 0 0 1 .304.19c.094.088.17.194.223.311.062.146.091.304.087.462a.998.998 0 0 1-.35.816c-.103.08-.22.142-.344.18a2.39 2.39 0 0 1-.36.085l1.213 2.013h-.451l-1.17-1.998h-.714v1.998h-.396v-4.19zm.386 1.848h.823c.169.006.337-.02.496-.078a.83.83 0 0 0 .295-.19.573.573 0 0 0 .143-.249.729.729 0 0 0 0-.474.573.573 0 0 0-.143-.25.83.83 0 0 0-.295-.19 1.384 1.384 0 0 0-.496-.077h-.813l-.01 1.508zm5.448-1.848h.389v4.192h-.39zm4.8.355h-1.422v-.355h3.222v.355h-1.42v3.837h-.39zm4.912 3.061c.092.167.23.305.397.397.171.089.362.133.555.13.124 0 .247-.02.364-.06a.908.908 0 0 0 .298-.165.748.748 0 0 0 .272-.59.648.648 0 0 0-.091-.362.746.746 0 0 0-.248-.234 1.919 1.919 0 0 0-.345-.157l-.394-.13a4.396 4.396 0 0 1-.394-.148 1.287 1.287 0 0 1-.342-.217.98.98 0 0 1-.248-.332 1.231 1.231 0 0 1-.089-.5 1.031 1.031 0 0 1 .402-.853c.127-.099.272-.173.426-.22a1.7 1.7 0 0 1 1.128.048c.2.086.371.227.495.407l-.334.25a.952.952 0 0 0-.345-.313.985.985 0 0 0-.466-.102 1.214 1.214 0 0 0-.36.05.887.887 0 0 0-.294.147.73.73 0 0 0-.28.597.677.677 0 0 0 .159.484c.111.116.247.206.396.265.169.068.342.126.518.172.178.047.351.113.516.197.157.083.293.202.396.347.116.183.172.398.159.614.002.173-.033.343-.104.5a1.107 1.107 0 0 1-.285.37 1.221 1.221 0 0 1-.414.226c-.16.053-.328.08-.496.078a1.928 1.928 0 0 1-.758-.145 1.397 1.397 0 0 1-.593-.487l.4-.264z" fill="#FFF"/></svg>