<svg width="625" height="557" xmlns="http://www.w3.org/2000/svg" xmlns:xlink="http://www.w3.org/1999/xlink"><title>Moët &amp; Chandon Logo</title><defs><path id="a" d="M.386 8.84h480.919v33.859H.385z"/><path id="c" d="M.606.093H132.61v153.024H.606z"/><path id="e" d="M0 548.201h623.94V.001H0z"/></defs><g fill="none" fill-rule="evenodd" opacity=".15"><path d="M566.846 402.607c-6.569 6.818-14.033 7.614-14.53 7.266-1.543-.896 3.085-9.953 3.085-9.953s-1.692-2.538-2.787-3.932c-1.195-1.343-4.728-4.429-4.728-4.429s4.031-1.492 7.714-1.094c3.533.398 5.374 2.687 5.424 2.836.15-.298.846-1.144 2.836-3.384 5.375-6.17 9.456-10.55 9.456-10.55s-.896 17.716-6.47 23.24m-114.905-53.745s-2.289-1.841-5.872-3.782c-3.185-1.792-8.709-3.334-8.709-3.334s4.728-3.932 11.396-3.583c4.33.1 6.171 1.343 6.171 1.343s-.348-1.244 2.837-8.808c4.18-10.301 12.789-19.159 12.789-19.159s1.792 12.142-1.045 22.941c-2.14 7.962-3.135 8.958-3.135 8.958s2.24.199 5.772 2.289c5.773 3.384 7.166 9.604 7.166 9.604s-5.026-1.692-8.957-2.488c-3.683-.697-7.017-.298-7.017-.298s-7.265 11.196-9.604 9.654c-2.488 0-1.792-13.337-1.792-13.337m-140.085-6.071c-3.782 0-6.52-13.785-6.52-13.785s-3.582-1.343-7.464-1.89c-4.28-.399-10.5-.25-10.5-.25s3.981-5.673 10.948-7.066c4.38-1.095 7.017-.647 7.017-.647s-.896.1-.2-8.36c.747-11.098 6.57-22.394 6.719-22.593.15.199 5.971 11.495 6.817 22.593.598 8.46-.248 8.36-.248 8.36s2.538-.448 6.967.547c7.564 1.493 11.047 7.166 11.047 7.166s-6.12-.298-10.5.25c-4.18.696-7.564 1.89-7.564 1.89s-2.588 13.785-6.52 13.785M169.98 362.099c-2.29 1.543-9.555-9.704-9.555-9.704s-3.682-.249-7.017.299c-3.533.647-8.907 2.538-8.907 2.538s2.19-6.57 7.265-9.605c3.583-2.09 5.922-2.339 5.922-2.339s-1.344-.995-3.384-8.957c-2.737-10.7-1.095-22.991-1.095-22.991s8.759 8.957 12.84 19.209c3.234 7.664 2.786 9.306 2.786 9.306s1.99-.996 6.121-1.493c6.37-.697 11.496 3.334 11.496 3.334s-5.076 1.244-8.809 3.235c-2.936 1.642-5.872 3.782-5.872 3.782s.896 13.386-1.791 13.386m-98.831 33.79c-1.046 1.493-2.688 4.03-2.688 4.03s4.579 9.058 2.986 9.904c-.348.398-7.863-.398-14.58-7.216-5.525-5.524-6.42-23.24-6.42-23.24s4.13 4.38 9.455 10.55c3.832 4.33 3.135 3.583 3.135 3.583s2.538-2.488 6.071-3.035c3.434-.548 6.768 1.094 6.768 1.094s-3.583 3.086-4.727 4.33m531.28-44.539c-7.565 0-11.645 1.792-18.91 9.157-6.32 6.32-15.229 15.874-15.229 15.874l-5.772-6.618c-2.09-3.434-4.479-13.387.199-17.07 1.244-1.094.498-1.99-.697-1.99 0 0-5.972-.647-10.7 6.32-3.582 5.076-4.826 10.301-4.826 10.301s-6.768-.547-11.993 4.678c-6.967 6.967-5.026 18.363-5.026 18.363s-7.117 5.673-8.858 9.605c-3.683 8.907 0 16.073 0 16.073.696 1.145 1.741 1.394 2.338 0 2.24-5.275 7.764-9.156 13.337-9.306 8.56-.05 11.645 1.792 11.595 4.13-.348 2.44-10.848 15.13-23.09 15.13-9.406 0-14.78-2.887-18.562-9.207-5.126-8.41-4.18-14.78-4.18-14.78s10.4 1.493 16.322-12.242c4.578-10.749 1.642-17.915-2.588-20.304-5.474-2.936-14.133 1.642-18.213 9.605-6.669 13.336-1.443 20.204-1.443 20.204s-10.053 15.526-30.157 8.36c-18.512-6.569-9.406-41.105-9.406-41.105s5.325-1.443 7.664 0c2.737 1.543 3.434 8.062 5.872 13.436 1.742 3.982 5.126 10.351 9.107 10.351 2.737 0 7.664-9.455 8.161-16.77 7.415-1.543 13.437-6.47 10.948-20.553 0 0 8.908-9.704 7.714-16.123-.15-.946-4.927-2.986-12.043-1.891-7.166.896-17.218 4.628-17.218 4.628s.199-5.972 2.14-8.161c1.94-1.99 12.241-9.505 15.277-13.984 2.836-4.38 6.718-11.097 3.533-13.088-3.185-1.99-9.306-3.483-13.386-3.633 0 0-2.787-4.33-7.564-6.021l-.647-.299c-4.778-1.542-9.655.1-9.655.1-3.384-2.638-9.106-4.977-12.888-5.425-3.832-.398-5.176 7.167-5.773 12.441-.498 5.126 3.334 18.662 3.732 21.499.15 2.786-3.334 7.812-3.334 7.812s-3.981-10.699-8.659-16.272c-4.628-5.425-9.206-6.619-10.848-6.27-2.538.547-6.62 10.699-5.922 19.507-10.351 5.673-9.306 17.168-6.918 22.941-3.334 5.275-5.822 15.775-3.135 19.607 1.543 2.19 9.754 1.145 16.92-2.837 5.275-2.886 9.704-7.912 12.69-7.713 2.986.299 6.42 4.43 6.42 4.43s-14.432 27.32-32.248 27.568c-14.73.1-20.303-6.519-20.303-6.519-7.465-6.021-8.062-13.735-8.062-13.735s12.192-4.18 13.685-19.656c1.145-12.043-5.872-18.264-11.993-19.06-7.614-.896-15.726 6.569-17.218 15.875-2.638 15.427 7.464 21.249 7.464 21.249s-5.175 18.661-28.116 16.87c-10.75-.796-14.73-2.24-23.29-8.61-11.695-8.658-12.242-31.5-12.242-31.5s5.922-3.035 9.604-2.24c3.584.697 6.37 7.117 11.844 11.596 6.022 4.926 12.342 10.201 19.259 9.505 3.284-.15 6.42-14.68 3.832-22.046 6.569-6.867 7.066-17.815 2.04-25.23 0 0 4.33-15.278.348-20.055-1.045-1.344-5.722-2.389-13.685 1.593-7.813 3.93-19.258 13.933-19.258 13.933s-1.941-5.872-.498-8.559c1.593-2.538 9.206-16.024 10.898-21.349 1.792-5.225 3.683-13.237-1.094-14.033-4.38-.995-12.143-.299-16.92 1.493-2.29-1.792-6.569-4.43-10.948-4.43-4.23 0-8.56 2.638-10.799 4.43-4.877-1.792-12.54-2.488-17.119-1.493-4.628.796-2.687 8.808-.945 14.033 1.741 5.325 9.206 18.811 10.798 21.349 1.593 2.687-.398 8.56-.398 8.56s-11.445-10.003-19.308-13.934c-7.863-3.982-12.59-2.937-13.685-1.593-3.932 4.777.448 20.055.448 20.055-5.126 7.415-4.579 18.363 2.04 25.23-2.538 7.266.547 21.847 3.882 22.046 6.867.696 13.137-4.579 19.209-9.505 5.374-4.479 8.21-10.899 11.794-11.595 3.732-.796 9.554 2.24 9.554 2.24s-.597 22.84-12.092 31.5c-8.66 6.37-12.64 7.813-23.34 8.609-22.891 1.791-28.266-16.87-28.266-16.87s10.302-5.822 7.714-21.25c-1.593-9.305-9.654-16.77-17.467-15.874-6.022.746-13.088 7.017-11.993 19.06 1.642 15.476 13.734 19.656 13.734 19.656s-.447 7.714-7.962 13.735c0 0-5.623 6.619-20.304 6.52-17.815-.25-32.346-27.57-32.346-27.57s3.434-4.13 6.37-4.429c3.035-.199 7.514 4.728 12.789 7.713 7.266 3.982 15.327 5.027 16.97 2.837 2.637-3.832.1-14.332-3.235-19.607 2.488-5.773 3.483-17.268-6.868-22.941.697-8.808-3.334-18.96-5.921-19.508-1.543-.348-6.221.846-10.899 6.27-4.578 5.524-8.708 16.273-8.708 16.273s-3.484-5.026-3.235-7.812c.398-2.837 4.28-16.373 3.782-21.499-.647-5.274-1.94-12.839-5.773-12.44-3.732.447-9.554 2.786-12.889 5.424 0 0-4.876-1.642-9.704-.1l-.796.299c-4.578 1.692-7.265 6.021-7.265 6.021-4.28.15-10.4 1.642-13.536 3.633-3.085 1.99.746 8.709 3.682 13.088 2.887 4.479 13.138 11.993 15.129 13.984 1.89 2.19 1.99 8.16 1.99 8.16s-9.853-3.731-17.069-4.627c-7.216-1.095-11.794.945-11.993 1.89-1.194 6.42 7.614 16.025 7.614 16.025-2.339 14.183 3.583 19.06 11.048 20.652.497 7.315 5.374 16.77 8.16 16.77 4.082 0 7.266-6.37 9.058-10.35 2.339-5.375 3.185-11.894 5.773-13.437 2.488-1.443 7.912 0 7.912 0s8.958 34.536-9.505 41.055c-20.204 7.216-30.207-8.31-30.207-8.31s5.226-6.868-1.443-20.204c-4.13-7.963-12.79-12.54-18.114-9.605-4.38 2.389-7.365 9.555-2.637 20.304 5.872 13.735 16.173 12.192 16.173 12.192s.945 6.42-3.981 14.73c-3.932 6.42-9.207 9.306-18.562 9.306-12.242 0-22.991-12.69-23.24-15.128-.1-2.339 3.085-4.18 11.645-4.13 5.524.149 11.097 4.03 13.337 9.305.597 1.394 1.741 1.145 2.339 0 0 0 3.782-7.166 0-16.073-1.742-3.932-8.858-9.605-8.858-9.605s2.04-11.495-4.977-18.413c-5.126-5.175-12.093-4.628-12.093-4.628s-1.194-5.225-4.827-10.3c-4.628-6.918-10.6-6.42-10.6-6.42-1.144 0-2.04.995-.646 2.09 4.578 3.682 2.24 13.635.1 17.069l-5.724 6.519s-8.907-9.455-15.178-15.775c-7.414-7.365-11.545-9.157-18.96-9.157-10.699 0-13.834 8.61-13.834 8.61s7.514-2.19 17.218 4.578c5.574 3.931 19.21 17.268 19.21 17.268-1.295 18.86 4.976 32.545 23.19 34.287l11.793 15.775h465.84l11.745-15.675c18.263-1.842 24.534-15.527 23.14-34.387 0 0 13.685-13.337 19.209-17.268 9.754-6.768 17.218-4.579 17.218-4.579s-3.085-8.609-13.734-8.609" fill="#B39759"/><g transform="translate(70.98 505.503)"><mask id="b" fill="#fff"><use xlink:href="#a"/></mask><path d="M472.098 42.604H9.443c-5.026 0-9.057-3.93-9.057-8.957 0-4.976 4.03-8.908 9.057-8.908h462.855c5.026 0 9.007 3.932 9.007 8.908 0 5.026-3.981 9.057-9.007 9.057l-.2-.1z" fill="#B39759" mask="url(#b)"/></g><path d="M543.079 458.98h.2c5.025 0 9.006-3.981 9.006-9.057 0-4.877-3.98-8.858-9.007-8.858H80.423c-5.026 0-9.057 3.98-9.057 8.858 0 5.076 4.031 9.057 9.058 9.057h462.655zM184.575 305.946c3.93-5.176 9.554-7.614 11.445-8.112.15-1.393.747-8.758-5.474-24.285-5.673-14.182-10.948-32.894-.15-48.818 13.786-20.503 40.708-19.408 58.175-19.607 0 0 5.822-.15 6.12-.15 12.243-.149 21.499-1.691 27.869-4.13-6.57 18.164-6.171 43.345-.15 61.906 3.185-.846 9.605-.597 13.984-.298-9.156-20.453-6.27-50.311 3.633-77.98l-5.673.05c-.15 0-12.989 7.166-41.304 7.613h-1.692c-21.3.548-54.492-1.194-72.904 26.326-13.686 20.303-6.669 43.742-.946 57.328 5.773 13.585 7.315 17.865 7.067 30.157m142.872-43.494c4.33-.299 10.799-.548 13.934.298 6.12-18.561 6.42-43.742-.1-61.906 6.32 2.439 15.626 3.981 27.868 4.13.249 0 6.121.15 6.121.15 17.517.298 44.489-.896 58.323 19.607 10.65 15.924 5.275 34.636-.298 48.818-6.121 15.527-5.574 22.892-5.474 24.285 1.94.498 7.663 2.936 11.545 8.112-.249-12.292 1.294-16.572 7.066-30.157 5.674-13.586 12.84-37.025-1.045-57.328-18.462-27.52-51.605-25.778-72.904-26.326h-1.592c-28.316-.447-41.255-7.613-41.354-7.613l-5.723-.05c9.903 27.669 12.84 57.527 3.633 77.98m233.567-12.053c-12.79-12.54-31.5-23.04-62.752-26.226 3.732 3.733 5.275 8.36 5.275 13.686l.895.149c34.288 3.583 62.753 25.977 63.35 63.499.199 8.858-1.493 22.642-4.678 32.993-1.493 4.827-1.543 5.126-2.14 6.668 4.38 1.692 8.51 3.733 10.998 11.446 1.045-3.135.1-.15 1.642-4.926 7.863-24.683 17.169-68.227-12.59-97.289m-441.705-12.391l1.095-.2c0-5.274 1.443-10.052 5.126-13.635-31.352 3.086-50.063 13.686-62.852 26.226-29.66 29.062-20.404 72.606-12.491 97.289 1.692 4.777.547 1.791 1.791 4.926 3.086-8.012 6.57-9.754 10.75-11.545-.448-1.443-.548-1.742-1.941-6.569-3.335-10.35-4.827-24.135-4.728-32.993.498-37.522 28.913-59.916 63.25-63.5m12.635-32.609c0-7.117-5.822-12.84-12.988-12.84-6.967 0-12.79 5.723-12.79 12.84 0 7.116 5.823 12.839 12.79 12.839 7.166 0 12.988-5.723 12.988-12.84M99.4 212.913c0-7.415-6.022-13.486-13.387-13.486-7.514 0-13.536 6.071-13.536 13.486 0 7.464 6.022 13.585 13.536 13.585 7.365 0 13.387-6.12 13.387-13.585M68.397 228.19c0-7.763-6.27-13.934-13.934-13.934-7.813 0-14.084 6.171-14.084 13.934 0 7.664 6.27 14.034 14.084 14.034 7.663 0 13.934-6.37 13.934-14.034M43.96 254.962c0-8.21-6.568-14.879-14.83-14.879-8.16 0-14.829 6.668-14.829 14.88 0 8.26 6.669 14.978 14.83 14.978 8.26 0 14.83-6.718 14.83-14.979m-6.37 75.89c0-8.111-6.619-14.68-14.83-14.68-8.111-.05-14.63 6.569-14.63 14.68 0 8.211 6.519 14.68 14.63 14.68 8.211 0 14.83-6.469 14.83-14.68m-4.927-37.87c0 9.007-7.365 16.323-16.372 16.323-9.057 0-16.273-7.316-16.273-16.323 0-9.057 7.216-16.323 16.273-16.323 9.007 0 16.372 7.266 16.372 16.323" fill="#B39759"/><g transform="translate(491.33 192.545)"><mask id="d" fill="#fff"><use xlink:href="#c"/></mask><path d="M.606 12.783c0 7.216 5.823 12.889 12.84 12.889 7.115 0 12.938-5.673 12.938-12.889 0-6.967-5.823-12.69-12.939-12.69C6.43.093.606 5.816.606 12.783m32.496 7.564c0 7.465 5.972 13.536 13.386 13.536 7.515 0 13.536-6.071 13.536-13.536 0-7.415-6.021-13.436-13.536-13.436-7.414 0-13.386 6.021-13.386 13.436m31.053 15.328c0 7.713 6.17 13.983 13.983 13.983 7.714 0 13.984-6.27 13.984-13.983 0-7.764-6.27-14.034-13.984-14.034-7.813 0-13.983 6.27-13.983 14.034m24.334 26.773c0 8.31 6.718 14.879 14.88 14.879 8.31 0 14.979-6.569 14.979-14.88 0-8.21-6.669-14.78-14.98-14.78-8.16 0-14.879 6.57-14.879 14.78m6.42 75.89c0 8.162 6.618 14.78 14.78 14.78 8.161 0 14.83-6.618 14.83-14.78 0-8.16-6.669-14.78-14.83-14.78-8.162 0-14.78 6.62-14.78 14.78m5.076-37.87c0 9.057 7.166 16.273 16.223 16.273 9.156 0 16.422-7.216 16.422-16.273 0-9.007-7.266-16.422-16.422-16.422-9.057 0-16.223 7.415-16.223 16.422" fill="#B39759" mask="url(#d)"/></g><path d="M253.926 174.584c0-5.972-4.877-10.75-10.75-10.75-5.971 0-10.798 4.778-10.798 10.75 0 5.872 4.827 10.65 10.799 10.65 5.872 0 10.749-4.778 10.749-10.65m-27.62 1.94a11.915 11.915 0 0 0-11.943-11.943c-6.519 0-11.943 5.375-11.943 11.943 0 6.57 5.424 11.894 11.943 11.894 6.669 0 11.944-5.325 11.944-11.894m-28.018 8.261c0-7.564-6.12-13.784-13.834-13.784-7.713 0-13.934 6.22-13.934 13.784 0 7.614 6.22 13.884 13.934 13.884 7.713 0 13.834-6.27 13.834-13.884m-24.434 21.896c0-8.111-6.469-14.53-14.58-14.53-7.913 0-14.482 6.419-14.482 14.53 0 7.963 6.569 14.482 14.482 14.482 8.111 0 14.58-6.52 14.58-14.482m-12.192 32.397c0-8.41-6.817-15.228-15.228-15.228-8.36 0-15.227 6.818-15.227 15.228 0 8.51 6.867 15.327 15.227 15.327 8.41 0 15.228-6.818 15.228-15.327m-5.374 49.017c7.614-2.687 11.545-11.396 8.609-19.209-2.787-7.962-11.247-12.092-18.86-9.306-7.565 2.738-11.596 11.396-8.76 19.408 2.837 7.813 11.447 11.894 19.01 9.107m112.218-104.852c4.977 0 8.809-3.882 8.809-8.759 0-4.777-3.832-8.709-8.809-8.709-4.876 0-8.957 3.932-8.957 8.71 0 4.876 4.08 8.758 8.957 8.758m101.519-8.659c0 5.922 4.926 10.65 10.799 10.65 5.872 0 10.749-4.728 10.749-10.65 0-5.872-4.877-10.75-10.75-10.75-5.872 0-10.798 4.878-10.798 10.75m27.669 1.94c0 6.57 5.275 11.894 11.843 11.894 6.619 0 12.043-5.325 12.043-11.894 0-6.568-5.424-11.943-12.043-11.943-6.568 0-11.843 5.375-11.843 11.943m27.867 8.36c0 7.565 6.27 13.785 13.934 13.785s13.884-6.22 13.884-13.784c0-7.664-6.22-13.884-13.884-13.884-7.663 0-13.934 6.22-13.934 13.884m24.484 21.796c0 7.963 6.52 14.482 14.581 14.482 8.012 0 14.481-6.52 14.481-14.482 0-8.111-6.469-14.53-14.48-14.53-8.063 0-14.582 6.419-14.582 14.53m12.192 32.447c0 8.46 6.768 15.277 15.228 15.277s15.328-6.818 15.328-15.277c0-8.46-6.868-15.228-15.328-15.228a15.164 15.164 0 0 0-15.228 15.228m5.425 48.967c7.614 2.787 16.123-1.294 19.01-9.107 2.836-8.012-1.045-16.521-8.71-19.308-7.563-2.886-16.073 1.294-19.009 9.206-2.787 7.863.946 16.522 8.709 19.21M346.238 174.483c0 4.877 4.03 8.759 9.057 8.759 4.827 0 8.907-3.882 8.907-8.759 0-4.777-4.08-8.709-8.907-8.709-5.026 0-9.057 3.932-9.057 8.71m-24.957 19.881c0-5.176-4.33-9.306-9.306-9.306-5.225 0-9.355 4.13-9.355 9.306 0 5.175 4.13 9.306 9.355 9.306 4.977 0 9.306-4.13 9.306-9.306m3.832 55.089c0-7.216-5.872-13.238-13.088-13.238-7.365 0-13.138 6.022-13.138 13.238 0 7.265 5.773 13.137 13.138 13.137 7.216 0 13.088-5.872 13.088-13.137m-1.792-29.46c0-6.32-5.125-11.496-11.346-11.496-6.37 0-11.495 5.175-11.495 11.495 0 6.27 5.125 11.396 11.495 11.396 6.22 0 11.346-5.125 11.346-11.396M295.623.022h32.645l-7.266 28.266 24.982-8.062v33.143l-24.982-7.117V76.51H302.84V46.252l-24.982 7.117V20.226l25.031 8.062zm7.191 76.542v38.268c-13.586.547-26.823 2.14-39.662 4.827 2.04-21.647 18.512-39.164 39.662-43.095m18.173.049c21.1 3.882 37.423 21.399 39.662 43.046-12.839-2.687-26.176-4.28-39.662-4.827V76.613zm38.543 59.384c-5.226 21.597-24.484 37.72-47.674 37.72-23.19 0-42.598-16.023-47.674-37.72 15.327-3.384 31.351-5.176 47.674-5.176 16.322 0 32.247 1.792 47.674 5.176" fill="#B39759"/><mask id="f" fill="#fff"><use xlink:href="#e"/></mask><path d="M495.649 505.205h30.704v-20.85H495.65v20.85zm-49.565 2.787l-27.619-13.237 27.62-13.138 27.519 13.138-27.52 13.237zm-62.802.846c-8.161 0-14.979-6.32-14.979-14.083 0-7.713 6.818-13.984 14.979-13.984s14.979 6.27 14.979 13.984c0 7.763-6.818 14.083-14.979 14.083zm-101.917-3.633h61.26v-20.85h-61.26v20.85zm-40.856 3.633c-8.111 0-14.83-6.32-14.83-14.083 0-7.713 6.719-13.984 14.83-13.984 8.46 0 14.98 6.27 14.98 13.984 0 7.763-6.52 14.083-14.98 14.083zm-62.304-.846l-27.52-13.237 27.52-13.138 27.619 13.138-27.62 13.237zm-80.668-2.787h30.705v-20.85H97.537v20.85zm-13.585 16.373h456.037v-53.845H83.952v53.845z" fill="#B39759" mask="url(#f)"/></g></svg>