<svg width="24" height="24" xmlns="http://www.w3.org/2000/svg"><title>Start Half Filled</title><g fill="none" fill-rule="evenodd"><path d="M0 0h24v24H0z"/><path stroke="#000" stroke-width="1.5" fill="#000" opacity=".241" stroke-linecap="round" stroke-linejoin="round" d="M12 17.75l-6.172 3.245 1.179-6.873-5-4.867 6.9-1 3.086-6.253 3.086 6.253 6.9 1-5 4.867 1.179 6.873z"/><path d="M11.32 1.67a.726.726 0 0 1 .68-.419v17.345l-5.823 3.063a.75.75 0 0 1-1.099-.69l.01-.1L6.2 14.383 1.484 9.792a.75.75 0 0 1 .31-1.257l.105-.022 6.51-.944z" fill="#000" fill-rule="nonzero"/></g></svg>