<svg width="58" height="18" xmlns="http://www.w3.org/2000/svg"><title>Think Logo</title><g fill="#22242C"><path d="M44.456 17.696h-3.649V1.84L40.21.69l4.247-.474zm-6.018-8.46v8.46h-3.65V9.493a1.818 1.818 0 0 0-.508-1.29c-.664-.678-1.758-.683-2.57-.061v9.554h-3.652V7.053l-.633-1.217h4.284v1.219a.796.796 0 0 1 .066-.071c1.236-1.262 2.963-1.659 4.363-1.146.48.173.916.453 1.273.818.67.69 1.04 1.618 1.027 2.58zm-12.748-3.4v11.86h-3.65V7.053l-.633-1.217z"/><ellipse cx="23.865" cy="1.971" rx="2.038" ry="1.971"/><path d="M48.22 11.765l3.075 5.931h-3.55l-3.076-5.93 2.676-5.059-.454-.87h4.404zm-29.564-5.11a3.382 3.382 0 0 0-1.272-.819c-1.408-.512-3.137-.116-4.364 1.146a.796.796 0 0 0-.065.07V.217L8.696.691l.597 1.149v15.856h3.65V8.142c.812-.622 1.908-.617 2.572.062.332.346.514.809.507 1.289v8.203h3.65v-8.46a3.636 3.636 0 0 0-1.016-2.581zM7.802 15.65a1.864 1.864 0 0 1-2.14-.32 1.818 1.818 0 0 1-.507-1.292V8.204h1.818l.254-2.364H5.155V2.845L1.504 5.836H0V8.2h1.504v6.09a3.64 3.64 0 0 0 1.016 2.583 3.41 3.41 0 0 0 1.273.82c1.407.51 3.136.114 4.363-1.146.024-.025.046-.047.066-.07l-.42-.828zm49.243-1.392H53.03l.633 1.217v2.221H57.1v-3.438z"/></g></svg>