<?xml version="1.0" standalone="no"?>
<!DOCTYPE svg PUBLIC "-//W3C//DTD SVG 1.1//EN" "http://www.w3.org/Graphics/SVG/1.1/DTD/svg11.dtd" >
<svg xmlns="http://www.w3.org/2000/svg" xmlns:xlink="http://www.w3.org/1999/xlink" version="1.1">
<metadata>
Created by FontForge 20170924 at Wed Jun 13 16:05:58 2007
 By www-data
Copyright 1986, 1990, 1991, 1994, 2001, 2002 Adobe Systems Incorporated. All rights reserved. Century Old Style
</metadata>
<defs>
<font id="CenturyOldStyleStd-Bold" horiz-adv-x="659" >
  <font-face 
    font-family="Century Old Style Std"
    font-weight="700"
    font-stretch="normal"
    units-per-em="1000"
    panose-1="2 5 8 3 6 5 5 2 2 4"
    ascent="767"
    descent="-233"
    x-height="482"
    cap-height="732"
    bbox="-176 -252 1144 1023"
    underline-thickness="50"
    underline-position="-100"
    stemh="31"
    stemv="144"
    unicode-range="U+0020-FB02"
  />
<missing-glyph horiz-adv-x="500" 
d="M0 0v700h500v-700h-500zM250 395l170 255h-340zM280 350l170 -255v510zM80 50h340l-170 255zM50 605v-510l170 255z" />
    <glyph glyph-name="f_i" unicode="fi" horiz-adv-x="617" 
d="M317 439h-86v-299c0 -51 -8 -109 63 -109v-31h-287v31c74 -1 80 26 80 89v319h-86v47h86c-6 148 75 264 234 264c74 0 229 -23 229 -122c0 -40 -30 -67 -69 -67c-34 0 -68 23 -68 60c0 16 6 29 6 43c0 30 -68 35 -89 35c-63 0 -105 -33 -105 -100c2 -39 4 -78 6 -113h215
c32 2 65 1 95 16v-401c0 -50 15 -67 66 -70v-31h-264v31c55 5 54 40 54 83v255c0 33 0 51 -11 61c-8 7 -18 9 -69 9z" />
    <glyph glyph-name="f_l" unicode="fl" horiz-adv-x="609" 
d="M410 725l129 30v-633c0 -50 2 -93 67 -91v-31h-262v31c54 10 51 48 51 92v499c0 40 -24 77 -81 77c-59 0 -92 -46 -92 -103c0 -37 8 -75 7 -110h108v-47h-107v-317c0 -49 1 -89 63 -91v-31h-291v31c78 -3 83 23 84 90v318h-87v47h87c0 96 16 145 46 182
c45 54 108 82 178 82c35 0 69 -9 100 -25z" />
    <glyph glyph-name=".notdef" horiz-adv-x="500" 
d="M0 0v700h500v-700h-500zM250 395l170 255h-340zM280 350l170 -255v510zM80 50h340l-170 255zM50 605v-510l170 255z" />
    <glyph glyph-name="space" unicode=" " horiz-adv-x="329" 
 />
    <glyph glyph-name="exclam" unicode="!" horiz-adv-x="339" 
d="M191 241h-42c-10 219 -75 363 -75 418c0 53 44 91 96 91s96 -38 96 -91c0 -55 -65 -199 -75 -418zM78 73c0 51 41 92 92 92c50 0 91 -41 91 -92c0 -50 -41 -91 -91 -91c-51 0 -92 41 -92 91z" />
    <glyph glyph-name="quotedbl" unicode="&#x22;" horiz-adv-x="400" 
d="M87 500l-22 178c-4 35 11 72 53 72c32 0 47 -25 47 -54c0 -18 -2 -33 -5 -50l-23 -138c-2 -15 -4 -44 -25 -44c-20 0 -23 21 -25 36zM259 500l-22 178c-4 35 11 72 53 72c32 0 47 -25 47 -54c0 -18 -2 -33 -5 -50l-23 -138c-2 -15 -4 -44 -25 -44c-20 0 -23 21 -25 36z
" />
    <glyph glyph-name="numbersign" unicode="#" horiz-adv-x="560" 
d="M500 305v-78h-103l-32 -227h-81l32 227h-99l-32 -227h-82l32 227h-103v78h111l20 129h-99v78h107l30 213h82l-30 -213h99l30 213h81l-30 -213h96v-78h-104l-20 -129h95zM344 434h-99l-20 -129h99z" />
    <glyph glyph-name="dollar" unicode="$" 
d="M349 -12v-117h-52v117c-107 14 -224 93 -224 211c0 40 19 72 62 72c37 0 57 -32 57 -66c0 -17 -6 -33 -11 -47c-6 -13 -12 -26 -12 -38c0 -61 94 -93 143 -93c67 0 138 42 138 116c0 61 -22 85 -149 148c-100 51 -204 98 -204 229c0 120 87 197 200 212v110h52v-110
c98 -5 199 -86 199 -187c0 -36 -19 -65 -58 -65c-36 0 -59 33 -59 68c0 25 14 55 14 78c0 53 -71 67 -112 67c-65 0 -130 -38 -130 -108c0 -154 361 -140 361 -370c0 -125 -91 -213 -215 -227z" />
    <glyph glyph-name="percent" unicode="%" horiz-adv-x="793" 
d="M195 363c-82 0 -164 71 -164 182c0 94 67 191 170 191c74 0 160 -66 160 -194c0 -90 -70 -179 -166 -179zM199 707c-63 0 -73 -109 -73 -153c0 -45 4 -162 71 -162c64 0 69 106 69 151c0 149 -35 164 -67 164zM596 -5c-82 0 -164 71 -164 182c0 94 67 191 170 191
c74 0 160 -66 160 -194c0 -90 -70 -179 -166 -179zM600 339c-63 0 -73 -109 -73 -153c0 -45 4 -162 71 -162c64 0 69 106 69 151c0 149 -35 164 -67 164zM168 0l381 732h76l-381 -732h-76z" />
    <glyph glyph-name="ampersand" unicode="&#x26;" horiz-adv-x="840" 
d="M263 372c-51 -20 -76 -59 -76 -115c0 -96 69 -221 178 -221c31 0 74 9 100 29c-83 91 -147 198 -202 307zM574 404v33h249v-33c-55 -13 -77 -19 -114 -118c-21 -58 -51 -114 -95 -159c24 -38 56 -68 104 -68c37 0 67 21 95 43l19 -18c-46 -61 -109 -102 -188 -102
c-57 0 -95 18 -139 52c-63 -37 -134 -52 -206 -52c-207 0 -262 119 -262 196c0 116 107 194 205 235c-22 46 -41 96 -41 148c0 120 109 189 221 189c82 0 174 -46 174 -137c0 -88 -109 -141 -177 -176c46 -96 106 -187 166 -275c46 40 81 100 81 162c0 57 -39 81 -92 80z
M398 475c60 33 97 86 97 155c0 47 -23 87 -75 87c-50 0 -76 -38 -76 -84c0 -51 29 -114 54 -158z" />
    <glyph glyph-name="quoteright" unicode="&#x2019;" horiz-adv-x="280" 
d="M55 407l-18 35c78 39 101 65 98 121c-48 4 -86 45 -86 93c0 55 44 94 98 94c67 0 96 -60 96 -119c0 -108 -94 -189 -188 -224z" />
    <glyph glyph-name="parenleft" unicode="(" horiz-adv-x="388" 
d="M351 750l21 -27c-145 -103 -180 -292 -180 -458c0 -165 42 -342 180 -445l-21 -29c-181 98 -306 265 -306 477c0 222 118 377 306 482z" />
    <glyph glyph-name="parenright" unicode=")" horiz-adv-x="388" 
d="M37 -209l-21 27c145 103 180 292 180 458c0 165 -42 342 -180 445l21 29c181 -98 306 -265 306 -477c0 -222 -118 -377 -306 -482z" />
    <glyph glyph-name="asterisk" unicode="*" horiz-adv-x="556" 
d="M252 579c-7 37 -17 75 -17 113c0 27 11 58 43 58s43 -31 43 -58c0 -38 -10 -76 -17 -113c31 18 95 57 128 57c23 0 45 -16 45 -40c0 -60 -115 -59 -157 -66c29 -27 96 -80 96 -120c0 -21 -16 -41 -38 -41c-52 0 -80 92 -100 130c-18 -36 -49 -130 -97 -130
c-24 0 -40 17 -40 41c0 40 67 93 95 120c-42 7 -156 5 -156 66c0 24 21 40 44 40c33 0 97 -39 128 -57z" />
    <glyph glyph-name="plus" unicode="+" horiz-adv-x="560" 
d="M59 313h181v181h81v-181h181v-81h-181v-181h-81v181h-181v81z" />
    <glyph glyph-name="comma" unicode="," horiz-adv-x="329" 
d="M80 -180l-18 35c78 39 101 65 98 121c-48 4 -86 45 -86 93c0 55 44 94 98 94c67 0 96 -60 96 -119c0 -108 -94 -189 -188 -224z" />
    <glyph glyph-name="hyphen" unicode="-" horiz-adv-x="322" 
d="M44 209v95h234v-95h-234z" />
    <glyph glyph-name="period" unicode="." horiz-adv-x="329" 
d="M73 73c0 51 41 92 92 92c50 0 91 -41 91 -92c0 -50 -41 -91 -91 -91c-51 0 -92 41 -92 91z" />
    <glyph glyph-name="slash" unicode="/" horiz-adv-x="509" 
d="M-29 -103l424 835h90l-425 -835h-89z" />
    <glyph glyph-name="zero" unicode="0" 
d="M337 736c131 0 285 -126 285 -382c0 -219 -142 -366 -289 -366c-163 0 -295 145 -295 358c0 238 137 390 299 390zM330 27c128 0 138 233 138 323c0 278 -63 347 -135 347c-124 0 -141 -243 -141 -332c0 -237 55 -338 138 -338z" />
    <glyph glyph-name="one" unicode="1" 
d="M413 736v-579c0 -99 0 -117 145 -126v-31h-443v31c111 8 148 11 148 158v291c0 82 -40 134 -148 134v31c104 12 207 43 298 91z" />
    <glyph glyph-name="two" unicode="2" 
d="M162 125h224c102 0 134 17 182 111l39 -10l-56 -226h-521v48c58 82 125 142 238 235c86 72 155 154 155 272c0 83 -38 140 -126 140c-44 0 -86 -22 -86 -72c0 -25 8 -49 8 -74c0 -45 -39 -80 -83 -80c-51 0 -82 37 -82 86c0 60 62 181 275 181c214 0 258 -125 258 -203
c0 -69 3 -132 -240 -273c-66 -38 -135 -75 -185 -135z" />
    <glyph glyph-name="three" unicode="3" 
d="M417 389c88 -33 189 -79 189 -188c0 -77 -72 -213 -289 -213c-90 0 -286 36 -286 156c0 44 31 75 75 75c47 0 84 -29 89 -90c3 -64 13 -102 101 -102c97 0 146 72 146 162c0 103 -56 176 -163 176c-19 0 -37 -6 -56 -6c-15 0 -28 11 -28 26c0 19 15 29 33 29
c16 0 32 -4 48 -4c100 0 147 62 147 159c0 69 -32 128 -108 128c-64 0 -90 -25 -92 -81c0 -62 -30 -99 -78 -99c-38 0 -72 34 -72 72c0 53 58 147 243 147c103 0 271 -40 271 -171c0 -97 -89 -148 -170 -176z" />
    <glyph glyph-name="four" unicode="4" 
d="M500 725v-501h137v-54h-137v-76c0 -51 19 -59 96 -63v-31h-354v31c88 7 102 18 102 60v79h-322v54l379 501h99zM344 224v341l-259 -341h259z" />
    <glyph glyph-name="five" unicode="5" 
d="M127 725h445l-32 -130h-370l-21 -197c60 42 133 67 207 67c127 0 269 -69 269 -231c0 -114 -90 -246 -326 -246c-179 0 -251 90 -251 142c0 50 39 87 89 87c47 0 76 -26 81 -91c8 -73 35 -99 90 -99c110 0 145 101 145 194c0 101 -55 184 -162 184
c-62 0 -121 -36 -164 -79l-37 14z" />
    <glyph glyph-name="six" unicode="6" 
d="M212 358c54 61 131 108 215 108c126 0 203 -91 203 -213c0 -170 -130 -265 -291 -265c-186 0 -299 163 -299 336c0 182 136 412 364 412c68 0 179 -28 179 -114c0 -43 -34 -70 -76 -70c-114 0 -53 137 -143 137c-70 0 -148 -66 -152 -331zM214 299c0 -91 6 -272 131 -272
c102 0 131 118 131 200c0 71 -28 167 -115 167c-58 0 -115 -51 -147 -95z" />
    <glyph glyph-name="seven" unicode="7" 
d="M627 725v-43c-118 -172 -227 -347 -244 -560c-7 -88 -32 -134 -99 -134c-58 0 -89 48 -89 102c0 139 214 405 313 505h-188c-119 0 -176 -2 -228 -125h-38l64 255h509z" />
    <glyph glyph-name="eight" unicode="8" 
d="M397 441c46 35 78 66 78 128c0 85 -80 120 -153 120c-56 0 -126 -26 -126 -92c0 -95 130 -130 201 -156zM340 290l-98 38c-43 -41 -71 -80 -71 -141c0 -107 72 -160 173 -160c68 0 157 39 157 120c0 87 -94 117 -161 143zM460 420c91 -45 169 -93 169 -206
c0 -97 -91 -226 -311 -226c-115 0 -287 39 -287 184c0 93 90 141 159 182c-63 39 -115 90 -115 169c0 147 143 213 272 213c101 0 249 -39 249 -164c0 -80 -69 -126 -136 -152z" />
    <glyph glyph-name="nine" unicode="9" 
d="M318 736c188 0 305 -164 305 -339c0 -203 -149 -409 -367 -409c-85 0 -175 42 -175 112c0 45 37 68 79 68c106 0 55 -133 137 -133c69 0 152 52 152 329c-56 -61 -136 -107 -220 -107c-128 0 -199 96 -199 217c0 164 133 262 288 262zM449 429c-4 85 -15 268 -134 268
c-104 0 -131 -116 -131 -200c0 -72 28 -168 116 -168c63 0 113 54 149 100z" />
    <glyph glyph-name="colon" unicode=":" horiz-adv-x="329" 
d="M73 73c0 51 41 92 92 92c50 0 91 -41 91 -92c0 -50 -41 -91 -91 -91c-51 0 -92 41 -92 91zM73 402c0 51 41 92 92 92c50 0 91 -41 91 -92c0 -50 -41 -91 -91 -91c-51 0 -92 41 -92 91z" />
    <glyph glyph-name="semicolon" unicode=";" horiz-adv-x="329" 
d="M80 -180l-18 35c78 39 101 65 98 121c-48 4 -86 45 -86 93c0 55 44 94 98 94c67 0 96 -60 96 -119c0 -108 -94 -189 -188 -224zM74 402c0 51 41 92 92 92c50 0 91 -41 91 -92c0 -50 -41 -91 -91 -91c-51 0 -92 41 -92 91z" />
    <glyph glyph-name="less" unicode="&#x3c;" horiz-adv-x="560" 
d="M516 98v-79l-472 215v78l472 217v-80l-393 -177z" />
    <glyph glyph-name="equal" unicode="=" horiz-adv-x="560" 
d="M59 381h443v-81h-443v81zM59 245h443v-81h-443v81z" />
    <glyph glyph-name="greater" unicode="&#x3e;" horiz-adv-x="560" 
d="M44 98l393 174l-393 177v80l472 -217v-78l-472 -215v79z" />
    <glyph glyph-name="question" unicode="?" horiz-adv-x="473" 
d="M142 228v211c91 -2 166 51 166 149c0 40 -11 104 -63 104c-64 0 -36 -99 -124 -99c-38 0 -73 32 -73 70c0 67 79 87 132 87c128 0 249 -89 249 -224c0 -139 -100 -222 -235 -217v-81h-52zM74 73c0 51 41 92 92 92c50 0 91 -41 91 -92c0 -50 -41 -91 -91 -91
c-51 0 -92 41 -92 91z" />
    <glyph glyph-name="at" unicode="@" horiz-adv-x="720" 
d="M570 554l-94 -249c-5 -13 -17 -39 -17 -53s18 -20 30 -20c41 0 159 71 159 209c0 143 -124 235 -266 235c-165 0 -307 -136 -307 -305c0 -180 136 -315 312 -315c108 0 212 49 269 144h66c-57 -146 -191 -218 -341 -218c-213 0 -383 168 -383 383c0 216 172 385 383 385
c190 0 342 -128 342 -305c0 -183 -143 -287 -263 -287c-36 0 -71 17 -72 55c-32 -28 -69 -53 -114 -53c-74 0 -102 57 -102 127c0 122 89 286 213 286c29 0 54 -12 75 -34l6 15h104zM403 499c-66 0 -132 -189 -132 -240c0 -12 11 -27 24 -27c51 0 128 191 128 242
c0 13 -4 25 -20 25z" />
    <glyph glyph-name="A" unicode="A" horiz-adv-x="690" 
d="M434 758l186 -599c22 -72 32 -124 122 -126v-33h-351v33c64 2 79 15 79 45c0 19 -6 40 -12 58l-36 118h-255l-22 -63c-9 -26 -20 -56 -20 -84c0 -51 46 -71 90 -74v-33h-266v33c93 26 113 76 144 158l195 520zM406 301l-100 321l-119 -321h219z" />
    <glyph glyph-name="B" unicode="B" horiz-adv-x="756" 
d="M280 368v-211c0 -86 -2 -124 101 -124c98 0 171 48 171 177c0 89 -31 158 -214 158h-58zM445 0h-426v33c72 0 97 22 97 92v482c0 70 -25 92 -97 92v33h363c255 0 311 -79 311 -168c0 -103 -105 -151 -192 -169v-2c111 -22 225 -63 225 -198c0 -118 -86 -195 -281 -195z
M280 415h57c126 0 182 42 182 146s-61 138 -157 138c-23 0 -54 -3 -70 -19c-13 -15 -12 -36 -12 -54v-211z" />
    <glyph glyph-name="C" unicode="C" horiz-adv-x="704" 
d="M626 746l60 -221l-45 -14c-44 96 -127 200 -241 200c-152 0 -186 -193 -186 -310c0 -242 120 -342 232 -342c99 0 162 69 214 143l26 -19c-68 -121 -162 -201 -307 -201c-199 0 -339 166 -339 358c0 208 139 410 346 410c36 0 65 -8 90 -16s46 -16 66 -16
c26 0 50 12 73 23z" />
    <glyph glyph-name="D" unicode="D" horiz-adv-x="802" 
d="M286 600v-464c0 -75 0 -97 88 -97c125 0 218 70 218 345c0 246 -93 309 -229 309c-77 0 -77 -30 -77 -93zM25 0v33c72 0 97 22 97 92v482c0 70 -25 92 -97 92v33h348c62 0 118 -7 170 -27c129 -51 223 -170 223 -347c0 -163 -97 -285 -218 -332
c-53 -21 -111 -26 -175 -26h-348z" />
    <glyph glyph-name="E" unicode="E" horiz-adv-x="707" 
d="M22 0v33c72 0 97 22 97 92v482c0 70 -25 92 -97 92v33h603l63 -187l-31 -13c-67 87 -171 161 -285 161c-89 0 -89 -30 -89 -104v-195h20c100 0 144 17 178 118h39v-289h-39c-27 101 -78 124 -176 124h-22v-211c0 -58 6 -97 77 -97c124 0 235 70 313 161l27 -14l-75 -186
h-603z" />
    <glyph glyph-name="F" unicode="F" horiz-adv-x="637" 
d="M284 610v-213h48c85 0 121 34 143 118h39v-290h-39c-10 89 -58 125 -134 125h-57v-225c0 -70 26 -92 98 -92v-33h-359v33c72 0 97 22 97 92v482c0 70 -25 92 -97 92v33h594l57 -196l-34 -13c-60 92 -162 170 -276 170c-74 0 -80 -16 -80 -83z" />
    <glyph glyph-name="G" unicode="G" horiz-adv-x="782" 
d="M629 750l61 -212l-33 -12c-91 120 -153 185 -243 185c-96 0 -196 -91 -196 -345c0 -251 77 -345 188 -345c110 0 127 81 127 174c0 82 -21 89 -98 94v39h339v-39c-82 -9 -91 -32 -91 -108v-148c-70 -1 -75 -3 -138 -22c-52 -16 -97 -29 -152 -29
c-214 0 -349 144 -349 358c0 203 143 410 362 410c30 0 55 -7 78 -14c23 -8 43 -15 61 -15c26 0 62 15 84 29z" />
    <glyph glyph-name="H" unicode="H" horiz-adv-x="830" 
d="M281 399h268v208c0 70 -25 92 -97 92v33h358v-33c-72 0 -97 -22 -97 -92v-482c0 -70 25 -92 97 -92v-33h-358v33c72 0 97 22 97 92v227h-268v-227c0 -70 25 -92 97 -92v-33h-358v33c72 0 97 22 97 92v482c0 70 -25 92 -97 92v33h358v-33c-72 0 -97 -22 -97 -92v-208z" />
    <glyph glyph-name="I" unicode="I" horiz-adv-x="408" 
d="M122 125v482c0 70 -25 92 -97 92v33h358v-33c-72 0 -97 -22 -97 -92v-482c0 -70 25 -92 97 -92v-33h-358v33c72 0 97 22 97 92z" />
    <glyph glyph-name="J" unicode="J" horiz-adv-x="476" 
d="M362 607v-349c0 -188 -58 -276 -258 -276c-66 0 -155 28 -155 108c0 46 33 82 80 82c49 0 76 -26 87 -95c3 -23 7 -56 36 -56c54 0 46 130 46 164v422c0 71 -19 89 -106 92v33h368v-33c-65 -7 -98 -9 -98 -92z" />
    <glyph glyph-name="K" unicode="K" horiz-adv-x="759" 
d="M578 588l-98 -101l206 -349c39 -67 56 -91 139 -105v-33h-365v33c62 3 71 18 71 36c0 15 -12 35 -19 48l-146 254l-80 -83v-163c1 -70 25 -92 98 -92v-33h-359v33c72 0 97 22 97 92v482c0 70 -25 92 -97 92v33h358v-33c-72 0 -97 -22 -97 -92v-250l194 200
c24 24 69 69 69 104c0 39 -49 35 -76 38v33h308v-33c-91 -17 -130 -34 -203 -111z" />
    <glyph glyph-name="L" unicode="L" horiz-adv-x="629" 
d="M24 0v33c72 0 97 22 97 92v482c0 70 -25 92 -97 92v33h358v-33c-72 0 -97 -22 -97 -92v-482c0 -60 1 -86 75 -86c123 0 227 81 303 170l25 -10l-62 -199h-602z" />
    <glyph glyph-name="M" unicode="M" horiz-adv-x="944" 
d="M829 607v-482c0 -70 25 -92 97 -92v-33h-358v33c72 0 97 22 97 92v524h-2l-225 -649h-36l-227 629h-2v-407c0 -160 9 -180 98 -189v-33h-253v33c88 17 103 28 103 189v385c0 75 -30 92 -97 92v33h293l160 -459l164 459h285v-33c-72 -5 -97 -16 -97 -92z" />
    <glyph glyph-name="N" unicode="N" horiz-adv-x="797" 
d="M271 732l353 -509v334c0 85 -8 133 -107 142v33h263v-33c-95 -16 -104 -54 -104 -142v-557h-91l-402 569v-384c0 -109 12 -130 117 -152v-33h-283v33c96 15 114 45 114 137v460c-28 35 -70 60 -114 69v33h254z" />
    <glyph glyph-name="O" unicode="O" horiz-adv-x="813" 
d="M402 -18c-218 0 -358 156 -358 376c0 213 136 392 359 392c225 0 365 -156 365 -377c0 -202 -136 -391 -366 -391zM409 711c-115 0 -191 -102 -191 -344c0 -251 71 -346 179 -346c182 0 197 209 197 345c0 258 -78 345 -185 345z" />
    <glyph glyph-name="P" unicode="P" horiz-adv-x="722" 
d="M285 594v-219h59c119 0 175 44 175 162c0 109 -59 156 -153 156c-81 0 -81 -30 -81 -99zM371 336h-86v-211c0 -70 25 -92 97 -92v-33h-358v33c72 0 97 22 97 92v482c0 70 -25 92 -97 92v33h360c224 0 309 -94 309 -193c0 -184 -179 -203 -322 -203z" />
    <glyph glyph-name="Q" unicode="Q" horiz-adv-x="814" 
d="M772 -23l22 -21c-32 -55 -91 -101 -157 -101c-85 0 -138 58 -162 134c-12 -2 -24 -4 -36 -5s-24 -2 -36 -2c-212 0 -359 182 -359 386c0 211 155 382 370 382c207 0 360 -167 360 -373c0 -131 -55 -249 -160 -327l44 -62c16 -20 33 -42 61 -42c21 0 34 12 48 26zM258 127
c16 57 64 89 122 89c77 0 125 -46 175 -98c36 85 45 179 45 270c0 244 -95 323 -194 323c-115 0 -188 -102 -188 -346c0 -80 5 -164 40 -238zM466 41c-4 59 -18 136 -92 136c-42 0 -74 -37 -74 -78c0 -50 50 -78 94 -78c26 0 48 10 72 20z" />
    <glyph glyph-name="R" unicode="R" horiz-adv-x="722" 
d="M272 396h19c165 0 215 54 215 160c0 101 -58 137 -165 137c-66 0 -69 -25 -69 -82v-215zM551 277l54 -108c37 -68 71 -130 157 -136v-33h-247c-17 26 -29 56 -43 84l-59 125c-60 129 -99 140 -141 140v-224c0 -70 25 -92 97 -92v-33h-358v33c72 0 97 22 97 92v482
c0 70 -25 92 -97 92v33h430c148 0 239 -80 239 -186c0 -110 -97 -162 -193 -180c31 -21 47 -56 64 -89z" />
    <glyph glyph-name="S" unicode="S" horiz-adv-x="612" 
d="M489 757l66 -216l-38 -13c-49 80 -149 183 -250 183c-69 0 -125 -37 -125 -109c0 -82 86 -104 150 -124l59 -19c123 -40 243 -97 243 -245c0 -137 -114 -232 -245 -232c-43 0 -85 9 -126 22c-19 6 -31 11 -51 11c-17 0 -26 -2 -89 -32l-65 231l39 13
c59 -95 156 -206 277 -206c72 0 146 51 146 128c0 82 -80 107 -144 127c-133 43 -300 93 -300 263c0 127 101 211 224 211c41 0 72 -7 110 -20c14 -5 27 -10 42 -10c25 0 59 20 77 37z" />
    <glyph glyph-name="T" unicode="T" horiz-adv-x="598" 
d="M-3 732h599l54 -200l-37 -10c-48 75 -137 169 -233 171v-568c0 -70 25 -92 97 -92v-33h-358v33c72 0 97 22 97 92v568c-100 -12 -178 -90 -231 -171l-37 10z" />
    <glyph glyph-name="U" unicode="U" horiz-adv-x="785" 
d="M274 607v-352c-3 -181 55 -234 163 -234c145 0 190 89 190 235v351c0 70 -25 92 -97 92v33h246v-33c-72 0 -97 -22 -97 -92v-359c0 -174 -76 -266 -271 -266c-199 0 -298 90 -298 245v380c0 70 -25 92 -97 92v33h358v-33c-72 0 -97 -22 -97 -92z" />
    <glyph glyph-name="V" unicode="V" horiz-adv-x="642" 
d="M-44 732h333v-33c-71 -5 -79 -19 -79 -42c0 -14 6 -30 11 -43l154 -431l131 376c7 22 17 45 17 68c0 51 -39 69 -83 72v33h246v-33c-62 -14 -91 -22 -135 -158l-190 -553h-84l-203 565c-23 63 -40 138 -118 146v33z" />
    <glyph glyph-name="W" unicode="W" horiz-adv-x="970" 
d="M-44 732h309v-33c-30 -3 -59 -6 -59 -44c0 -21 12 -59 19 -80l116 -359l109 328l-20 61l-8 20c-16 47 -35 70 -86 74v33h314v-33c-31 -1 -63 -7 -63 -45c0 -16 7 -34 11 -49l129 -395l122 366c6 18 12 37 12 56c0 50 -44 67 -87 67v33h240v-33c-53 -11 -76 -8 -129 -166
l-179 -545h-69l-163 476l-158 -476h-70l-198 617c-19 58 -24 86 -92 94v33z" />
    <glyph glyph-name="X" unicode="X" horiz-adv-x="679" 
d="M-44 732h342v-33c-55 -3 -61 -13 -61 -31c0 -15 9 -28 17 -40l11 -18l95 -140l91 121c12 16 30 39 30 60c0 24 -13 48 -73 48v33h263v-33c-68 -3 -103 -32 -143 -85l-140 -186l190 -273c36 -52 75 -119 145 -122v-33h-354v33c21 2 66 7 66 36c0 19 -15 38 -26 54
l-121 176l-100 -128c-17 -22 -40 -50 -40 -80c0 -43 44 -54 79 -58v-33h-271v33c77 14 118 62 163 121l140 187l-187 274c-35 48 -51 78 -116 84v33z" />
    <glyph glyph-name="Y" unicode="Y" horiz-adv-x="668" 
d="M-44 732h346v-33c-51 -4 -65 -14 -65 -37c0 -18 7 -30 16 -44l132 -222l115 188c11 17 24 41 24 62c0 47 -46 49 -81 53v33h269v-33c-72 -8 -97 -35 -136 -92l-15 -23l-150 -236v-223c1 -65 22 -92 98 -92v-33h-360v33c65 7 98 9 98 92v191l-191 311
c-28 47 -46 63 -100 72v33z" />
    <glyph glyph-name="Z" unicode="Z" horiz-adv-x="592" 
d="M546 0h-534l-23 33l402 660h-41c-158 0 -216 -52 -315 -169l-29 17l56 191h514l16 -33l-408 -660h39c169 0 241 59 353 178l31 -24z" />
    <glyph glyph-name="bracketleft" unicode="[" horiz-adv-x="388" 
d="M74 732h248v-60h-114v-715h114v-60h-248v835z" />
    <glyph glyph-name="backslash" unicode="\" horiz-adv-x="280" 
d="M229 0l-266 732h88l266 -732h-88z" />
    <glyph glyph-name="bracketright" unicode="]" horiz-adv-x="388" 
d="M314 732v-835h-248v60h114v715h-114v60h248z" />
    <glyph glyph-name="asciicircum" unicode="^" horiz-adv-x="560" 
d="M459 260l-174 393l-177 -393h-80l217 472h78l215 -472h-79z" />
    <glyph glyph-name="underscore" unicode="_" horiz-adv-x="500" 
d="M500 -75v-50h-500v50h500z" />
    <glyph glyph-name="quoteleft" unicode="&#x2018;" horiz-adv-x="280" 
d="M225 750l18 -35c-78 -39 -101 -65 -98 -121c48 -4 86 -45 86 -93c0 -55 -44 -94 -98 -94c-67 0 -96 60 -96 119c0 108 94 189 188 224z" />
    <glyph glyph-name="a" unicode="a" horiz-adv-x="534" 
d="M332 103v162c-80 -9 -166 -42 -166 -137c0 -45 23 -80 70 -80c37 0 73 28 96 55zM476 329v-213c1 -25 -1 -56 34 -56c8 0 17 3 25 6l7 -18c-24 -34 -69 -60 -111 -60s-78 23 -99 60c-51 -40 -103 -60 -169 -60c-82 0 -147 38 -147 126c0 140 210 178 316 195v27
c0 48 4 125 -66 125c-49 0 -61 -37 -75 -75c-12 -34 -35 -71 -74 -71c-32 0 -63 24 -63 58c0 49 59 121 229 121c44 0 111 -8 147 -37c45 -37 46 -82 46 -128z" />
    <glyph glyph-name="b" unicode="b" horiz-adv-x="600" 
d="M216 387v-297c23 -31 62 -48 102 -48c92 0 111 127 111 198c0 74 -12 194 -109 194c-38 0 -76 -21 -104 -47zM200 47l-104 -64l-24 27v552c-1 53 -13 89 -71 96v31l215 61v-313c42 33 94 57 149 57c139 0 208 -118 208 -244c0 -193 -125 -262 -226 -262
c-54 0 -106 26 -147 59z" />
    <glyph glyph-name="c" unicode="c" horiz-adv-x="515" 
d="M482 143l25 -19c-55 -83 -142 -136 -243 -136c-132 0 -232 106 -232 238c0 151 124 268 273 268c66 0 186 -27 186 -113c0 -40 -35 -68 -74 -68c-55 0 -61 36 -70 79c-8 35 -28 63 -67 63c-81 0 -98 -113 -98 -174c0 -98 33 -233 153 -233c66 0 108 48 147 95z" />
    <glyph glyph-name="d" unicode="d" horiz-adv-x="623" 
d="M399 104v282c-25 23 -72 48 -106 48c-36 0 -109 -37 -109 -186c0 -70 29 -200 120 -200c44 0 69 25 95 56zM399 439v128c0 57 -15 93 -77 97v31l221 55v-625c0 -54 13 -88 74 -94v-31c-93 -4 -157 -6 -218 -18v65c-37 -39 -86 -59 -140 -59c-142 0 -225 107 -225 244
c0 188 132 262 225 262c51 0 100 -24 140 -55z" />
    <glyph glyph-name="e" unicode="e" horiz-adv-x="535" 
d="M512 243h-337c0 -93 65 -195 170 -195c57 0 109 33 147 73l24 -21c-62 -73 -129 -112 -227 -112c-138 0 -258 93 -258 239c0 65 23 130 65 181c47 57 111 86 185 86c139 0 234 -110 231 -251zM173 286h211c0 98 -19 165 -98 165c-86 0 -112 -100 -113 -165z" />
    <glyph glyph-name="f" unicode="f" horiz-adv-x="302" 
d="M217 486h108v-47h-110v-343c0 -53 24 -65 80 -65v-31h-305v31c53 0 81 2 81 82v326h-90v47h87c0 92 34 154 61 187c41 53 91 77 158 77c53 0 113 -27 113 -87c0 -39 -30 -67 -68 -67c-59 0 -70 69 -106 69c-18 0 -22 -19 -21 -34c7 -68 0 -16 12 -145z" />
    <glyph glyph-name="g" unicode="g" horiz-adv-x="516" 
d="M256 185c68 0 94 69 94 128c0 56 -21 142 -91 142c-68 0 -95 -72 -95 -130s20 -140 92 -140zM315 -51l-163 24c-21 -16 -37 -37 -37 -64c0 -69 86 -75 136 -75c43 0 163 2 163 66c0 29 -9 39 -99 49zM97 -16c-37 21 -72 38 -72 87c0 53 55 75 95 95l9 5
c-62 28 -109 72 -109 144c0 121 130 179 235 179c33 0 65 -6 96 -15c23 45 72 97 126 97c32 0 61 -26 61 -59s-29 -59 -62 -59c-24 0 -48 18 -62 18c-10 0 -15 -6 -21 -13c53 -34 91 -75 91 -142c0 -122 -130 -175 -235 -175c-22 0 -44 3 -66 8c-11 -6 -29 -15 -29 -29
c0 -15 13 -22 25 -26c29 -8 207 -18 263 -34c54 -16 95 -49 95 -109c0 -82 -75 -155 -308 -155c-63 0 -228 4 -228 96c0 52 54 73 96 87z" />
    <glyph glyph-name="h" unicode="h" horiz-adv-x="620" 
d="M229 750v-333c54 42 100 77 172 77c76 0 141 -61 141 -138v-260c1 -59 34 -65 64 -65v-31h-274v31c36 0 63 4 66 82v228c0 14 -13 68 -73 68c-34 0 -66 -23 -96 -38v-275c1 -59 34 -65 64 -65v-31h-274v31c36 0 63 4 66 82v449c-1 53 -13 89 -71 96v31z" />
    <glyph glyph-name="i" unicode="i" horiz-adv-x="308" 
d="M294 0h-274v31c36 0 66 4 66 82v203c0 53 -13 89 -71 96v31l215 61v-408c1 -59 34 -65 64 -65v-31zM67 666c0 46 38 84 84 84c47 0 84 -38 84 -84c0 -47 -37 -84 -84 -84c-46 0 -84 37 -84 84z" />
    <glyph glyph-name="j" unicode="j" horiz-adv-x="269" 
d="M16 443l215 61v-497c0 -131 -94 -195 -187 -195c-43 0 -78 27 -78 71c0 35 28 64 63 64c57 0 61 -43 76 -43c7 0 10 8 10 13c0 6 -4 16 -6 21c-23 54 -22 59 -22 118v260c-1 53 -13 89 -71 96v31zM78 666c0 46 38 84 84 84c47 0 84 -38 84 -84c0 -47 -37 -84 -84 -84
c-46 0 -84 37 -84 84z" />
    <glyph glyph-name="k" unicode="k" horiz-adv-x="597" 
d="M232 750v-506l109 104c14 13 48 46 48 66c0 31 -33 35 -57 37v31h264v-29c-81 -11 -144 -66 -201 -121l-12 -13l141 -203c31 -45 48 -70 104 -85v-31h-278v31c17 1 38 9 38 29c0 16 -16 37 -25 50l-84 119l-47 -42v-91c0 -59 35 -65 65 -65v-31h-275v31c36 0 66 4 66 82
v449c0 53 -13 89 -71 96v31z" />
    <glyph glyph-name="l" unicode="l" horiz-adv-x="301" 
d="M16 689l215 61v-654c0 -59 34 -65 64 -65v-31h-275v31c36 0 67 4 67 82v449c-1 53 -13 89 -71 96v31z" />
    <glyph glyph-name="m" unicode="m" horiz-adv-x="924" 
d="M230 359v-263c0 -59 34 -65 64 -65v-31h-274v31c36 0 66 4 66 82v203c-1 53 -13 89 -71 96v31l215 61v-95c47 42 104 85 170 85c58 0 102 -37 130 -85c49 41 103 85 169 85c89 0 147 -71 147 -173v-225c0 -59 34 -65 64 -65v-31h-274v31c36 0 66 4 66 82v206
c0 64 -34 90 -72 90c-33 0 -70 -27 -92 -50v-263c0 -59 34 -65 64 -65v-31h-274v31c36 0 66 4 66 82v206c0 43 -11 90 -64 90c-35 0 -77 -26 -100 -50z" />
    <glyph glyph-name="n" unicode="n" horiz-adv-x="618" 
d="M226 356v-260c0 -59 34 -65 64 -65v-31h-274v31c36 0 66 4 66 82v203c0 53 -13 89 -71 96v31l215 61v-92c50 36 107 82 172 82c90 0 145 -81 145 -145v-253c1 -59 34 -65 64 -65v-31h-274v31c36 0 66 4 66 82v168c0 99 -24 128 -80 128c-37 0 -70 -25 -93 -53z" />
    <glyph glyph-name="o" unicode="o" horiz-adv-x="569" 
d="M284 -12c-139 0 -256 104 -256 246c0 173 147 260 270 260c164 0 244 -128 244 -239c0 -153 -103 -267 -258 -267zM289 455c-100 0 -117 -144 -117 -218s16 -210 115 -210c97 0 111 139 111 210c0 73 -8 218 -109 218z" />
    <glyph glyph-name="p" unicode="p" horiz-adv-x="612" 
d="M223 375v-280c29 -29 56 -53 99 -53c95 0 113 142 113 213c0 67 -16 179 -104 179c-44 0 -81 -26 -108 -59zM223 42v-134c1 -59 34 -65 64 -65v-31h-274v31c36 0 63 4 66 82v391c-1 53 -13 89 -71 96v31l215 61v-75c39 41 93 65 149 65c138 0 207 -118 207 -245
c0 -183 -138 -261 -215 -261c-53 0 -99 24 -141 54z" />
    <glyph glyph-name="q" unicode="q" horiz-adv-x="600" 
d="M385 90v304c-26 24 -53 40 -90 40c-48 0 -119 -41 -119 -206c0 -100 30 -180 108 -180c35 0 77 17 101 42zM403 432l108 67l18 -13v-578c0 -59 34 -65 64 -65v-31h-274v31c36 0 66 4 66 82v116c-45 -29 -85 -53 -141 -53c-141 0 -218 116 -218 246c0 195 145 260 224 260
c63 0 106 -22 153 -62z" />
    <glyph glyph-name="r" unicode="r" horiz-adv-x="436" 
d="M232 319v-223c3 -55 28 -65 71 -65v-31h-285v31c45 0 70 6 70 82v200c0 53 -13 89 -71 96v31l215 61v-115c35 44 93 118 154 118c40 0 68 -40 68 -78c0 -35 -27 -66 -63 -66c-31 0 -64 25 -86 25c-23 0 -61 -47 -73 -66z" />
    <glyph glyph-name="s" unicode="s" horiz-adv-x="502" 
d="M408 504l49 -163l-39 -14c-47 57 -119 128 -198 128c-36 0 -77 -22 -77 -62c0 -61 100 -67 143 -74c90 -15 194 -47 194 -158c0 -55 -23 -103 -60 -134c-43 -36 -99 -49 -186 -36c-20 3 -39 10 -59 10c-32 0 -64 -6 -92 -20l-50 173l36 11c53 -67 128 -140 219 -140
c36 0 78 18 78 60c0 59 -69 75 -115 85c-91 19 -207 47 -207 162c0 94 79 162 170 162c41 0 89 -20 120 -20c26 0 53 13 74 30z" />
    <glyph glyph-name="t" unicode="t" horiz-adv-x="332" 
d="M72 439h-70v47c128 12 148 84 178 175h38v-175h139v-47h-141v-307c0 -37 13 -72 64 -72c27 0 56 19 77 36l23 -22c-38 -49 -106 -86 -167 -86c-107 0 -141 82 -141 139v312z" />
    <glyph glyph-name="u" unicode="u" horiz-adv-x="632" 
d="M401 0v69c-53 -43 -111 -81 -182 -81c-96 0 -137 65 -137 148v180c0 53 -13 89 -71 96v31l215 61v-366c0 -39 28 -65 70 -65c39 0 77 29 105 53v190c0 53 -13 89 -71 96v31l215 61v-379c0 -53 13 -89 72 -94v-31h-216z" />
    <glyph glyph-name="v" unicode="v" horiz-adv-x="504" 
d="M-37 482h271v-31c-22 0 -46 -6 -46 -33c0 -14 5 -27 10 -39l98 -235l74 169c9 20 22 53 22 75c0 40 -29 59 -65 63v31h214v-31c-68 -27 -77 -46 -105 -110l-151 -348h-75l-164 378c-22 47 -30 64 -83 80v31z" />
    <glyph glyph-name="w" unicode="w" horiz-adv-x="743" 
d="M-33 482h252v-31c-18 -1 -44 -11 -44 -32c0 -17 11 -40 17 -56l76 -197l79 180l-10 22c-17 43 -32 73 -81 83v31h262v-31c-21 -2 -43 -6 -43 -32c0 -14 8 -33 13 -46l78 -207l68 168c7 19 17 40 17 60c0 38 -26 57 -61 57v31h189v-31c-50 -14 -70 -63 -88 -108l-142 -350
h-66l-111 284l-121 -284h-64l-152 376c-13 34 -27 75 -68 82v31z" />
    <glyph glyph-name="x" unicode="x" horiz-adv-x="526" 
d="M-20 482h271v-31c-15 -2 -35 -7 -35 -26c0 -15 21 -39 29 -50l42 -55l39 40c13 13 37 37 37 56c0 31 -29 32 -51 35v31h213v-31c-56 -5 -77 -27 -113 -66l-94 -104l116 -149c34 -44 67 -81 121 -101v-31h-284v31c15 2 39 6 39 25s-20 41 -31 55l-55 67l-37 -39
c-15 -15 -42 -45 -42 -66c0 -28 27 -40 51 -42v-31h-222v31c56 15 79 33 118 73l20 22l84 90l-127 161c-25 31 -47 64 -89 74v31z" />
    <glyph glyph-name="y" unicode="y" horiz-adv-x="493" 
d="M-37 482h263v-31c-22 -2 -43 -12 -43 -38c0 -20 10 -41 18 -59l88 -187l75 163c9 19 20 42 20 63c0 31 -14 50 -67 58v31h209v-31c-68 -17 -84 -63 -110 -121l-150 -334c-40 -88 -86 -184 -200 -184c-42 0 -86 25 -86 71c0 37 32 65 68 65c47 0 63 -51 89 -51
c34 0 72 77 82 104l-178 378c-17 37 -31 69 -78 72v31z" />
    <glyph glyph-name="z" unicode="z" horiz-adv-x="443" 
d="M441 482l13 -27l-292 -416h32c108 0 186 65 232 141l28 -12l-47 -168h-411l-11 31l288 412h-30c-96 0 -149 -48 -206 -121l-32 14l51 146h385z" />
    <glyph glyph-name="braceleft" unicode="{" horiz-adv-x="388" 
d="M265 184v-172c0 -60 20 -96 89 -113v-2c-85 0 -156 -3 -199 35c-33 30 -34 77 -34 116v163c0 65 -12 98 -90 113v2c51 8 90 30 90 106v185c0 42 3 82 48 109c49 29 98 24 185 24v-2c-72 -18 -89 -51 -89 -113v-185c0 -68 -15 -109 -100 -124v-2c89 -15 100 -69 100 -140z
" />
    <glyph glyph-name="bar" unicode="|" horiz-adv-x="280" 
d="M99 -250v1000h81v-1000h-81z" />
    <glyph glyph-name="braceright" unicode="}" horiz-adv-x="388" 
d="M123 463v172c0 60 -20 96 -89 113v2c85 0 156 3 199 -35c33 -30 34 -77 34 -116v-163c0 -65 12 -95 90 -110v-2c-51 -8 -90 -33 -90 -109v-185c0 -42 -3 -82 -48 -109c-49 -29 -98 -24 -185 -24v2c72 18 89 51 89 113v185c0 68 15 112 100 127v2c-89 15 -100 66 -100 137
z" />
    <glyph glyph-name="asciitilde" unicode="~" horiz-adv-x="560" 
d="M466 348l63 -40c-36 -51 -72 -104 -142 -104c-32 0 -58 10 -88 21l-42 16c-23 8 -53 22 -77 22c-45 0 -65 -40 -87 -73l-62 41c34 55 76 109 147 109c37 0 77 -14 113 -29c37 -14 71 -29 96 -29c38 0 60 39 79 66z" />
    <glyph glyph-name="exclamdown" unicode="&#xa1;" horiz-adv-x="339" 
d="M147 247h46c10 -175 67 -321 67 -354c0 -52 -38 -99 -90 -99s-90 47 -90 99c0 33 57 179 67 354zM78 402c0 51 41 92 92 92c50 0 91 -41 91 -92c0 -50 -41 -91 -91 -91c-51 0 -92 41 -92 91z" />
    <glyph glyph-name="cent" unicode="&#xa2;" 
d="M558 280l25 -20c-45 -71 -121 -122 -204 -134v-109h-54v109c-130 10 -221 108 -221 239c0 126 98 237 221 260v100h54v-95c65 2 191 -27 191 -110c0 -45 -39 -71 -81 -71c-44 0 -55 28 -63 65c-14 66 -43 77 -71 77c-59 0 -97 -69 -97 -176c0 -101 33 -223 156 -223
c64 0 106 43 144 88z" />
    <glyph glyph-name="sterling" unicode="&#xa3;" 
d="M246 86c-35 29 -72 60 -121 60c-35 0 -77 -17 -77 -59c0 -41 43 -54 77 -54c44 0 95 17 121 53zM232 326l-5 12h-148v47h123c-11 31 -15 63 -15 96c0 148 122 255 265 255c73 0 183 -36 183 -125c0 -43 -34 -70 -75 -70c-60 0 -79 39 -79 92c0 47 -17 64 -48 64
c-45 0 -92 -44 -92 -138c0 -58 22 -118 33 -174h170v-47h-165l3 -45c0 -45 -8 -93 -29 -134c51 -24 120 -43 176 -43c41 0 77 14 105 43l23 -11c-17 -88 -93 -160 -185 -160c-40 0 -79 5 -181 71c-48 -36 -104 -65 -164 -65c-54 0 -118 29 -118 91s65 112 165 112
c34 0 67 -8 99 -17c1 6 3 12 3 18c0 41 -26 92 -44 128z" />
    <glyph glyph-name="fraction" unicode="&#x2044;" horiz-adv-x="102" 
d="M-176 0l381 732h73l-380 -732h-74z" />
    <glyph glyph-name="yen" unicode="&#xa5;" 
d="M459 450h140v-47h-163l-37 -83h200v-47h-200v-149c2 -81 39 -91 97 -91v-33h-344v33c64 7 96 8 97 91v149h-190v47h183l-38 83h-145v47h123l-75 151c-20 40 -45 86 -94 91v33h299v-33c-26 1 -46 -16 -46 -43c0 -15 8 -32 14 -46l99 -211l83 185c7 17 19 44 19 63
c0 37 -27 48 -59 52v33h223v-33c-62 -7 -102 -62 -127 -115z" />
    <glyph glyph-name="florin" unicode="&#x192;" 
d="M447 470h78l-7 -47h-77l-88 -334c-65 -245 -163 -277 -212 -277c-42 0 -97 30 -97 78c0 26 22 54 50 54c41 0 55 -48 87 -48c22 0 45 15 74 200l52 327h-77l6 47h84c25 103 118 280 240 280c45 0 99 -27 99 -78c0 -31 -22 -55 -53 -55c-41 0 -47 49 -82 49
c-20 0 -47 -14 -77 -196z" />
    <glyph glyph-name="section" unicode="&#xa7;" horiz-adv-x="560" 
d="M204 271l181 -101c12 19 23 40 23 63c0 45 -37 67 -73 86l-155 91c-14 -21 -29 -43 -29 -69c0 -36 24 -53 53 -70zM286 501l136 -81c48 -34 87 -69 87 -132c0 -65 -32 -108 -85 -140c55 -42 98 -88 98 -162c0 -133 -134 -192 -250 -192c-172 0 -234 117 -234 180
c0 39 17 83 63 83c35 0 72 -29 72 -65c0 -28 -27 -68 -27 -94c0 -53 92 -65 129 -65c66 0 133 36 133 110c0 45 -37 79 -107 115l-144 74c-55 28 -101 72 -101 143c0 78 36 115 97 154c-46 33 -79 77 -79 137c0 122 107 184 218 184c170 0 224 -119 224 -167
c0 -35 -23 -71 -62 -71c-33 0 -66 25 -66 60c0 25 12 49 12 69c0 55 -69 70 -113 70c-55 0 -114 -26 -114 -89s66 -95 113 -121z" />
    <glyph glyph-name="currency" unicode="&#xa4;" 
d="M51 170l47 48c-34 50 -50 98 -50 161c0 64 14 113 50 165l-47 47l65 67l49 -48c49 37 108 52 169 52c59 0 110 -18 160 -52l48 48l66 -67l-48 -47c36 -55 51 -105 51 -170c0 -61 -19 -107 -51 -156l48 -48l-66 -67l-48 48c-50 -35 -110 -53 -169 -53
c-60 0 -112 20 -160 53l-49 -48zM332 195c99 0 182 90 182 185c0 96 -83 185 -180 185c-107 0 -189 -81 -189 -189c0 -102 87 -181 187 -181z" />
    <glyph glyph-name="quotesingle" unicode="'" horiz-adv-x="220" 
d="M83 500l-22 178c-4 35 11 72 53 72c32 0 47 -25 47 -54c0 -18 -2 -33 -5 -50l-23 -138c-2 -15 -4 -44 -25 -44c-20 0 -23 21 -25 36z" />
    <glyph glyph-name="quotedblleft" unicode="&#x201c;" horiz-adv-x="515" 
d="M459 750l18 -35c-78 -39 -101 -65 -98 -121c48 -4 86 -45 86 -93c0 -55 -44 -94 -98 -94c-67 0 -96 60 -96 119c0 108 94 189 188 224zM225 750l18 -35c-78 -39 -101 -65 -98 -121c48 -4 86 -45 86 -93c0 -55 -44 -94 -98 -94c-67 0 -96 60 -96 119c0 108 94 189 188 224
z" />
    <glyph glyph-name="guillemotleft" unicode="&#xab;" horiz-adv-x="582" 
d="M523 461l15 -18l-133 -190l133 -184l-15 -17l-269 201zM313 461l15 -18l-133 -190l133 -184l-15 -17l-269 201z" />
    <glyph glyph-name="guilsinglleft" unicode="&#x2039;" horiz-adv-x="372" 
d="M313 461l15 -18l-133 -190l133 -184l-15 -17l-269 201z" />
    <glyph glyph-name="guilsinglright" unicode="&#x203a;" horiz-adv-x="372" 
d="M59 461l269 -208l-269 -201l-15 17l133 184l-133 190z" />
    <glyph glyph-name="fi" unicode="&#xfb01;" horiz-adv-x="617" 
d="M317 439h-86v-299c0 -51 -8 -109 63 -109v-31h-287v31c74 -1 80 26 80 89v319h-86v47h86c-6 148 75 264 234 264c74 0 229 -23 229 -122c0 -40 -30 -67 -69 -67c-34 0 -68 23 -68 60c0 16 6 29 6 43c0 30 -68 35 -89 35c-63 0 -105 -33 -105 -100c2 -39 4 -78 6 -113h215
c32 2 65 1 95 16v-401c0 -50 15 -67 66 -70v-31h-264v31c55 5 54 40 54 83v255c0 33 0 51 -11 61c-8 7 -18 9 -69 9z" />
    <glyph glyph-name="fl" unicode="&#xfb02;" horiz-adv-x="609" 
d="M410 725l129 30v-633c0 -50 2 -93 67 -91v-31h-262v31c54 10 51 48 51 92v499c0 40 -24 77 -81 77c-59 0 -92 -46 -92 -103c0 -37 8 -75 7 -110h108v-47h-107v-317c0 -49 1 -89 63 -91v-31h-291v31c78 -3 83 23 84 90v318h-87v47h87c0 96 16 145 46 182
c45 54 108 82 178 82c35 0 69 -9 100 -25z" />
    <glyph glyph-name="endash" unicode="&#x2013;" horiz-adv-x="500" 
d="M0 209v95h500v-95h-500z" />
    <glyph glyph-name="dagger" unicode="&#x2020;" horiz-adv-x="560" 
d="M300 72v-260h-41v260c0 187 -15 210 -45 259c46 45 48 70 48 126c-27 0 -40 0 -77 -21c-20 -10 -38 -21 -57 -21c-34 0 -64 27 -64 62s30 62 64 62c19 0 37 -11 57 -21c37 -21 50 -21 77 -21c3 58 -48 140 -48 186c0 36 29 67 66 67c36 0 65 -31 65 -67
c0 -46 -51 -128 -48 -186c27 0 40 0 77 21c20 10 38 21 57 21c34 0 64 -27 64 -62s-30 -62 -64 -62c-19 0 -37 11 -57 21c-37 21 -50 21 -77 21c0 -56 2 -81 48 -126c-30 -49 -45 -72 -45 -259z" />
    <glyph glyph-name="daggerdbl" unicode="&#x2021;" horiz-adv-x="560" 
d="M298 -188h-36v38c6 136 -21 187 -41 219c29 26 39 61 42 99c-42 6 -98 -36 -130 -36c-33 0 -59 26 -59 59c0 30 27 55 57 55c17 0 33 -8 48 -15c26 -12 53 -19 81 -17c2 56 -4 103 -41 149c32 28 46 72 44 114c-42 6 -98 -36 -130 -36c-33 0 -59 26 -59 59
c0 30 27 55 57 55c17 0 33 -8 48 -15c26 -12 53 -19 81 -17c0 30 -3 59 -28 111c-9 19 -16 31 -16 52c0 34 30 64 64 64s64 -30 64 -64c0 -21 -7 -33 -16 -52c-25 -52 -28 -81 -28 -111c28 -2 55 5 81 17c15 7 31 15 48 15c30 0 57 -25 57 -55c0 -33 -26 -59 -59 -59
c-32 0 -88 42 -130 36c-2 -42 12 -86 44 -114c-37 -46 -43 -93 -41 -149c28 -2 55 5 81 17c15 7 31 15 48 15c30 0 57 -25 57 -55c0 -33 -26 -59 -59 -59c-32 0 -88 42 -130 36c3 -38 13 -73 42 -99c-20 -32 -47 -83 -41 -219v-38z" />
    <glyph glyph-name="periodcentered" unicode="&#xb7;" horiz-adv-x="329" 
d="M73 275c0 51 41 92 92 92c50 0 91 -41 91 -92c0 -50 -41 -91 -91 -91c-51 0 -92 41 -92 91z" />
    <glyph glyph-name="paragraph" unicode="&#xb6;" horiz-adv-x="620" 
d="M242 -51v366h-26c-125 0 -239 61 -239 203c0 118 85 214 235 214h431v-33c-72 0 -97 -22 -97 -92v-658c0 -70 25 -92 97 -92v-33h-498v33c72 0 97 22 97 92zM428 699h-68v-842h68v842zM242 348v351c-99 0 -121 -80 -121 -179c0 -78 23 -172 102 -172h19z" />
    <glyph glyph-name="bullet" unicode="&#x2022;" horiz-adv-x="620" 
d="M493 366c0 -100 -83 -183 -183 -183s-183 83 -183 183s83 183 183 183s183 -83 183 -183z" />
    <glyph glyph-name="quotesinglbase" unicode="&#x201a;" horiz-adv-x="280" 
d="M56 -180l-18 35c78 39 101 65 98 121c-48 4 -86 45 -86 93c0 55 44 94 98 94c67 0 96 -60 96 -119c0 -108 -94 -189 -188 -224z" />
    <glyph glyph-name="quotedblbase" unicode="&#x201e;" horiz-adv-x="515" 
d="M56 -180l-18 35c78 39 101 65 98 121c-48 4 -86 45 -86 93c0 55 44 94 98 94c67 0 96 -60 96 -119c0 -108 -94 -189 -188 -224zM290 -180l-18 35c78 39 101 65 98 121c-48 4 -86 45 -86 93c0 55 44 94 98 94c67 0 96 -60 96 -119c0 -108 -94 -189 -188 -224z" />
    <glyph glyph-name="quotedblright" unicode="&#x201d;" horiz-adv-x="515" 
d="M56 407l-18 35c78 39 101 65 98 121c-48 4 -86 45 -86 93c0 55 44 94 98 94c67 0 96 -60 96 -119c0 -108 -94 -189 -188 -224zM290 407l-18 35c78 39 101 65 98 121c-48 4 -86 45 -86 93c0 55 44 94 98 94c67 0 96 -60 96 -119c0 -108 -94 -189 -188 -224z" />
    <glyph glyph-name="guillemotright" unicode="&#xbb;" horiz-adv-x="582" 
d="M59 461l269 -208l-269 -201l-15 17l133 184l-133 190zM269 461l269 -208l-269 -201l-15 17l133 184l-133 190z" />
    <glyph glyph-name="ellipsis" unicode="&#x2026;" horiz-adv-x="1000" 
d="M75 73c0 51 41 92 92 92c50 0 91 -41 91 -92c0 -50 -41 -91 -91 -91c-51 0 -92 41 -92 91zM408 73c0 51 41 92 92 92c50 0 91 -41 91 -92c0 -50 -41 -91 -91 -91c-51 0 -92 41 -92 91zM741 73c0 51 41 92 92 92c50 0 91 -41 91 -92c0 -50 -41 -91 -91 -91
c-51 0 -92 41 -92 91z" />
    <glyph glyph-name="perthousand" unicode="&#x2030;" horiz-adv-x="1176" 
d="M596 -5c-82 0 -164 71 -164 182c0 94 67 191 170 191c74 0 160 -66 160 -194c0 -90 -70 -179 -166 -179zM600 339c-63 0 -73 -109 -73 -153c0 -45 4 -162 71 -162c64 0 69 106 69 151c0 149 -35 164 -67 164zM978 -5c-82 0 -164 71 -164 182c0 94 67 191 170 191
c74 0 160 -66 160 -194c0 -90 -70 -179 -166 -179zM982 339c-63 0 -73 -109 -73 -153c0 -45 4 -162 71 -162c64 0 69 106 69 151c0 149 -35 164 -67 164zM195 363c-82 0 -164 71 -164 182c0 94 67 191 170 191c74 0 160 -66 160 -194c0 -90 -70 -179 -166 -179zM199 707
c-63 0 -73 -109 -73 -153c0 -45 4 -162 71 -162c64 0 69 106 69 151c0 149 -35 164 -67 164zM168 0l381 732h76l-381 -732h-76z" />
    <glyph glyph-name="questiondown" unicode="&#xbf;" horiz-adv-x="473" 
d="M335 264v-159c-91 2 -166 -51 -166 -149c0 -40 11 -104 63 -104c64 0 36 99 124 99c38 0 73 -32 73 -70c0 -67 -79 -87 -132 -87c-128 0 -249 89 -249 224c0 139 100 222 235 217v29h52zM220 402c0 51 41 92 92 92c50 0 91 -41 91 -92c0 -50 -41 -91 -91 -91
c-51 0 -92 41 -92 91z" />
    <glyph glyph-name="grave" unicode="`" horiz-adv-x="336" 
d="M253 538l-51 -9l-57 79c-15 21 -82 109 -82 133c0 26 33 32 53 32c48 0 62 -21 77 -62z" />
    <glyph glyph-name="acute" unicode="&#xb4;" horiz-adv-x="336" 
d="M93 538l60 173c15 41 29 62 77 62c20 0 53 -6 53 -32c0 -24 -67 -112 -82 -133l-57 -79z" />
    <glyph glyph-name="circumflex" unicode="&#x2c6;" horiz-adv-x="452" 
d="M225 676l-101 -152l-51 17l83 180c16 34 29 51 69 51s53 -17 69 -51l85 -180l-54 -17z" />
    <glyph glyph-name="tilde" unicode="&#x2dc;" horiz-adv-x="558" 
d="M458 691h47c-10 -54 -64 -140 -125 -140c-56 0 -134 46 -188 46c-27 0 -40 -23 -47 -46h-52c17 56 61 141 127 141c33 0 84 -20 115 -30c21 -6 49 -17 71 -17c26 0 41 25 52 46z" />
    <glyph glyph-name="macron" unicode="&#xaf;" horiz-adv-x="526" 
d="M73 686h380v-88h-380v88z" />
    <glyph glyph-name="breve" unicode="&#x2d8;" horiz-adv-x="556" 
d="M73 687l40 24c43 -47 101 -79 165 -79s122 32 165 79l40 -24c-31 -85 -113 -150 -205 -150s-174 65 -205 150z" />
    <glyph glyph-name="dotaccent" unicode="&#x2d9;" horiz-adv-x="293" 
d="M73 622c0 41 33 74 73 74c41 0 74 -33 74 -74c0 -40 -33 -73 -74 -73c-40 0 -73 33 -73 73z" />
    <glyph glyph-name="dieresis" unicode="&#xa8;" horiz-adv-x="512" 
d="M73 622c0 41 33 74 73 74c41 0 74 -33 74 -74c0 -40 -33 -73 -74 -73c-40 0 -73 33 -73 73zM293 622c0 41 33 74 73 74c41 0 74 -33 74 -74c0 -40 -33 -73 -74 -73c-40 0 -73 33 -73 73z" />
    <glyph glyph-name="ring" unicode="&#x2da;" horiz-adv-x="344" 
d="M73 641c0 54 44 98 99 98s99 -44 99 -98c0 -55 -44 -99 -99 -99s-99 44 -99 99zM121 641c0 -29 23 -51 51 -51s51 22 51 51c0 28 -23 50 -51 50s-51 -22 -51 -50z" />
    <glyph glyph-name="cedilla" unicode="&#xb8;" horiz-adv-x="370" 
d="M239 0l-47 -55h19c49 0 86 -36 86 -85c0 -72 -82 -112 -145 -112c-20 0 -79 6 -79 36c0 16 12 25 27 25c30 0 43 -30 67 -30c29 0 45 33 45 59c0 34 -25 62 -60 62c-13 0 -26 -5 -38 -11l-10 14l97 97h38z" />
    <glyph glyph-name="hungarumlaut" unicode="&#x2dd;" horiz-adv-x="505" 
d="M73 538l60 173c15 41 29 62 77 62c20 0 53 -6 53 -32c0 -24 -67 -112 -82 -133l-57 -79zM242 538l60 173c15 41 29 62 77 62c20 0 53 -6 53 -32c0 -24 -67 -112 -82 -133l-57 -79z" />
    <glyph glyph-name="ogonek" unicode="&#x2db;" horiz-adv-x="375" 
d="M155 0h81c-29 -22 -80 -61 -80 -101c0 -32 24 -59 56 -59c38 0 39 40 67 40c13 0 23 -11 23 -23c0 -37 -69 -50 -97 -50c-55 0 -132 33 -132 98c0 48 41 78 82 95z" />
    <glyph glyph-name="caron" unicode="&#x2c7;" horiz-adv-x="452" 
d="M124 772l101 -152l100 152l54 -17l-85 -180c-16 -34 -29 -51 -69 -51s-53 17 -69 51l-83 180z" />
    <glyph glyph-name="emdash" unicode="&#x2014;" horiz-adv-x="1000" 
d="M0 209v95h1000v-95h-1000z" />
    <glyph glyph-name="AE" unicode="&#xc6;" horiz-adv-x="1086" 
d="M492 297v396h-2l-250 -396h252zM656 589v-197h23c116 0 144 30 174 119h39v-290h-39c-23 103 -82 124 -174 124h-23v-188c0 -70 0 -118 83 -118c134 0 241 87 305 159l27 -14l-73 -184h-603v33c72 0 97 22 97 92v125h-282l-54 -85c-14 -23 -34 -49 -34 -76
c0 -46 64 -51 98 -56v-33h-271v33c61 20 75 23 135 113l289 450c11 18 29 41 29 62c0 25 -13 41 -84 41v33h680l64 -189l-32 -13c-70 91 -173 163 -292 163c-82 0 -82 -36 -82 -104z" />
    <glyph glyph-name="ordfeminine" unicode="&#xaa;" horiz-adv-x="395" 
d="M325 645v-141c1 -15 0 -34 21 -34c6 0 12 2 17 4l12 -14c-17 -23 -47 -40 -76 -40c-27 0 -52 15 -66 38c-35 -23 -70 -38 -112 -38c-52 0 -100 26 -100 83c0 92 142 117 211 127c0 79 -9 96 -43 96c-61 0 -37 -95 -99 -95c-21 0 -43 16 -43 39c0 65 106 80 153 80
c113 0 122 -40 125 -105zM232 497v102c-51 -6 -108 -26 -108 -87c0 -29 15 -53 45 -53c24 0 47 21 63 38z" />
    <glyph glyph-name="Lslash" unicode="&#x141;" horiz-adv-x="629" 
d="M24 0v33c72 0 97 22 97 92v153l-91 -54v64l91 54v265c0 70 -25 92 -97 92v33h358v-33c-72 0 -97 -22 -97 -92v-182l145 85v-67l-145 -85v-233c0 -60 1 -86 75 -86c123 0 227 81 303 170l25 -10l-62 -199h-602z" />
    <glyph glyph-name="Oslash" unicode="&#xd8;" horiz-adv-x="814" 
d="M241 165l313 449c-31 62 -74 97 -146 97c-120 0 -189 -115 -189 -349c0 -66 5 -133 22 -197zM576 556l-313 -451c34 -58 74 -84 143 -84c106 0 189 78 189 355c0 61 -5 120 -19 180zM611 699l54 76l44 -30l-57 -80c83 -74 117 -183 117 -292c0 -216 -149 -391 -371 -391
c-65 0 -130 18 -187 51l-55 -80l-43 30l55 79c-88 68 -123 184 -123 291c0 210 131 397 360 397c77 0 139 -13 206 -51z" />
    <glyph glyph-name="OE" unicode="&#x152;" horiz-adv-x="1136" 
d="M1121 186l-73 -186h-459c-33 0 -66 -4 -99 -9c-33 -4 -66 -9 -99 -9c-213 0 -349 157 -349 375c0 210 137 393 360 393c31 0 62 -4 94 -9c31 -4 62 -9 93 -9h459l63 -187l-32 -12c-64 85 -176 160 -285 160c-74 0 -89 -19 -89 -88v-211h20c110 0 155 29 177 118h39v-289
h-39c-23 102 -82 124 -177 124h-20v-191c0 -73 0 -117 86 -117c115 0 232 74 303 161zM541 205v378c0 32 2 73 -22 98c-25 26 -69 30 -103 30c-174 0 -200 -212 -200 -344c0 -286 92 -346 180 -346c47 0 106 10 129 56c17 33 16 91 16 128z" />
    <glyph glyph-name="ordmasculine" unicode="&#xba;" horiz-adv-x="395" 
d="M196 420c-91 0 -170 67 -170 161c0 101 84 169 181 169c85 0 162 -59 162 -156c0 -103 -71 -174 -173 -174zM201 723c-66 0 -77 -92 -77 -141c0 -47 11 -135 75 -135s72 92 72 139c0 46 -6 137 -70 137z" />
    <glyph glyph-name="ae" unicode="&#xe6;" horiz-adv-x="826" 
d="M468 291h209c-4 128 -34 160 -97 160c-81 0 -112 -92 -112 -160zM331 223v29c-53 -10 -99 -26 -124 -49c-26 -24 -44 -60 -44 -95c0 -44 26 -66 71 -66c43 0 90 27 121 55c-19 39 -24 83 -24 126zM805 248h-337c-1 -101 60 -200 174 -200c55 0 106 30 141 72l25 -23
c-68 -74 -143 -109 -244 -109c-68 0 -142 23 -188 75c-60 -52 -125 -75 -205 -75c-77 0 -152 24 -152 113c0 160 193 175 312 190v24c0 50 11 140 -64 140c-17 0 -38 -5 -50 -17c-15 -15 -19 -35 -25 -54c-12 -38 -36 -72 -81 -72c-31 0 -58 27 -58 59c0 96 150 123 223 123
c55 0 117 -7 155 -52c43 34 86 52 142 52c144 0 230 -104 232 -246z" />
    <glyph glyph-name="dotlessi" unicode="&#x131;" horiz-adv-x="308" 
d="M15 443l215 61v-408c1 -59 34 -65 64 -65v-31h-274v31c36 0 66 4 66 82v203c0 53 -13 89 -71 96v31z" />
    <glyph glyph-name="lslash" unicode="&#x142;" horiz-adv-x="301" 
d="M231 435l59 35v-58l-59 -35v-281c0 -59 34 -65 64 -65v-31h-275v31c36 0 67 4 67 82v201l-58 -35v57l58 36v190c-1 53 -13 89 -71 96v31l215 61v-315z" />
    <glyph glyph-name="oslash" unicode="&#xf8;" horiz-adv-x="569" 
d="M188 127l187 272c-15 33 -41 56 -79 56c-106 0 -120 -144 -120 -222c0 -36 3 -71 12 -106zM389 346l-187 -269c19 -33 47 -50 87 -50c97 0 110 146 110 217c0 34 -7 68 -10 102zM417 465l39 55l38 -26l-38 -52c57 -47 87 -108 87 -182c0 -199 -150 -272 -259 -272
c-45 0 -82 11 -123 29l-38 -54l-36 24l36 53c-63 48 -91 117 -91 197c0 146 119 257 263 257c46 0 81 -10 122 -29z" />
    <glyph glyph-name="oe" unicode="&#x153;" horiz-adv-x="904" 
d="M543 297h211c0 77 -17 154 -97 154c-83 0 -111 -93 -114 -154zM294 455c-106 0 -121 -145 -121 -224c0 -73 16 -204 115 -204c96 0 113 138 113 209c0 69 -9 219 -107 219zM883 254h-338c7 -146 91 -206 167 -206c59 0 110 31 150 73l23 -21c-60 -74 -134 -112 -230 -112
c-69 0 -138 24 -187 72c-49 -45 -116 -72 -182 -72c-143 0 -257 102 -257 247c0 67 29 140 79 185c48 45 125 74 191 74c67 0 131 -27 179 -74c51 49 102 74 174 74c139 0 236 -109 231 -240z" />
    <glyph glyph-name="germandbls" unicode="&#xdf;" horiz-adv-x="585" 
d="M207 0h-210v31c36 0 66 4 66 82v391c-1 187 126 246 257 246c86 0 191 -23 191 -127c0 -91 -108 -116 -108 -162c0 -56 182 -176 182 -323c0 -96 -89 -150 -177 -150c-72 0 -161 44 -161 126c0 40 22 73 64 73c35 0 61 -27 61 -62c0 -19 -7 -38 -7 -58
c0 -25 21 -40 46 -40c39 0 60 32 60 67c0 41 -51 104 -75 136c-93 126 -116 147 -116 182c0 29 18 42 39 57c49 35 78 68 78 131c0 58 -31 111 -95 111c-55 0 -95 -42 -95 -140v-571z" />
    <glyph glyph-name="onesuperior" unicode="&#xb9;" horiz-adv-x="395" 
d="M252 736v-348c0 -59 0 -70 94 -75v-19h-295v19c72 4 96 6 96 94v175c0 49 -26 79 -96 79v20c68 7 135 26 201 55z" />
    <glyph glyph-name="logicalnot" unicode="&#xac;" horiz-adv-x="560" 
d="M422 112v188h-363v81h444v-269h-81z" />
    <glyph glyph-name="mu" unicode="&#xb5;" horiz-adv-x="632" 
d="M401 0v69c-51 -42 -108 -79 -179 -81c15 -61 17 -72 17 -90c0 -52 -33 -99 -88 -99c-52 0 -91 38 -91 92c0 52 10 63 36 170c-9 22 -14 47 -14 75v180c0 53 -13 89 -71 96v31l215 61v-366c0 -39 28 -65 70 -65c39 0 77 29 105 53v190c0 53 -13 89 -71 96v31l215 61v-379
c0 -53 13 -89 72 -94v-31h-216z" />
    <glyph glyph-name="trademark" unicode="&#x2122;" horiz-adv-x="860" 
d="M62 732h287l25 -94l-17 -4c-24 35 -67 78 -113 79v-265c0 -33 13 -44 47 -44v-15h-171v15c35 0 47 11 47 44v265c-48 -6 -86 -41 -111 -79l-18 4zM530 732l77 -215l79 215h136v-15c-34 -3 -47 -8 -47 -44v-225c0 -33 13 -44 47 -44v-15h-171v15c35 0 46 11 46 44v245h-2
l-106 -304h-18l-108 295h-1v-191c0 -75 4 -84 47 -89v-15h-121v15c41 8 49 14 49 89v180c0 36 -15 44 -46 44v15h139z" />
    <glyph glyph-name="Eth" unicode="&#xd0;" horiz-adv-x="802" 
d="M286 615v-178h156v-66h-156v-245c0 -76 12 -87 88 -87c125 0 218 70 218 345c0 246 -93 309 -229 309c-61 0 -77 -15 -77 -78zM25 0v33c72 0 97 22 97 92v246h-97v66h97v170c0 70 -25 92 -97 92v33h355c224 0 386 -136 386 -374c0 -226 -173 -358 -368 -358h-373z" />
    <glyph glyph-name="onehalf" unicode="&#xbd;" horiz-adv-x="988" 
d="M579 0v35c38 46 81 82 155 138c55 42 97 89 97 160c0 50 -21 79 -78 79c-29 0 -56 -8 -56 -38c0 -15 5 -30 5 -45c0 -27 -25 -48 -54 -48c-33 0 -54 23 -54 52c0 36 41 109 179 109c139 0 171 -75 171 -122c0 -42 -1 -79 -153 -164c-43 -24 -88 -45 -120 -81h139
c67 0 88 10 119 67l25 -6l-36 -136h-339zM282 0l381 732h73l-380 -732h-74zM254 736v-348c0 -59 0 -70 94 -75v-19h-295v19c72 4 96 6 96 94v175c0 49 -26 79 -96 79v20c68 7 135 26 201 55z" />
    <glyph glyph-name="plusminus" unicode="&#xb1;" horiz-adv-x="560" 
d="M59 358h181v136h81v-136h181v-81h-181v-136h-81v136h-181v81zM59 0v81h443v-81h-443z" />
    <glyph glyph-name="Thorn" unicode="&#xde;" horiz-adv-x="722" 
d="M285 440v-219h59c119 0 175 44 175 162c0 109 -59 156 -153 156c-72 0 -81 -22 -81 -99zM24 0v33c72 0 97 22 97 92v482c0 70 -25 92 -97 92v33h358v-33c-72 0 -97 -22 -97 -92v-29h99c224 0 309 -94 309 -193c0 -184 -179 -203 -322 -203h-86v-57c0 -70 25 -92 97 -92
v-33h-358z" />
    <glyph glyph-name="onequarter" unicode="&#xbc;" horiz-adv-x="988" 
d="M864 435v-301h89v-37h-89v-41c0 -30 12 -35 62 -37v-19h-237v19c57 4 66 10 66 36v42h-209v37l246 301h72zM755 134v199l-162 -199h162zM278 0l381 732h73l-380 -732h-74zM256 732v-348c0 -59 0 -70 94 -75v-19h-295v19c72 4 96 6 96 94v175c0 49 -26 79 -96 79v20
c68 7 135 26 201 55z" />
    <glyph glyph-name="divide" unicode="&#xf7;" horiz-adv-x="560" 
d="M59 313h443v-81h-443v81zM221 434c0 33 27 60 60 60c32 0 59 -27 59 -60s-27 -59 -59 -59c-33 0 -60 26 -60 59zM221 110c0 33 27 60 60 60c32 0 59 -27 59 -60s-27 -59 -59 -59c-33 0 -60 26 -60 59z" />
    <glyph glyph-name="brokenbar" unicode="&#xa6;" horiz-adv-x="280" 
d="M99 -175v350h81v-350h-81zM99 325v350h81v-350h-81z" />
    <glyph glyph-name="degree" unicode="&#xb0;" horiz-adv-x="515" 
d="M412 581c0 -83 -73 -155 -155 -155c-83 0 -155 72 -155 155c-1 82 72 155 155 155c82 0 155 -73 155 -155zM160 581c0 -56 41 -97 97 -97c55 0 97 41 97 97c0 55 -42 97 -98 97c-55 0 -97 -42 -96 -97z" />
    <glyph glyph-name="thorn" unicode="&#xfe;" horiz-adv-x="612" 
d="M223 375v-280c29 -29 56 -53 99 -53c95 0 113 142 113 213c0 67 -16 179 -104 179c-44 0 -81 -26 -108 -59zM13 -188v31c36 0 66 4 66 82v644c0 46 -14 82 -72 89v31l216 61v-321c39 41 93 65 149 65c138 0 207 -118 207 -245c0 -183 -138 -261 -215 -261
c-53 0 -99 24 -141 54v-134c0 -59 34 -65 64 -65v-31h-274z" />
    <glyph glyph-name="threequarters" unicode="&#xbe;" horiz-adv-x="988" 
d="M868 435v-301h89v-37h-89v-41c0 -30 12 -35 62 -37v-19h-237v19c57 4 66 10 66 36v42h-209v37l246 301h72zM759 134v199l-162 -199h162zM294 0l381 732h73l-380 -732h-74zM191 510c-12 0 -24 -3 -36 -3c-10 3 -18 9 -18 18c0 12 9 18 21 21c11 0 21 -3 31 -3
c65 0 89 34 89 93c0 41 -14 71 -63 71c-42 0 -59 -10 -60 -43c0 -37 -20 -60 -51 -60c-24 0 -47 21 -47 44c0 31 38 88 158 88c67 0 176 -24 176 -103c0 -58 -57 -89 -110 -105c57 -20 122 -48 122 -113c0 -46 -46 -128 -187 -128c-58 0 -185 22 -185 94c0 26 19 45 48 45
c30 0 54 -18 58 -54c2 -39 8 -56 65 -56c63 0 88 38 88 92c0 61 -29 102 -99 102z" />
    <glyph glyph-name="twosuperior" unicode="&#xb2;" horiz-adv-x="395" 
d="M102 369h139c67 0 88 10 119 67l25 -6l-36 -136h-339v35c38 46 81 82 155 138c55 42 97 89 97 160c0 50 -21 80 -78 80c-29 0 -56 -9 -56 -39c0 -15 5 -30 5 -45c0 -27 -25 -48 -54 -48c-33 0 -54 23 -54 52c0 36 41 109 179 109c139 0 171 -75 171 -122
c0 -42 -1 -79 -153 -164c-43 -24 -88 -45 -120 -81z" />
    <glyph glyph-name="registered" unicode="&#xae;" horiz-adv-x="760" 
d="M377 750c212 0 381 -168 381 -384s-173 -384 -382 -384c-206 0 -373 176 -373 384c0 210 165 384 374 384zM377 679c-149 0 -306 -134 -303 -312c3 -177 131 -314 309 -314c161 0 304 138 304 314c0 187 -155 312 -310 312zM301 360v-125c0 -62 2 -55 44 -60v-21h-155v21
c30 0 31 11 31 33v346c-2 25 -14 23 -26 27v22h196c103 0 161 -37 161 -110c0 -66 -65 -116 -132 -119v-2c55 -10 83 -69 105 -110c47 -87 45 -87 64 -87v-21h-35c-56 0 -67 4 -111 99c-30 67 -34 107 -121 107h-21zM301 395h17c71 0 138 4 138 94c0 71 -39 87 -102 87
c-45 0 -53 0 -53 -40v-141z" />
    <glyph glyph-name="minus" unicode="&#x2212;" horiz-adv-x="560" 
d="M502 232h-444v81h444v-81z" />
    <glyph glyph-name="eth" unicode="&#xf0;" horiz-adv-x="569" 
d="M284 417c-84 0 -113 -106 -113 -195s29 -195 113 -195s113 106 113 195s-29 195 -113 195zM139 555l-33 43l101 66c-37 26 -78 46 -121 61l23 42c59 -12 115 -31 165 -59l111 73l33 -43l-93 -61c131 -89 216 -232 216 -406c0 -91 -54 -283 -257 -283
c-180 0 -257 124 -257 234c0 145 118 234 235 234c45 0 80 -8 110 -36l2 2c-17 85 -61 154 -122 207z" />
    <glyph glyph-name="multiply" unicode="&#xd7;" horiz-adv-x="560" 
d="M96 144l128 128l-128 128l57 57l128 -128l128 128l58 -57l-128 -128l128 -128l-58 -57l-128 128l-128 -128z" />
    <glyph glyph-name="threesuperior" unicode="&#xb3;" horiz-adv-x="395" 
d="M172 510c-12 0 -24 -3 -36 -3c-10 3 -18 9 -18 18c0 12 9 18 21 21c11 0 21 -3 31 -3c65 0 89 34 89 93c0 41 -14 71 -63 71c-42 0 -59 -10 -60 -43c0 -37 -20 -60 -51 -60c-24 0 -47 21 -47 44c0 31 38 88 158 88c67 0 176 -24 176 -103c0 -58 -57 -89 -110 -105
c57 -20 122 -48 122 -113c0 -46 -46 -128 -187 -128c-58 0 -185 22 -185 94c0 26 19 45 48 45c30 0 54 -18 58 -54c2 -39 8 -56 65 -56c63 0 88 38 88 92c0 61 -29 102 -99 102z" />
    <glyph glyph-name="copyright" unicode="&#xa9;" horiz-adv-x="760" 
d="M377 750c212 0 381 -168 381 -384s-173 -384 -382 -384c-206 0 -373 176 -373 384c0 210 165 384 374 384zM74 367c3 -177 131 -314 309 -314c161 0 304 138 304 314c0 187 -155 312 -310 312c-149 0 -306 -134 -303 -312zM544 572v-123h-33c-3 71 -46 112 -117 112
c-107 0 -153 -88 -153 -183c0 -100 53 -198 161 -198c60 0 95 22 128 76l27 -11c-28 -73 -113 -112 -186 -112c-132 0 -218 101 -218 233c0 140 93 236 231 236c54 0 109 -13 160 -30z" />
    <glyph glyph-name="Aacute" unicode="&#xc1;" horiz-adv-x="690" 
d="M434 758l186 -599c22 -72 32 -124 122 -126v-33h-351v33c64 2 79 15 79 45c0 19 -6 40 -12 58l-36 118h-255l-22 -63c-9 -26 -20 -56 -20 -84c0 -51 46 -71 90 -74v-33h-266v33c93 26 113 76 144 158l195 520zM406 301l-100 321l-119 -321h219zM270 788l60 173
c15 41 29 62 77 62c20 0 53 -6 53 -32c0 -24 -67 -112 -82 -133l-57 -79z" />
    <glyph glyph-name="Acircumflex" unicode="&#xc2;" horiz-adv-x="690" 
d="M434 758l186 -599c22 -72 32 -124 122 -126v-33h-351v33c64 2 79 15 79 45c0 19 -6 40 -12 58l-36 118h-255l-22 -63c-9 -26 -20 -56 -20 -84c0 -51 46 -71 90 -74v-33h-266v33c93 26 113 76 144 158l195 520zM406 301l-100 321l-119 -321h219zM344 926l-101 -152l-51 17
l83 180c16 34 29 51 69 51s53 -17 69 -51l85 -180l-54 -17z" />
    <glyph glyph-name="Adieresis" unicode="&#xc4;" horiz-adv-x="690" 
d="M434 758l186 -599c22 -72 32 -124 122 -126v-33h-351v33c64 2 79 15 79 45c0 19 -6 40 -12 58l-36 118h-255l-22 -63c-9 -26 -20 -56 -20 -84c0 -51 46 -71 90 -74v-33h-266v33c93 26 113 76 144 158l195 520zM406 301l-100 321l-119 -321h219zM162 872c0 41 33 74 73 74
c41 0 74 -33 74 -74c0 -40 -33 -73 -74 -73c-40 0 -73 33 -73 73zM382 872c0 41 33 74 73 74c41 0 74 -33 74 -74c0 -40 -33 -73 -74 -73c-40 0 -73 33 -73 73z" />
    <glyph glyph-name="Agrave" unicode="&#xc0;" horiz-adv-x="690" 
d="M434 758l186 -599c22 -72 32 -124 122 -126v-33h-351v33c64 2 79 15 79 45c0 19 -6 40 -12 58l-36 118h-255l-22 -63c-9 -26 -20 -56 -20 -84c0 -51 46 -71 90 -74v-33h-266v33c93 26 113 76 144 158l195 520zM406 301l-100 321l-119 -321h219zM430 788l-51 -9l-57 79
c-15 21 -82 109 -82 133c0 26 33 32 53 32c48 0 62 -21 77 -62z" />
    <glyph glyph-name="Aring" unicode="&#xc5;" horiz-adv-x="690" 
d="M434 758l186 -599c22 -72 32 -124 122 -126v-33h-351v33c64 2 79 15 79 45c0 19 -6 40 -12 58l-36 118h-255l-22 -63c-9 -26 -20 -56 -20 -84c0 -51 46 -71 90 -74v-33h-266v33c93 26 113 76 144 158l195 520zM406 301l-100 321l-119 -321h219zM261 891c0 54 44 98 99 98
s99 -44 99 -98c0 -55 -44 -99 -99 -99s-99 44 -99 99zM309 891c0 -29 23 -51 51 -51s51 22 51 51c0 28 -23 50 -51 50s-51 -22 -51 -50z" />
    <glyph glyph-name="Atilde" unicode="&#xc3;" horiz-adv-x="690" 
d="M434 758l186 -599c22 -72 32 -124 122 -126v-33h-351v33c64 2 79 15 79 45c0 19 -6 40 -12 58l-36 118h-255l-22 -63c-9 -26 -20 -56 -20 -84c0 -51 46 -71 90 -74v-33h-266v33c93 26 113 76 144 158l195 520zM406 301l-100 321l-119 -321h219zM524 941h47
c-10 -54 -64 -140 -125 -140c-56 0 -134 46 -188 46c-27 0 -40 -23 -47 -46h-52c17 56 61 141 127 141c33 0 84 -20 115 -30c21 -6 49 -17 71 -17c26 0 41 25 52 46z" />
    <glyph glyph-name="Ccedilla" unicode="&#xc7;" horiz-adv-x="704" 
d="M626 746l60 -221l-45 -14c-44 96 -127 200 -241 200c-152 0 -186 -193 -186 -310c0 -242 120 -342 232 -342c99 0 162 69 214 143l26 -19c-66 -118 -157 -196 -295 -200l-32 -38h19c49 0 86 -36 86 -85c0 -72 -82 -112 -145 -112c-20 0 -79 6 -79 36c0 16 12 25 27 25
c30 0 43 -30 67 -30c29 0 45 33 45 59c0 34 -25 62 -60 62c-13 0 -26 -5 -38 -11l-10 14l81 81c-184 13 -312 173 -312 356c0 208 139 410 346 410c36 0 65 -8 90 -16s46 -16 66 -16c26 0 50 12 73 23z" />
    <glyph glyph-name="Eacute" unicode="&#xc9;" horiz-adv-x="707" 
d="M22 0v33c72 0 97 22 97 92v482c0 70 -25 92 -97 92v33h603l63 -187l-31 -13c-67 87 -171 161 -285 161c-89 0 -89 -30 -89 -104v-195h20c100 0 144 17 178 118h39v-289h-39c-27 101 -78 124 -176 124h-22v-211c0 -58 6 -97 77 -97c124 0 235 70 313 161l27 -14l-75 -186
h-603zM279 788l60 173c15 41 29 62 77 62c20 0 53 -6 53 -32c0 -24 -67 -112 -82 -133l-57 -79z" />
    <glyph glyph-name="Ecircumflex" unicode="&#xca;" horiz-adv-x="707" 
d="M22 0v33c72 0 97 22 97 92v482c0 70 -25 92 -97 92v33h603l63 -187l-31 -13c-67 87 -171 161 -285 161c-89 0 -89 -30 -89 -104v-195h20c100 0 144 17 178 118h39v-289h-39c-27 101 -78 124 -176 124h-22v-211c0 -58 6 -97 77 -97c124 0 235 70 313 161l27 -14l-75 -186
h-603zM353 926l-101 -152l-51 17l83 180c16 34 29 51 69 51s53 -17 69 -51l85 -180l-54 -17z" />
    <glyph glyph-name="Edieresis" unicode="&#xcb;" horiz-adv-x="707" 
d="M22 0v33c72 0 97 22 97 92v482c0 70 -25 92 -97 92v33h603l63 -187l-31 -13c-67 87 -171 161 -285 161c-89 0 -89 -30 -89 -104v-195h20c100 0 144 17 178 118h39v-289h-39c-27 101 -78 124 -176 124h-22v-211c0 -58 6 -97 77 -97c124 0 235 70 313 161l27 -14l-75 -186
h-603zM171 872c0 41 33 74 73 74c41 0 74 -33 74 -74c0 -40 -33 -73 -74 -73c-40 0 -73 33 -73 73zM391 872c0 41 33 74 73 74c41 0 74 -33 74 -74c0 -40 -33 -73 -74 -73c-40 0 -73 33 -73 73z" />
    <glyph glyph-name="Egrave" unicode="&#xc8;" horiz-adv-x="707" 
d="M22 0v33c72 0 97 22 97 92v482c0 70 -25 92 -97 92v33h603l63 -187l-31 -13c-67 87 -171 161 -285 161c-89 0 -89 -30 -89 -104v-195h20c100 0 144 17 178 118h39v-289h-39c-27 101 -78 124 -176 124h-22v-211c0 -58 6 -97 77 -97c124 0 235 70 313 161l27 -14l-75 -186
h-603zM439 788l-51 -9l-57 79c-15 21 -82 109 -82 133c0 26 33 32 53 32c48 0 62 -21 77 -62z" />
    <glyph glyph-name="Iacute" unicode="&#xcd;" horiz-adv-x="408" 
d="M122 125v482c0 70 -25 92 -97 92v33h358v-33c-72 0 -97 -22 -97 -92v-482c0 -70 25 -92 97 -92v-33h-358v33c72 0 97 22 97 92zM169 788l60 173c15 41 29 62 77 62c20 0 53 -6 53 -32c0 -24 -67 -112 -82 -133l-57 -79z" />
    <glyph glyph-name="Icircumflex" unicode="&#xce;" horiz-adv-x="408" 
d="M122 125v482c0 70 -25 92 -97 92v33h358v-33c-72 0 -97 -22 -97 -92v-482c0 -70 25 -92 97 -92v-33h-358v33c72 0 97 22 97 92zM203 926l-101 -152l-51 17l83 180c16 34 29 51 69 51s53 -17 69 -51l85 -180l-54 -17z" />
    <glyph glyph-name="Idieresis" unicode="&#xcf;" horiz-adv-x="408" 
d="M122 125v482c0 70 -25 92 -97 92v33h358v-33c-72 0 -97 -22 -97 -92v-482c0 -70 25 -92 97 -92v-33h-358v33c72 0 97 22 97 92zM21 872c0 41 33 74 73 74c41 0 74 -33 74 -74c0 -40 -33 -73 -74 -73c-40 0 -73 33 -73 73zM241 872c0 41 33 74 73 74c41 0 74 -33 74 -74
c0 -40 -33 -73 -74 -73c-40 0 -73 33 -73 73z" />
    <glyph glyph-name="Igrave" unicode="&#xcc;" horiz-adv-x="408" 
d="M122 125v482c0 70 -25 92 -97 92v33h358v-33c-72 0 -97 -22 -97 -92v-482c0 -70 25 -92 97 -92v-33h-358v33c72 0 97 22 97 92zM289 788l-51 -9l-57 79c-15 21 -82 109 -82 133c0 26 33 32 53 32c48 0 62 -21 77 -62z" />
    <glyph glyph-name="Ntilde" unicode="&#xd1;" horiz-adv-x="797" 
d="M271 732l353 -509v334c0 85 -8 133 -107 142v33h263v-33c-95 -16 -104 -54 -104 -142v-557h-91l-402 569v-384c0 -109 12 -130 117 -152v-33h-283v33c96 15 114 45 114 137v460c-28 35 -70 60 -114 69v33h254zM578 941h47c-10 -54 -64 -140 -125 -140
c-56 0 -134 46 -188 46c-27 0 -40 -23 -47 -46h-52c17 56 61 141 127 141c33 0 84 -20 115 -30c21 -6 49 -17 71 -17c26 0 41 25 52 46z" />
    <glyph glyph-name="Oacute" unicode="&#xd3;" horiz-adv-x="813" 
d="M402 -18c-218 0 -358 156 -358 376c0 213 136 392 359 392c225 0 365 -156 365 -377c0 -202 -136 -391 -366 -391zM409 711c-115 0 -191 -102 -191 -344c0 -251 71 -346 179 -346c182 0 197 209 197 345c0 258 -78 345 -185 345zM332 788l60 173c15 41 29 62 77 62
c20 0 53 -6 53 -32c0 -24 -67 -112 -82 -133l-57 -79z" />
    <glyph glyph-name="Ocircumflex" unicode="&#xd4;" horiz-adv-x="813" 
d="M402 -18c-218 0 -358 156 -358 376c0 213 136 392 359 392c225 0 365 -156 365 -377c0 -202 -136 -391 -366 -391zM409 711c-115 0 -191 -102 -191 -344c0 -251 71 -346 179 -346c182 0 197 209 197 345c0 258 -78 345 -185 345zM406 926l-101 -152l-51 17l83 180
c16 34 29 51 69 51s53 -17 69 -51l85 -180l-54 -17z" />
    <glyph glyph-name="Odieresis" unicode="&#xd6;" horiz-adv-x="813" 
d="M402 -18c-218 0 -358 156 -358 376c0 213 136 392 359 392c225 0 365 -156 365 -377c0 -202 -136 -391 -366 -391zM409 711c-115 0 -191 -102 -191 -344c0 -251 71 -346 179 -346c182 0 197 209 197 345c0 258 -78 345 -185 345zM224 872c0 41 33 74 73 74
c41 0 74 -33 74 -74c0 -40 -33 -73 -74 -73c-40 0 -73 33 -73 73zM444 872c0 41 33 74 73 74c41 0 74 -33 74 -74c0 -40 -33 -73 -74 -73c-40 0 -73 33 -73 73z" />
    <glyph glyph-name="Ograve" unicode="&#xd2;" horiz-adv-x="813" 
d="M402 -18c-218 0 -358 156 -358 376c0 213 136 392 359 392c225 0 365 -156 365 -377c0 -202 -136 -391 -366 -391zM409 711c-115 0 -191 -102 -191 -344c0 -251 71 -346 179 -346c182 0 197 209 197 345c0 258 -78 345 -185 345zM452 788l-51 -9l-57 79
c-15 21 -82 109 -82 133c0 26 33 32 53 32c48 0 62 -21 77 -62z" />
    <glyph glyph-name="Otilde" unicode="&#xd5;" horiz-adv-x="813" 
d="M402 -18c-218 0 -358 156 -358 376c0 213 136 392 359 392c225 0 365 -156 365 -377c0 -202 -136 -391 -366 -391zM409 711c-115 0 -191 -102 -191 -344c0 -251 71 -346 179 -346c182 0 197 209 197 345c0 258 -78 345 -185 345zM586 941h47c-10 -54 -64 -140 -125 -140
c-56 0 -134 46 -188 46c-27 0 -40 -23 -47 -46h-52c17 56 61 141 127 141c33 0 84 -20 115 -30c21 -6 49 -17 71 -17c26 0 41 25 52 46z" />
    <glyph glyph-name="Scaron" unicode="&#x160;" horiz-adv-x="612" 
d="M489 757l66 -216l-38 -13c-49 80 -149 183 -250 183c-69 0 -125 -37 -125 -109c0 -82 86 -104 150 -124l59 -19c123 -40 243 -97 243 -245c0 -137 -114 -232 -245 -232c-43 0 -85 9 -126 22c-19 6 -31 11 -51 11c-17 0 -26 -2 -89 -32l-65 231l39 13
c59 -95 156 -206 277 -206c72 0 146 51 146 128c0 82 -80 107 -144 127c-133 43 -300 93 -300 263c0 127 101 211 224 211c41 0 72 -7 110 -20c14 -5 27 -10 42 -10c25 0 59 20 77 37zM204 1022l101 -152l100 152l54 -17l-85 -180c-16 -34 -29 -51 -69 -51s-53 17 -69 51
l-83 180z" />
    <glyph glyph-name="Uacute" unicode="&#xda;" horiz-adv-x="785" 
d="M274 607v-352c-3 -181 55 -234 163 -234c145 0 190 89 190 235v351c0 70 -25 92 -97 92v33h246v-33c-72 0 -97 -22 -97 -92v-359c0 -174 -76 -266 -271 -266c-199 0 -298 90 -298 245v380c0 70 -25 92 -97 92v33h358v-33c-72 0 -97 -22 -97 -92zM363 788l60 173
c15 41 29 62 77 62c20 0 53 -6 53 -32c0 -24 -67 -112 -82 -133l-57 -79z" />
    <glyph glyph-name="Ucircumflex" unicode="&#xdb;" horiz-adv-x="785" 
d="M274 607v-352c-3 -181 55 -234 163 -234c145 0 190 89 190 235v351c0 70 -25 92 -97 92v33h246v-33c-72 0 -97 -22 -97 -92v-359c0 -174 -76 -266 -271 -266c-199 0 -298 90 -298 245v380c0 70 -25 92 -97 92v33h358v-33c-72 0 -97 -22 -97 -92zM392 926l-101 -152
l-51 17l83 180c16 34 29 51 69 51s53 -17 69 -51l85 -180l-54 -17z" />
    <glyph glyph-name="Udieresis" unicode="&#xdc;" horiz-adv-x="785" 
d="M274 607v-352c-3 -181 55 -234 163 -234c145 0 190 89 190 235v351c0 70 -25 92 -97 92v33h246v-33c-72 0 -97 -22 -97 -92v-359c0 -174 -76 -266 -271 -266c-199 0 -298 90 -298 245v380c0 70 -25 92 -97 92v33h358v-33c-72 0 -97 -22 -97 -92zM210 872
c0 41 33 74 73 74c41 0 74 -33 74 -74c0 -40 -33 -73 -74 -73c-40 0 -73 33 -73 73zM430 872c0 41 33 74 73 74c41 0 74 -33 74 -74c0 -40 -33 -73 -74 -73c-40 0 -73 33 -73 73z" />
    <glyph glyph-name="Ugrave" unicode="&#xd9;" horiz-adv-x="785" 
d="M274 607v-352c-3 -181 55 -234 163 -234c145 0 190 89 190 235v351c0 70 -25 92 -97 92v33h246v-33c-72 0 -97 -22 -97 -92v-359c0 -174 -76 -266 -271 -266c-199 0 -298 90 -298 245v380c0 70 -25 92 -97 92v33h358v-33c-72 0 -97 -22 -97 -92zM483 788l-51 -9l-57 79
c-15 21 -82 109 -82 133c0 26 33 32 53 32c48 0 62 -21 77 -62z" />
    <glyph glyph-name="Yacute" unicode="&#xdd;" horiz-adv-x="668" 
d="M-44 732h346v-33c-51 -4 -65 -14 -65 -37c0 -18 7 -30 16 -44l132 -222l115 188c11 17 24 41 24 62c0 47 -46 49 -81 53v33h269v-33c-72 -8 -97 -35 -136 -92l-15 -23l-150 -236v-223c1 -65 22 -92 98 -92v-33h-360v33c65 7 98 9 98 92v191l-191 311
c-28 47 -46 63 -100 72v33zM304 788l60 173c15 41 29 62 77 62c20 0 53 -6 53 -32c0 -24 -67 -112 -82 -133l-57 -79z" />
    <glyph glyph-name="Ydieresis" unicode="&#x178;" horiz-adv-x="668" 
d="M-44 732h346v-33c-51 -4 -65 -14 -65 -37c0 -18 7 -30 16 -44l132 -222l115 188c11 17 24 41 24 62c0 47 -46 49 -81 53v33h269v-33c-72 -8 -97 -35 -136 -92l-15 -23l-150 -236v-223c1 -65 22 -92 98 -92v-33h-360v33c65 7 98 9 98 92v191l-191 311
c-28 47 -46 63 -100 72v33zM191 872c0 41 33 74 73 74c41 0 74 -33 74 -74c0 -40 -33 -73 -74 -73c-40 0 -73 33 -73 73zM411 872c0 41 33 74 73 74c41 0 74 -33 74 -74c0 -40 -33 -73 -74 -73c-40 0 -73 33 -73 73z" />
    <glyph glyph-name="Zcaron" unicode="&#x17d;" horiz-adv-x="592" 
d="M546 0h-534l-23 33l402 660h-41c-158 0 -216 -52 -315 -169l-29 17l56 191h514l16 -33l-408 -660h39c169 0 241 59 353 178l31 -24zM224 1022l101 -152l100 152l54 -17l-85 -180c-16 -34 -29 -51 -69 -51s-53 17 -69 51l-83 180z" />
    <glyph glyph-name="aacute" unicode="&#xe1;" horiz-adv-x="534" 
d="M332 103v162c-80 -9 -166 -42 -166 -137c0 -45 23 -80 70 -80c37 0 73 28 96 55zM476 329v-213c1 -25 -1 -56 34 -56c8 0 17 3 25 6l7 -18c-24 -34 -69 -60 -111 -60s-78 23 -99 60c-51 -40 -103 -60 -169 -60c-82 0 -147 38 -147 126c0 140 210 178 316 195v27
c0 48 4 125 -66 125c-49 0 -61 -37 -75 -75c-12 -34 -35 -71 -74 -71c-32 0 -63 24 -63 58c0 49 59 121 229 121c44 0 111 -8 147 -37c45 -37 46 -82 46 -128zM222 538l60 173c15 41 29 62 77 62c20 0 53 -6 53 -32c0 -24 -67 -112 -82 -133l-57 -79z" />
    <glyph glyph-name="acircumflex" unicode="&#xe2;" horiz-adv-x="534" 
d="M332 103v162c-80 -9 -166 -42 -166 -137c0 -45 23 -80 70 -80c37 0 73 28 96 55zM476 329v-213c1 -25 -1 -56 34 -56c8 0 17 3 25 6l7 -18c-24 -34 -69 -60 -111 -60s-78 23 -99 60c-51 -40 -103 -60 -169 -60c-82 0 -147 38 -147 126c0 140 210 178 316 195v27
c0 48 4 125 -66 125c-49 0 -61 -37 -75 -75c-12 -34 -35 -71 -74 -71c-32 0 -63 24 -63 58c0 49 59 121 229 121c44 0 111 -8 147 -37c45 -37 46 -82 46 -128zM266 676l-101 -152l-51 17l83 180c16 34 29 51 69 51s53 -17 69 -51l85 -180l-54 -17z" />
    <glyph glyph-name="adieresis" unicode="&#xe4;" horiz-adv-x="534" 
d="M332 103v162c-80 -9 -166 -42 -166 -137c0 -45 23 -80 70 -80c37 0 73 28 96 55zM476 329v-213c1 -25 -1 -56 34 -56c8 0 17 3 25 6l7 -18c-24 -34 -69 -60 -111 -60s-78 23 -99 60c-51 -40 -103 -60 -169 -60c-82 0 -147 38 -147 126c0 140 210 178 316 195v27
c0 48 4 125 -66 125c-49 0 -61 -37 -75 -75c-12 -34 -35 -71 -74 -71c-32 0 -63 24 -63 58c0 49 59 121 229 121c44 0 111 -8 147 -37c45 -37 46 -82 46 -128zM84 622c0 41 33 74 73 74c41 0 74 -33 74 -74c0 -40 -33 -73 -74 -73c-40 0 -73 33 -73 73zM304 622
c0 41 33 74 73 74c41 0 74 -33 74 -74c0 -40 -33 -73 -74 -73c-40 0 -73 33 -73 73z" />
    <glyph glyph-name="agrave" unicode="&#xe0;" horiz-adv-x="534" 
d="M332 103v162c-80 -9 -166 -42 -166 -137c0 -45 23 -80 70 -80c37 0 73 28 96 55zM476 329v-213c1 -25 -1 -56 34 -56c8 0 17 3 25 6l7 -18c-24 -34 -69 -60 -111 -60s-78 23 -99 60c-51 -40 -103 -60 -169 -60c-82 0 -147 38 -147 126c0 140 210 178 316 195v27
c0 48 4 125 -66 125c-49 0 -61 -37 -75 -75c-12 -34 -35 -71 -74 -71c-32 0 -63 24 -63 58c0 49 59 121 229 121c44 0 111 -8 147 -37c45 -37 46 -82 46 -128zM352 538l-51 -9l-57 79c-15 21 -82 109 -82 133c0 26 33 32 53 32c48 0 62 -21 77 -62z" />
    <glyph glyph-name="aring" unicode="&#xe5;" horiz-adv-x="534" 
d="M332 103v162c-80 -9 -166 -42 -166 -137c0 -45 23 -80 70 -80c37 0 73 28 96 55zM476 329v-213c1 -25 -1 -56 34 -56c8 0 17 3 25 6l7 -18c-24 -34 -69 -60 -111 -60s-78 23 -99 60c-51 -40 -103 -60 -169 -60c-82 0 -147 38 -147 126c0 140 210 178 316 195v27
c0 48 4 125 -66 125c-49 0 -61 -37 -75 -75c-12 -34 -35 -71 -74 -71c-32 0 -63 24 -63 58c0 49 59 121 229 121c44 0 111 -8 147 -37c45 -37 46 -82 46 -128zM168 641c0 54 44 98 99 98s99 -44 99 -98c0 -55 -44 -99 -99 -99s-99 44 -99 99zM216 641c0 -29 23 -51 51 -51
s51 22 51 51c0 28 -23 50 -51 50s-51 -22 -51 -50z" />
    <glyph glyph-name="atilde" unicode="&#xe3;" horiz-adv-x="534" 
d="M332 103v162c-80 -9 -166 -42 -166 -137c0 -45 23 -80 70 -80c37 0 73 28 96 55zM476 329v-213c1 -25 -1 -56 34 -56c8 0 17 3 25 6l7 -18c-24 -34 -69 -60 -111 -60s-78 23 -99 60c-51 -40 -103 -60 -169 -60c-82 0 -147 38 -147 126c0 140 210 178 316 195v27
c0 48 4 125 -66 125c-49 0 -61 -37 -75 -75c-12 -34 -35 -71 -74 -71c-32 0 -63 24 -63 58c0 49 59 121 229 121c44 0 111 -8 147 -37c45 -37 46 -82 46 -128zM426 691h47c-10 -54 -64 -140 -125 -140c-56 0 -134 46 -188 46c-27 0 -40 -23 -47 -46h-52
c17 56 61 141 127 141c33 0 84 -20 115 -30c21 -6 49 -17 71 -17c26 0 41 25 52 46z" />
    <glyph glyph-name="ccedilla" unicode="&#xe7;" horiz-adv-x="515" 
d="M482 143l25 -19c-47 -71 -118 -121 -202 -133l-40 -46h19c49 0 86 -36 86 -85c0 -72 -82 -112 -145 -112c-20 0 -79 6 -79 36c0 16 12 25 27 25c30 0 43 -30 67 -30c29 0 45 33 45 59c0 34 -25 62 -60 62c-13 0 -26 -5 -38 -11l-10 14l85 85c-131 1 -230 107 -230 238
c0 151 124 268 273 268c66 0 186 -27 186 -113c0 -40 -35 -68 -74 -68c-55 0 -61 36 -70 79c-8 35 -28 63 -67 63c-81 0 -98 -113 -98 -174c0 -98 33 -233 153 -233c66 0 108 48 147 95z" />
    <glyph glyph-name="eacute" unicode="&#xe9;" horiz-adv-x="535" 
d="M512 243h-337c0 -93 65 -195 170 -195c57 0 109 33 147 73l24 -21c-62 -73 -129 -112 -227 -112c-138 0 -258 93 -258 239c0 65 23 130 65 181c47 57 111 86 185 86c139 0 234 -110 231 -251zM173 286h211c0 98 -19 165 -98 165c-86 0 -112 -100 -113 -165zM223 538
l60 173c15 41 29 62 77 62c20 0 53 -6 53 -32c0 -24 -67 -112 -82 -133l-57 -79z" />
    <glyph glyph-name="ecircumflex" unicode="&#xea;" horiz-adv-x="535" 
d="M512 243h-337c0 -93 65 -195 170 -195c57 0 109 33 147 73l24 -21c-62 -73 -129 -112 -227 -112c-138 0 -258 93 -258 239c0 65 23 130 65 181c47 57 111 86 185 86c139 0 234 -110 231 -251zM173 286h211c0 98 -19 165 -98 165c-86 0 -112 -100 -113 -165zM267 676
l-101 -152l-51 17l83 180c16 34 29 51 69 51s53 -17 69 -51l85 -180l-54 -17z" />
    <glyph glyph-name="edieresis" unicode="&#xeb;" horiz-adv-x="535" 
d="M512 243h-337c0 -93 65 -195 170 -195c57 0 109 33 147 73l24 -21c-62 -73 -129 -112 -227 -112c-138 0 -258 93 -258 239c0 65 23 130 65 181c47 57 111 86 185 86c139 0 234 -110 231 -251zM173 286h211c0 98 -19 165 -98 165c-86 0 -112 -100 -113 -165zM85 622
c0 41 33 74 73 74c41 0 74 -33 74 -74c0 -40 -33 -73 -74 -73c-40 0 -73 33 -73 73zM305 622c0 41 33 74 73 74c41 0 74 -33 74 -74c0 -40 -33 -73 -74 -73c-40 0 -73 33 -73 73z" />
    <glyph glyph-name="egrave" unicode="&#xe8;" horiz-adv-x="535" 
d="M512 243h-337c0 -93 65 -195 170 -195c57 0 109 33 147 73l24 -21c-62 -73 -129 -112 -227 -112c-138 0 -258 93 -258 239c0 65 23 130 65 181c47 57 111 86 185 86c139 0 234 -110 231 -251zM173 286h211c0 98 -19 165 -98 165c-86 0 -112 -100 -113 -165zM353 538
l-51 -9l-57 79c-15 21 -82 109 -82 133c0 26 33 32 53 32c48 0 62 -21 77 -62z" />
    <glyph glyph-name="iacute" unicode="&#xed;" horiz-adv-x="308" 
d="M15 443l215 61v-408c1 -59 34 -65 64 -65v-31h-274v31c36 0 66 4 66 82v203c0 53 -13 89 -71 96v31zM79 538l60 173c15 41 29 62 77 62c20 0 53 -6 53 -32c0 -24 -67 -112 -82 -133l-57 -79z" />
    <glyph glyph-name="icircumflex" unicode="&#xee;" horiz-adv-x="308" 
d="M15 443l215 61v-408c1 -59 34 -65 64 -65v-31h-274v31c36 0 66 4 66 82v203c0 53 -13 89 -71 96v31zM153 676l-101 -152l-51 17l83 180c16 34 29 51 69 51s53 -17 69 -51l85 -180l-54 -17z" />
    <glyph glyph-name="idieresis" unicode="&#xef;" horiz-adv-x="308" 
d="M15 443l215 61v-408c1 -59 34 -65 64 -65v-31h-274v31c36 0 66 4 66 82v203c0 53 -13 89 -71 96v31zM-29 622c0 41 33 74 73 74c41 0 74 -33 74 -74c0 -40 -33 -73 -74 -73c-40 0 -73 33 -73 73zM191 622c0 41 33 74 73 74c41 0 74 -33 74 -74c0 -40 -33 -73 -74 -73
c-40 0 -73 33 -73 73z" />
    <glyph glyph-name="igrave" unicode="&#xec;" horiz-adv-x="308" 
d="M15 443l215 61v-408c1 -59 34 -65 64 -65v-31h-274v31c36 0 66 4 66 82v203c0 53 -13 89 -71 96v31zM239 538l-51 -9l-57 79c-15 21 -82 109 -82 133c0 26 33 32 53 32c48 0 62 -21 77 -62z" />
    <glyph glyph-name="ntilde" unicode="&#xf1;" horiz-adv-x="618" 
d="M226 356v-260c0 -59 34 -65 64 -65v-31h-274v31c36 0 66 4 66 82v203c0 53 -13 89 -71 96v31l215 61v-92c50 36 107 82 172 82c90 0 145 -81 145 -145v-253c1 -59 34 -65 64 -65v-31h-274v31c36 0 66 4 66 82v168c0 99 -24 128 -80 128c-37 0 -70 -25 -93 -53zM458 691
h47c-10 -54 -64 -140 -125 -140c-56 0 -134 46 -188 46c-27 0 -40 -23 -47 -46h-52c17 56 61 141 127 141c33 0 84 -20 115 -30c21 -6 49 -17 71 -17c26 0 41 25 52 46z" />
    <glyph glyph-name="oacute" unicode="&#xf3;" horiz-adv-x="569" 
d="M284 -12c-139 0 -256 104 -256 246c0 173 147 260 270 260c164 0 244 -128 244 -239c0 -153 -103 -267 -258 -267zM289 455c-100 0 -117 -144 -117 -218s16 -210 115 -210c97 0 111 139 111 210c0 73 -8 218 -109 218zM220 538l60 173c15 41 29 62 77 62
c20 0 53 -6 53 -32c0 -24 -67 -112 -82 -133l-57 -79z" />
    <glyph glyph-name="ocircumflex" unicode="&#xf4;" horiz-adv-x="569" 
d="M284 -12c-139 0 -256 104 -256 246c0 173 147 260 270 260c164 0 244 -128 244 -239c0 -153 -103 -267 -258 -267zM289 455c-100 0 -117 -144 -117 -218s16 -210 115 -210c97 0 111 139 111 210c0 73 -8 218 -109 218zM284 676l-101 -152l-51 17l83 180
c16 34 29 51 69 51s53 -17 69 -51l85 -180l-54 -17z" />
    <glyph glyph-name="odieresis" unicode="&#xf6;" horiz-adv-x="569" 
d="M284 -12c-139 0 -256 104 -256 246c0 173 147 260 270 260c164 0 244 -128 244 -239c0 -153 -103 -267 -258 -267zM289 455c-100 0 -117 -144 -117 -218s16 -210 115 -210c97 0 111 139 111 210c0 73 -8 218 -109 218zM102 622c0 41 33 74 73 74c41 0 74 -33 74 -74
c0 -40 -33 -73 -74 -73c-40 0 -73 33 -73 73zM322 622c0 41 33 74 73 74c41 0 74 -33 74 -74c0 -40 -33 -73 -74 -73c-40 0 -73 33 -73 73z" />
    <glyph glyph-name="ograve" unicode="&#xf2;" horiz-adv-x="569" 
d="M284 -12c-139 0 -256 104 -256 246c0 173 147 260 270 260c164 0 244 -128 244 -239c0 -153 -103 -267 -258 -267zM289 455c-100 0 -117 -144 -117 -218s16 -210 115 -210c97 0 111 139 111 210c0 73 -8 218 -109 218zM370 538l-51 -9l-57 79c-15 21 -82 109 -82 133
c0 26 33 32 53 32c48 0 62 -21 77 -62z" />
    <glyph glyph-name="otilde" unicode="&#xf5;" horiz-adv-x="569" 
d="M284 -12c-139 0 -256 104 -256 246c0 173 147 260 270 260c164 0 244 -128 244 -239c0 -153 -103 -267 -258 -267zM289 455c-100 0 -117 -144 -117 -218s16 -210 115 -210c97 0 111 139 111 210c0 73 -8 218 -109 218zM443 691h47c-10 -54 -64 -140 -125 -140
c-56 0 -134 46 -188 46c-27 0 -40 -23 -47 -46h-52c17 56 61 141 127 141c33 0 84 -20 115 -30c21 -6 49 -17 71 -17c26 0 41 25 52 46z" />
    <glyph glyph-name="scaron" unicode="&#x161;" horiz-adv-x="502" 
d="M408 504l49 -163l-39 -14c-47 57 -119 128 -198 128c-36 0 -77 -22 -77 -62c0 -61 100 -67 143 -74c90 -15 194 -47 194 -158c0 -55 -23 -103 -60 -134c-43 -36 -99 -49 -186 -36c-20 3 -39 10 -59 10c-32 0 -64 -6 -92 -20l-50 173l36 11c53 -67 128 -140 219 -140
c36 0 78 18 78 60c0 59 -69 75 -115 85c-91 19 -207 47 -207 162c0 94 79 162 170 162c41 0 89 -20 120 -20c26 0 53 13 74 30zM149 772l101 -152l100 152l54 -17l-85 -180c-16 -34 -29 -51 -69 -51s-53 17 -69 51l-83 180z" />
    <glyph glyph-name="uacute" unicode="&#xfa;" horiz-adv-x="632" 
d="M401 0v69c-53 -43 -111 -81 -182 -81c-96 0 -137 65 -137 148v180c0 53 -13 89 -71 96v31l215 61v-366c0 -39 28 -65 70 -65c39 0 77 29 105 53v190c0 53 -13 89 -71 96v31l215 61v-379c0 -53 13 -89 72 -94v-31h-216zM281 538l60 173c15 41 29 62 77 62
c20 0 53 -6 53 -32c0 -24 -67 -112 -82 -133l-57 -79z" />
    <glyph glyph-name="ucircumflex" unicode="&#xfb;" horiz-adv-x="632" 
d="M401 0v69c-53 -43 -111 -81 -182 -81c-96 0 -137 65 -137 148v180c0 53 -13 89 -71 96v31l215 61v-366c0 -39 28 -65 70 -65c39 0 77 29 105 53v190c0 53 -13 89 -71 96v31l215 61v-379c0 -53 13 -89 72 -94v-31h-216zM315 676l-101 -152l-51 17l83 180
c16 34 29 51 69 51s53 -17 69 -51l85 -180l-54 -17z" />
    <glyph glyph-name="udieresis" unicode="&#xfc;" horiz-adv-x="632" 
d="M401 0v69c-53 -43 -111 -81 -182 -81c-96 0 -137 65 -137 148v180c0 53 -13 89 -71 96v31l215 61v-366c0 -39 28 -65 70 -65c39 0 77 29 105 53v190c0 53 -13 89 -71 96v31l215 61v-379c0 -53 13 -89 72 -94v-31h-216zM133 622c0 41 33 74 73 74c41 0 74 -33 74 -74
c0 -40 -33 -73 -74 -73c-40 0 -73 33 -73 73zM353 622c0 41 33 74 73 74c41 0 74 -33 74 -74c0 -40 -33 -73 -74 -73c-40 0 -73 33 -73 73z" />
    <glyph glyph-name="ugrave" unicode="&#xf9;" horiz-adv-x="632" 
d="M401 0v69c-53 -43 -111 -81 -182 -81c-96 0 -137 65 -137 148v180c0 53 -13 89 -71 96v31l215 61v-366c0 -39 28 -65 70 -65c39 0 77 29 105 53v190c0 53 -13 89 -71 96v31l215 61v-379c0 -53 13 -89 72 -94v-31h-216zM401 538l-51 -9l-57 79c-15 21 -82 109 -82 133
c0 26 33 32 53 32c48 0 62 -21 77 -62z" />
    <glyph glyph-name="yacute" unicode="&#xfd;" horiz-adv-x="493" 
d="M-37 482h263v-31c-22 -2 -43 -12 -43 -38c0 -20 10 -41 18 -59l88 -187l75 163c9 19 20 42 20 63c0 31 -14 50 -67 58v31h209v-31c-68 -17 -84 -63 -110 -121l-150 -334c-40 -88 -86 -184 -200 -184c-42 0 -86 25 -86 71c0 37 32 65 68 65c47 0 63 -51 89 -51
c34 0 72 77 82 104l-178 378c-17 37 -31 69 -78 72v31zM212 538l60 173c15 41 29 62 77 62c20 0 53 -6 53 -32c0 -24 -67 -112 -82 -133l-57 -79z" />
    <glyph glyph-name="ydieresis" unicode="&#xff;" horiz-adv-x="493" 
d="M-37 482h263v-31c-22 -2 -43 -12 -43 -38c0 -20 10 -41 18 -59l88 -187l75 163c9 19 20 42 20 63c0 31 -14 50 -67 58v31h209v-31c-68 -17 -84 -63 -110 -121l-150 -334c-40 -88 -86 -184 -200 -184c-42 0 -86 25 -86 71c0 37 32 65 68 65c47 0 63 -51 89 -51
c34 0 72 77 82 104l-178 378c-17 37 -31 69 -78 72v31zM64 622c0 41 33 74 73 74c41 0 74 -33 74 -74c0 -40 -33 -73 -74 -73c-40 0 -73 33 -73 73zM284 622c0 41 33 74 73 74c41 0 74 -33 74 -74c0 -40 -33 -73 -74 -73c-40 0 -73 33 -73 73z" />
    <glyph glyph-name="zcaron" unicode="&#x17e;" horiz-adv-x="443" 
d="M441 482l13 -27l-292 -416h32c108 0 186 65 232 141l28 -12l-47 -168h-411l-11 31l288 412h-30c-96 0 -149 -48 -206 -121l-32 14l51 146h385zM150 772l101 -152l100 152l54 -17l-85 -180c-16 -34 -29 -51 -69 -51s-53 17 -69 51l-83 180z" />
    <glyph glyph-name="Omega" unicode="&#x2126;" horiz-adv-x="862" 
d="M822 176l-32 -176h-294l-10 25c47 84 139 222 138 373c-1 214 -89 293 -195 293c-112 0 -192 -78 -192 -297c0 -144 79 -273 135 -368l-10 -26h-294l-29 176l35 1c25 -66 42 -79 92 -79h112c-79 56 -196 144 -196 304c0 201 149 329 350 329c204 0 346 -122 346 -321
c0 -141 -110 -238 -203 -312h123c49 0 63 11 88 79z" />
    <glyph glyph-name="pi" unicode="&#x3c0;" horiz-adv-x="671" 
d="M610 513l31 -10c-6 -44 -27 -103 -43 -122c-19 -5 -46 -6 -76 -6c-6 -66 -5 -142 -5 -217c1 -66 19 -92 48 -92c22 0 34 10 52 25l14 -30c-29 -45 -84 -74 -133 -74c-64 0 -115 30 -115 141c0 96 6 175 11 249c-67 1 -113 2 -156 2v-13c0 -241 -57 -341 -73 -360
c-27 -10 -55 -17 -75 -19l-9 23c80 101 106 271 106 371c-70 1 -100 -15 -147 -44l-18 31c39 49 78 113 203 112c87 -1 209 -4 316 -4c34 0 51 7 69 37z" />
    <glyph glyph-name="Euro" unicode="&#x20ac;" 
d="M606 578h-26c-13 76 -69 108 -145 108c-124 0 -170 -98 -185 -248h292l-21 -48h-273c-1 -9 -1 -22 -1 -32v-33h244l-22 -48h-219c11 -154 77 -240 186 -240c68 0 131 30 144 108h26l-8 -97c-32 -33 -85 -59 -194 -59c-187 0 -282 102 -302 288h-80l21 48h51
c-1 10 -1 25 -1 35c0 7 0 22 1 30h-72l21 48h55c24 184 105 298 306 298c115 0 167 -30 194 -57z" />
    <glyph glyph-name="estimated" unicode="&#x212e;" horiz-adv-x="900" 
d="M865 351h-672c-3 0 -6 -1 -6 -4v-204c0 -9 4 -16 9 -23c65 -67 155 -110 254 -110c107 0 202 48 268 123h59c-74 -87 -194 -144 -328 -144c-229 0 -414 166 -414 372c0 207 185 373 414 373c230 0 416 -166 416 -373v-10zM712 378v204c0 9 -3 18 -10 24
c-65 64 -153 106 -252 106c-98 0 -188 -43 -253 -109c-6 -7 -10 -16 -10 -25v-200c0 -3 3 -7 6 -7h515c3 0 4 4 4 7z" />
    <glyph glyph-name="partialdiff" unicode="&#x2202;" horiz-adv-x="631" 
d="M304 461h1c53 0 114 -23 146 -69c5 33 10 76 11 114c2 53 -3 109 -28 162c-23 43 -70 80 -127 80c-64 0 -126 -41 -168 -75c-21 -1 -59 60 -46 91c41 22 90 44 170 44c117 0 196 -59 252 -152c47 -81 60 -180 60 -243c0 -84 -15 -183 -58 -262
c-50 -96 -130 -161 -250 -161c-132 0 -219 84 -219 217c0 75 30 137 69 177c46 48 113 77 187 77zM340 409h-1c-38 0 -77 -11 -110 -59c-34 -53 -49 -127 -49 -200c0 -71 32 -120 91 -120c53 0 91 55 115 106c29 63 43 119 55 205c-14 28 -52 68 -101 68z" />
    <glyph glyph-name="product" unicode="&#x220f;" horiz-adv-x="818" 
d="M785 732v-35c-97 -7 -103 -17 -103 -92v-557c0 -83 8 -93 102 -100v-35h-330v35c86 7 91 12 91 100v601c0 34 -7 38 -41 38h-194c-34 0 -38 -4 -38 -35v-604c0 -83 1 -93 82 -100v-35h-321v35c92 7 101 17 101 100v557c0 76 -7 85 -105 92v35h756z" />
    <glyph glyph-name="summation" unicode="&#x2211;" horiz-adv-x="652" 
d="M625 138l-54 -232h-542v35l248 341l-241 414v36h534c1 -19 8 -116 14 -192l-36 -8c-12 50 -27 92 -43 118c-17 29 -34 39 -118 39h-185l190 -323l-250 -350h282c100 0 112 4 164 132z" />
    <glyph glyph-name="uni2219" unicode="&#x2219;" horiz-adv-x="329" 
d="M73 275c0 51 41 92 92 92c50 0 91 -41 91 -92c0 -50 -41 -91 -91 -91c-51 0 -92 41 -92 91z" />
    <glyph glyph-name="radical" unicode="&#x221a;" horiz-adv-x="632" 
d="M620 918l-194 -1079l-32 -15l-244 571l-98 -47l-15 43l202 93l174 -427h2l152 873z" />
    <glyph glyph-name="infinity" unicode="&#x221e;" horiz-adv-x="836" 
d="M785 298v-1c0 -116 -85 -185 -173 -185c-61 0 -122 27 -194 121c-55 -68 -111 -121 -197 -121c-90 0 -171 73 -171 180c0 108 78 184 180 184c80 0 139 -48 194 -119c44 51 98 120 194 119c94 -1 167 -71 167 -178zM230 187h1c60 0 107 56 146 102
c-44 58 -82 113 -151 113c-59 0 -98 -46 -98 -111c0 -56 43 -104 102 -104zM610 402h-1c-64 0 -113 -67 -147 -107c65 -80 100 -108 152 -108c59 0 93 57 93 105c0 65 -39 110 -97 110z" />
    <glyph glyph-name="integral" unicode="&#x222b;" horiz-adv-x="445" 
d="M181 -5l-23 419c-21 387 101 465 190 465c35 0 80 -20 80 -59c0 -41 -30 -61 -60 -61c-41 0 -39 66 -63 66c-21 0 -40 -29 -33 -165l20 -394c20 -371 -83 -488 -194 -488c-44 0 -79 27 -80 61c-1 37 38 65 71 65c35 0 34 -72 58 -72c29 0 40 64 34 163z" />
    <glyph glyph-name="approxequal" unicode="&#x2248;" horiz-adv-x="614" 
d="M520 474l52 -50c-39 -65 -93 -107 -153 -107c-47 0 -77 15 -125 42c-31 18 -59 35 -95 35c-49 0 -79 -36 -109 -76l-52 50c34 60 98 107 166 107c52 0 87 -22 117 -39c41 -24 61 -38 96 -38c42 0 71 29 103 76zM520 275l52 -51c-39 -64 -91 -107 -154 -107
c-46 0 -78 16 -124 42c-33 19 -60 35 -95 35c-50 0 -80 -37 -109 -76l-52 50c34 60 98 107 166 107c53 0 87 -22 116 -38c33 -19 58 -39 96 -39c43 0 70 28 104 77z" />
    <glyph glyph-name="notequal" unicode="&#x2260;" horiz-adv-x="614" 
d="M452 537l-43 -93h152v-81h-185l-64 -142h249v-80h-282l-56 -124l-65 28l44 96h-149v80h182l64 142h-246v81h279l55 121z" />
    <glyph glyph-name="lessequal" unicode="&#x2264;" horiz-adv-x="614" 
d="M559 111l-502 235v87l502 234v-92l-417 -184v-2l417 -186v-92zM562 -10h-508v82h508v-82z" />
    <glyph glyph-name="greaterequal" unicode="&#x2265;" horiz-adv-x="614" 
d="M58 667l502 -235v-86l-501 -235v92l416 186v2l-417 184v92zM559 -10h-505v82h505v-82z" />
    <glyph glyph-name="lozenge" unicode="&#x25ca;" horiz-adv-x="651" 
d="M600 348l-227 -427h-97l-226 427l228 429h96zM506 348l-178 347h-4l-180 -346l180 -349h3z" />
    <glyph glyph-name="uni02C9" unicode="&#x2c9;" horiz-adv-x="526" 
d="M73 686h380v-88h-380v88z" />
    <glyph glyph-name="uni00AD" unicode="&#xad;" horiz-adv-x="322" 
d="M44 209v95h234v-95h-234z" />
    <glyph glyph-name="uni03A9" unicode="&#x3a9;" horiz-adv-x="862" 
d="M822 176l-32 -176h-294l-10 25c47 84 139 222 138 373c-1 214 -89 293 -195 293c-112 0 -192 -78 -192 -297c0 -144 79 -273 135 -368l-10 -26h-294l-29 176l35 1c25 -66 42 -79 92 -79h112c-79 56 -196 144 -196 304c0 201 149 329 350 329c204 0 346 -122 346 -321
c0 -141 -110 -238 -203 -312h123c49 0 63 11 88 79z" />
    <glyph glyph-name="uni00A0" unicode="&#xa0;" horiz-adv-x="329" 
 />
    <glyph glyph-name="afii61289" unicode="&#x2113;" horiz-adv-x="503" 
d="M456 152l26 -24c-50 -88 -117 -139 -210 -139c-61 0 -100 16 -127 44c-26 30 -44 65 -44 161v64l-68 -44l-15 34l83 57v139c0 157 12 217 61 274c38 47 81 64 124 64c82 0 118 -72 118 -149c0 -121 -66 -207 -175 -304v-82c0 -133 31 -180 99 -180c54 0 97 42 128 85z
M229 507v-119c55 62 97 140 97 243c0 58 -13 111 -49 111c-40 0 -48 -59 -48 -235z" />
    <glyph glyph-name="uni03BC" unicode="&#x3bc;" horiz-adv-x="632" 
d="M401 0v69c-51 -42 -108 -79 -179 -81c15 -61 17 -72 17 -90c0 -52 -33 -99 -88 -99c-52 0 -91 38 -91 92c0 52 10 63 36 170c-9 22 -14 47 -14 75v180c0 53 -13 89 -71 96v31l215 61v-366c0 -39 28 -65 70 -65c39 0 77 29 105 53v190c0 53 -13 89 -71 96v31l215 61v-379
c0 -53 13 -89 72 -94v-31h-216z" />
    <glyph glyph-name="uni2215" unicode="&#x2215;" horiz-adv-x="102" 
d="M-176 0l381 732h73l-380 -732h-74z" />
    <glyph glyph-name="a.superior" horiz-adv-x="395" 
d="M325 645v-141c1 -15 0 -34 21 -34c6 0 12 2 17 4l12 -14c-17 -23 -47 -40 -76 -40c-27 0 -52 15 -66 38c-35 -23 -70 -38 -112 -38c-52 0 -100 26 -100 83c0 92 142 117 211 127c0 79 -9 96 -43 96c-61 0 -37 -95 -99 -95c-21 0 -43 16 -43 39c0 65 106 80 153 80
c113 0 122 -40 125 -105zM232 497v102c-51 -6 -108 -26 -108 -87c0 -29 15 -53 45 -53c24 0 47 21 63 38z" />
    <glyph glyph-name="o.superior" horiz-adv-x="395" 
d="M196 420c-91 0 -170 67 -170 161c0 101 84 169 181 169c85 0 162 -59 162 -156c0 -103 -71 -174 -173 -174zM201 723c-66 0 -77 -92 -77 -141c0 -47 11 -135 75 -135s72 92 72 139c0 46 -6 137 -70 137z" />
    <glyph glyph-name="one.superior" horiz-adv-x="395" 
d="M252 736v-348c0 -59 0 -70 94 -75v-19h-295v19c72 4 96 6 96 94v175c0 49 -26 79 -96 79v20c68 7 135 26 201 55z" />
    <glyph glyph-name="two.superior" horiz-adv-x="395" 
d="M102 369h139c67 0 88 10 119 67l25 -6l-36 -136h-339v35c38 46 81 82 155 138c55 42 97 89 97 160c0 50 -21 80 -78 80c-29 0 -56 -9 -56 -39c0 -15 5 -30 5 -45c0 -27 -25 -48 -54 -48c-33 0 -54 23 -54 52c0 36 41 109 179 109c139 0 171 -75 171 -122
c0 -42 -1 -79 -153 -164c-43 -24 -88 -45 -120 -81z" />
    <glyph glyph-name="three.superior" horiz-adv-x="395" 
d="M172 510c-12 0 -24 -3 -36 -3c-10 3 -18 9 -18 18c0 12 9 18 21 21c11 0 21 -3 31 -3c65 0 89 34 89 93c0 41 -14 71 -63 71c-42 0 -59 -10 -60 -43c0 -37 -20 -60 -51 -60c-24 0 -47 21 -47 44c0 31 38 88 158 88c67 0 176 -24 176 -103c0 -58 -57 -89 -110 -105
c57 -20 122 -48 122 -113c0 -46 -46 -128 -187 -128c-58 0 -185 22 -185 94c0 26 19 45 48 45c30 0 54 -18 58 -54c2 -39 8 -56 65 -56c63 0 88 38 88 92c0 61 -29 102 -99 102z" />
    <glyph glyph-name="uni2206" unicode="&#x2206;" horiz-adv-x="750" 
d="M709 0h-669v36l298 680l63 15l308 -695v-36zM542 64l-216 502l-211 -502h427z" />
    <glyph glyph-name="uni2010" unicode="&#x2010;" horiz-adv-x="322" 
d="M44 209v95h234v-95h-234z" />
    </font>
</defs>
</svg>
