<?xml version="1.0" encoding="UTF-8"?>
<svg width="20px" height="24px" viewBox="0 0 20 24" version="1.1" xmlns="http://www.w3.org/2000/svg" xmlns:xlink="http://www.w3.org/1999/xlink">
    <title>Apple</title>
    <g id="Assets" stroke="none" stroke-width="1" fill="none" fill-rule="evenodd">
        <path d="M20,17.607 C19.214,19.887 16.861,23.924 14.437,23.968 C12.829,23.999 12.312,23.015 10.474,23.015 C8.637,23.015 8.062,23.938 6.542,23.998 C3.97,24.097 0,18.171 0,13.003 C0,8.256 3.308,5.903 6.198,5.86 C7.748,5.832 9.212,6.905 10.157,6.905 C11.106,6.905 12.884,5.615 14.753,5.804 C15.535,5.837 17.732,6.119 19.142,8.181 C15.401,10.623 15.984,15.73 20,17.607 Z M14.778,-5.68434189e-14 C11.952,0.114 9.646,3.079 9.968,5.531 C12.58,5.734 15.086,2.806 14.778,-5.68434189e-14 Z" id="Apple" fill="#000000" fill-rule="nonzero"></path>
    </g>
</svg>