<?xml version="1.0" encoding="UTF-8"?>
<svg width="24px" height="24px" viewBox="0 0 24 24" version="1.1" xmlns="http://www.w3.org/2000/svg" xmlns:xlink="http://www.w3.org/1999/xlink">
    <title>Copy Link</title>
    <g id="Assets" stroke="none" stroke-width="1" fill="none" fill-rule="evenodd" opacity="0.7">
        <g id="Copy-Link" fill="#000000" fill-rule="nonzero">
            <path d="M6.188,8.719 C6.627,8.28 7.114,7.918 7.632,7.632 C10.519,6.041 14.221,6.887 16.077,9.701 L13.831,11.946 C13.187,10.477 11.588,9.641 9.997,9.997 C9.398,10.131 8.829,10.43 8.364,10.895 L4.06,15.201 C2.753,16.508 2.753,18.634 4.06,19.941 C5.367,21.248 7.493,21.248 8.8,19.941 L10.127,18.614 C11.334,19.093 12.628,19.284 13.906,19.189 L10.977,22.118 C8.466,24.629 4.395,24.629 1.884,22.118 C-0.627,19.607 -0.627,15.536 1.884,13.025 L6.188,8.719 Z M13.024,1.883 L10.095,4.812 C11.372,4.716 12.667,4.908 13.874,5.386 L15.2,4.06 C16.507,2.753 18.633,2.753 19.94,4.06 C21.247,5.367 21.247,7.493 19.94,8.8 L15.635,13.105 C14.324,14.416 12.195,14.405 10.895,13.105 C10.592,12.802 10.331,12.425 10.168,12.054 L7.922,14.299 C8.158,14.657 8.403,14.966 8.718,15.281 C9.53,16.093 10.564,16.698 11.754,16.985 C13.296,17.356 14.948,17.151 16.367,16.368 C16.885,16.082 17.372,15.72 17.811,15.281 L22.115,10.976 C24.627,8.465 24.627,4.394 22.116,1.883 C19.605,-0.627 15.535,-0.627 13.024,1.883 Z" id="Shape"></path>
        </g>
    </g>
</svg>