<?xml version="1.0" encoding="UTF-8"?>
<svg width="24px" height="24px" viewBox="0 0 24 24" version="1.1" xmlns="http://www.w3.org/2000/svg" xmlns:xlink="http://www.w3.org/1999/xlink">
    <title>Google</title>
    <g id="Assets" stroke="none" stroke-width="1" fill="none" fill-rule="evenodd">
        <g id="Google" fill-rule="nonzero">
            <path d="M23.745001,12.270002 C23.745001,11.480002 23.675001,10.730002 23.555001,10.000002 L12.255001,10.000002 L12.255001,14.510002 L18.725001,14.510002 C18.435001,15.990002 17.585001,17.240002 16.325001,18.090002 L16.325001,21.090002 L20.185001,21.090002 C22.445001,19.000002 23.745001,15.920002 23.745001,12.270002 Z" id="Path" fill="#4285F4"></path>
            <path d="M12.255001,24.000002 C15.495001,24.000002 18.205001,22.920002 20.185001,21.090002 L16.325001,18.090002 C15.245001,18.810002 13.875001,19.250002 12.255001,19.250002 C9.125001,19.250002 6.475001,17.140002 5.525001,14.290002 L1.545001,14.290002 L1.545001,17.380002 C3.515001,21.300002 7.565001,24.000002 12.255001,24.000002 Z" id="Path" fill="#34A853"></path>
            <path d="M5.525001,14.290002 C5.275001,13.570002 5.145001,12.800002 5.145001,12.000002 C5.145001,11.200002 5.285001,10.430002 5.525001,9.710002 L5.525001,6.620002 L1.545001,6.620002 C0.725001,8.240002 0.255001,10.060002 0.255001,12.000002 C0.255001,13.940002 0.725001,15.760002 1.545001,17.380002 L5.525001,14.290002 Z" id="Path" fill="#FBBC05"></path>
            <path d="M12.255001,4.750002 C14.025001,4.750002 15.605001,5.360002 16.855001,6.550002 L20.275001,3.130002 C18.205001,1.190002 15.495001,1.99999999e-06 12.255001,1.99999999e-06 C7.565001,1.99999999e-06 3.515001,2.700002 1.545001,6.620002 L5.525001,9.710002 C6.475001,6.860002 9.125001,4.750002 12.255001,4.750002 Z" id="Path" fill="#EA4335"></path>
        </g>
    </g>
</svg>