<?xml version="1.0" encoding="UTF-8"?>
<svg width="138px" height="36px" viewBox="0 0 138 36" version="1.1" xmlns="http://www.w3.org/2000/svg" xmlns:xlink="http://www.w3.org/1999/xlink">
    <title>Hansa Logo White</title>
    <g id="Assets" stroke="none" stroke-width="1" fill="none" fill-rule="evenodd">
        <g id="Hansa-Logo-White" fill="#FFFFFF" fill-rule="nonzero">
            <g id="Hansa-Logo-White-Copy">
                <path d="M2.02977623,17.7277979 L2.02977623,3.48015072 C2.02977623,2.10706399 0,0.509290349 0,0.509290349 L7.73000251,0.509290349 C7.82665853,0.636612937 6.40655867,2.25685527 6.40655867,4.98305656 L6.40655867,10.1883035 L15.398046,10.1883035 L15.398046,5.06044872 C15.2356774,3.37594925 14.5406713,1.7884743 13.4153586,0.531759041 L21.958263,0.531759041 C20.9377181,1.21321362 20.3265445,2.36662342 20.3324593,3.59998374 L20.3324593,19.0409681 C20.3324593,20.4465096 22.4588916,22.0118285 22.4588916,22.0118285 L13.7028483,22.0118285 C13.6086707,21.8845059 15.3484789,20.2642636 15.3484789,17.5380623 L15.3484789,12.2029962 L6.40655867,12.2029962 L6.40655867,19.0409681 C6.40655867,19.5203002 8.38924608,22.0118285 8.38924608,22.0118285 L0.0644373406,22.0118285 C0.0644373406,22.0118285 2.02977623,19.8698132 2.02977623,17.7277979 Z" id="Path"></path>
                <path d="M44.4741568,15.046534 L37.4975755,15.046534 C36.7689379,17.508104 36.1964369,19.4553907 36.1964369,19.7125323 C36.1964369,20.1594097 38.9226321,22.0118285 38.9226321,22.0118285 L31.6932581,22.0118285 C31.5990805,21.8520511 33.4058044,19.8723097 33.8494307,18.7663508 C34.6425057,16.7541546 40.129593,0.524269477 40.129593,0.524269477 L43.7455192,0.524269477 L49.8026292,17.5430553 C50.5312668,19.5877063 52.3702094,22.0168215 52.3702094,22.0168215 L43.3638519,22.0168215 C43.3638519,22.0168215 45.9958694,20.2692566 45.9958694,19.6850706 C45.964894,19.3781052 45.8906218,19.0771578 45.7752954,18.791316 L44.4741568,15.046534 Z M40.6996157,4.28153406 C40.3823857,5.52979472 39.1779031,9.48927754 38.0998168,13.0667926 L43.7752595,13.0667926 C42.1915879,8.4657038 40.984627,4.92064352 40.826012,4.28153406 L40.6996157,4.28153406 Z" id="Shape"></path>
                <path d="M65.6938688,5.62216601 L65.6319098,5.62216601 L66.1077548,18.791316 C66.1399734,19.907261 68.7397723,22.0168215 68.7397723,22.0168215 L61.2229087,22.0168215 C61.2229087,22.0168215 63.4112999,18.5341743 63.4112999,17.7727353 L63.4112999,3.81218806 C63.4112999,3.1730786 61.2551273,0.521772956 61.287346,0.521772956 L67.3122373,0.521772956 C67.3122373,0.521772956 78.2839338,15.4409844 78.7919974,16.4995094 L78.8564348,16.4995094 L78.3805898,3.76725067 C78.3483711,2.58389957 75.8427499,0.539248605 75.8427499,0.539248605 L83.1687799,0.539248605 C83.1687799,0.539248605 80.9803886,4.14921843 80.9803886,5.1403374 L80.94817,21.5374894 L78.1253188,22.4312441 C78.1253188,22.4312441 66.4249847,6.96279796 65.6938688,5.62216601 Z" id="Path"></path>
                <path d="M92.6980712,14.5222645 C92.7922488,14.3949419 97.1045939,20.0595488 100.276894,20.0595488 C102.115836,20.0595488 103.701986,19.1333394 103.701986,17.1211432 C103.701986,12.2329545 93.3622715,13.0967508 93.3622715,6.51592065 C93.3622715,2.87349604 95.93233,0 100.797349,0 C103.397148,0 106.029166,0.893754633 106.745411,1.30817717 C106.745411,2.74617345 106.24974,7.38970311 105.754068,7.29982834 C105.246004,4.55365489 103.248447,2.24187615 100.490033,2.24187615 C98.7551812,2.24187615 97.5160016,3.32786292 97.5160016,5.02050438 C97.5160016,9.74891576 107.791279,8.63047421 107.791279,15.8204556 C107.791279,19.6201611 105.221221,22.3987893 100.368593,22.3987893 C98.3388169,22.3987893 95.4540067,21.7596798 93.7414604,20.9308348 C93.4589275,18.9436038 93.2061348,16.4720477 92.6980712,14.5222645 Z" id="Path"></path>
                <path d="M130.103947,15.046534 L123.127366,15.046534 C122.39625,17.508104 121.826228,19.4553907 121.826228,19.7125323 C121.826228,20.1594097 124.552423,22.0118285 124.552423,22.0118285 L117.325527,22.0118285 C117.228871,21.8520511 119.038073,19.8723097 119.4817,18.7663508 C120.274775,16.7541546 125.761862,0.524269477 125.761862,0.524269477 L129.37531,0.524269477 L135.429941,17.5430553 C136.173449,19.5877063 138,22.0168215 138,22.0168215 L128.993642,22.0168215 C128.993642,22.0168215 131.62566,20.2692566 131.62566,19.6850706 C131.593593,19.3780347 131.518496,19.0771252 131.402608,18.791316 L130.103947,15.046534 Z M126.329406,4.28153406 C126.012176,5.52979472 124.807694,9.48927754 123.729607,13.0667926 L129.40505,13.0667926 C127.8189,8.4657038 126.614418,4.92064352 126.455803,4.28153406 L126.329406,4.28153406 Z" id="Shape"></path>
                <polygon id="Path" points="22.6968141 31.6883451 23.0958299 31.6883451 24.1392191 35.4006723 24.1392191 35.4006723 25.1900435 31.6883451 25.6857153 31.6883451 26.739018 35.4006723 26.7514098 35.4006723 27.7848856 31.6883451 28.1839014 31.6883451 26.9744621 35.8800044 26.4986171 35.8800044 25.4453145 32.1502016 25.4453145 32.1502016 24.3870551 35.8800044 23.9112101 35.8800044"></polygon>
                <polygon id="Path" points="31.133149 31.6883451 31.5222514 31.6883451 31.5222514 35.8800044 31.133149 35.8800044"></polygon>
                <polygon id="Path" points="35.0117812 31.6883451 35.507453 31.6883451 38.0403362 35.3582315 38.0403362 35.3582315 38.0403362 31.6883451 38.4269602 31.6883451 38.4269602 35.8800044 37.9312884 35.8800044 35.3984052 32.2101181 35.3860134 32.2101181 35.3860134 35.8800044 34.9993894 35.8800044"></polygon>
                <polygon id="Path" points="41.9338386 31.6883451 44.4766352 31.6883451 44.4766352 32.0428511 42.3204626 32.0428511 42.3204626 33.5407639 44.3428038 33.5407639 44.3428038 33.89527 42.3204626 33.89527 42.3204626 35.5180088 44.5708128 35.5180088 44.5708128 35.8750114 41.9338386 35.8750114"></polygon>
                <path d="M47.8794224,35.1035863 C47.9710613,35.2714818 48.1087145,35.4092772 48.2759599,35.5005332 C48.4473395,35.5898419 48.6382014,35.6344738 48.8311124,35.6303523 C48.9550349,35.6311876 49.0782073,35.6109305 49.1954312,35.5704358 C49.3036982,35.5342116 49.4044865,35.4783718 49.4928343,35.4056654 C49.574707,35.3365178 49.6421048,35.2516531 49.691103,35.1560132 C49.7419833,35.0502796 49.7674532,34.9339701 49.7654538,34.8164863 C49.7710613,34.6893453 49.7391524,34.5633804 49.6737545,34.4544907 C49.6102539,34.3580264 49.5254223,34.2777003 49.4259186,34.2198177 C49.3162577,34.1565866 49.2009152,34.1039259 49.0814267,34.0625369 L48.6873676,33.9327178 C48.5535362,33.8902769 48.4221831,33.8403465 48.2933084,33.785423 C48.1686698,33.7316009 48.0532452,33.6582999 47.9512949,33.5682257 C47.8453454,33.4773498 47.7607043,33.3639522 47.7034589,33.2361883 C47.6384891,33.0780674 47.6072469,32.9079534 47.6117596,32.7368841 C47.6028926,32.4035319 47.753094,32.086076 48.0157322,31.8830738 C48.1432013,31.7840553 48.2877128,31.7095774 48.44201,31.6633799 C48.6026043,31.6136664 48.7696755,31.5884594 48.9376818,31.5884594 C49.1534485,31.5872948 49.3673412,31.6288599 49.5671851,31.7108138 C49.7667894,31.7973397 49.9384547,31.9382722 50.0628569,32.1177468 L49.7282784,32.3673989 C49.6401857,32.236849 49.5219768,32.1297669 49.3837865,32.0553338 C49.2387355,31.9844661 49.0790271,31.9493809 48.917855,31.9529764 C48.7962685,31.9515145 48.6751465,31.9683434 48.5584929,32.0029068 C48.4515275,32.0319964 48.3513073,32.0820496 48.2635681,32.1502016 C48.1769548,32.2158223 48.1072576,32.3014417 48.0603427,32.3998537 C48.0065956,32.5073304 47.9801953,32.6265734 47.9835135,32.7468702 C47.9713751,32.923007 48.0283277,33.0969099 48.1421285,33.2311953 C48.2539777,33.346983 48.3892049,33.4372276 48.538666,33.4958266 C48.7074666,33.5644111 48.8804852,33.6219506 49.0566431,33.6680865 C49.2350416,33.7148852 49.4078827,33.7810126 49.5721418,33.8653117 C49.729543,33.9480058 49.8653913,34.0668889 49.9686793,34.2123282 C50.0846453,34.3950168 50.1401735,34.6100174 50.1272943,34.8264724 C50.1299494,34.9986395 50.0943862,35.1692292 50.0232032,35.3257767 C49.955382,35.4679645 49.8582135,35.5939325 49.7381919,35.6952618 C49.6151911,35.7972455 49.4738224,35.8743814 49.3218275,35.9224453 C49.1619909,35.9756842 48.994492,36.0018368 48.8261557,35.9998374 C48.5662879,36.0032134 48.3083944,35.9539735 48.0677777,35.8550392 C47.8288986,35.7508534 47.6231091,35.5824241 47.4729715,35.3682175 L47.8794224,35.1035863 Z" id="Path"></path>
                <path d="M58.5363672,31.6883451 L58.9353831,31.6883451 L60.6875831,35.8800044 L60.2538702,35.8800044 L59.8003304,34.7690524 L57.5970691,34.7690524 L57.1261808,35.8825009 L56.7222083,35.8825009 L58.5363672,31.6883451 Z M58.7197658,32.1152503 L57.7507273,34.4120499 L59.659064,34.4120499 L58.7197658,32.1152503 Z" id="Shape"></path>
                <polygon id="Path" points="63.6368306 31.6883451 64.1325024 31.6883451 66.6629072 35.3582315 66.6629072 35.3582315 66.6629072 31.6883451 67.0520096 31.6883451 67.0520096 35.8800044 66.5563378 35.8800044 64.0408031 32.2101181 64.0408031 32.2101181 64.0408031 35.8800044 63.6517007 35.8800044"></polygon>
                <path d="M70.5068424,31.6883451 L71.7931109,31.6883451 C72.1041266,31.6810134 72.4141414,31.7265904 72.7101038,31.8231573 C72.9369929,31.8972695 73.148616,32.0123157 73.3346503,32.1626842 C73.492109,32.2899665 73.6255827,32.4447129 73.7287095,32.6195476 C73.8178177,32.7719669 73.8885385,32.9345597 73.93937,33.1038727 C73.9809604,33.2398604 74.0099978,33.3794258 74.0261126,33.5207918 C74.0261126,33.6456178 74.0434611,33.7329961 74.0434611,33.7704439 C74.0434611,33.8078917 74.0434611,33.9102491 74.0261126,34.0350752 C74.0097516,34.1764009 73.9807188,34.3159438 73.93937,34.4519942 C73.8889682,34.6206749 73.8182199,34.7824924 73.7287095,34.9338228 C73.6256489,35.1094234 73.4921871,35.2650017 73.3346503,35.3931828 C73.1480212,35.5426455 72.9365678,35.6575995 72.7101038,35.7327097 C72.4141414,35.8292765 72.1041266,35.8748535 71.7931109,35.8675218 L70.5068424,35.8675218 L70.5068424,31.6883451 Z M70.8934665,35.5180088 L71.6914982,35.5180088 C71.9519402,35.5208836 72.2114637,35.4864192 72.4622679,35.4156515 C72.6883966,35.3524401 72.8998325,35.2446746 73.0843361,35.0985932 C73.2637102,34.9531172 73.4070913,34.7676633 73.5031788,34.5568481 C73.7047115,34.0582772 73.7047115,33.5000862 73.5031788,33.0015153 C73.4070913,32.7907002 73.2637102,32.6052462 73.0843361,32.4597702 C72.9009021,32.3160474 72.6912293,32.2100186 72.4672246,32.147705 C72.2165412,32.0760938 71.9570154,32.0407885 71.6964549,32.0428511 L70.8984232,32.0428511 L70.8934665,35.5180088 Z" id="Shape"></path>
                <path d="M81.2530082,35.1035863 C81.344647,35.2714818 81.4823003,35.4092772 81.6495456,35.5005332 C81.8209253,35.5898419 82.0117871,35.6344738 82.2046981,35.6303523 C82.3286207,35.6311876 82.451793,35.6109305 82.5690169,35.5704358 C82.677284,35.5342116 82.7780722,35.4783718 82.86642,35.4056654 C82.9482927,35.3365178 83.0156905,35.2516531 83.0646888,35.1560132 C83.115569,35.0502796 83.1410389,34.9339701 83.1390395,34.8164863 C83.1446471,34.6893453 83.1127381,34.5633804 83.0473403,34.4544907 C82.9838397,34.3580264 82.899008,34.2777003 82.7995043,34.2198177 C82.6898434,34.1565866 82.574501,34.1039259 82.4550124,34.0625369 L82.0609533,33.9327178 C81.9271219,33.8902769 81.7957688,33.8403465 81.6668941,33.785423 C81.5422555,33.7316009 81.4268309,33.6582999 81.3248806,33.5682257 C81.2189311,33.4773498 81.13429,33.3639522 81.0770446,33.2361883 C81.0120748,33.0780674 80.9808327,32.9079534 80.9853454,32.7368841 C80.9764784,32.4035319 81.1266797,32.086076 81.3893179,31.8830738 C81.516787,31.7840553 81.6612985,31.7095774 81.8155957,31.6633799 C81.97619,31.6136664 82.1432612,31.5884594 82.3112676,31.5884594 C82.5270342,31.5872948 82.7409269,31.6288599 82.9407708,31.7108138 C83.1403751,31.7973397 83.3120405,31.9382722 83.4364427,32.1177468 L83.1018642,32.3673989 C83.0137714,32.236849 82.8955625,32.1297669 82.7573722,32.0553338 C82.6123213,31.9844661 82.4526128,31.9493809 82.2914407,31.9529764 C82.1698542,31.9515145 82.0487322,31.9683434 81.9320786,32.0029068 C81.8251133,32.0319964 81.724893,32.0820496 81.6371538,32.1502016 C81.5505405,32.2158223 81.4808433,32.3014417 81.4339284,32.3998537 C81.3801813,32.5073304 81.353781,32.6265734 81.3570992,32.7468702 C81.3449608,32.923007 81.4019134,33.0969099 81.5157142,33.2311953 C81.6275634,33.346983 81.7627906,33.4372276 81.9122517,33.4958266 C82.0810523,33.5644111 82.2540709,33.6219506 82.4302288,33.6680865 C82.6086273,33.7148852 82.7814684,33.7810126 82.9457275,33.8653117 C83.1031288,33.9480058 83.2389771,34.0668889 83.342265,34.2123282 C83.4582311,34.3950168 83.5137592,34.6100174 83.50088,34.8264724 C83.5035351,34.9986395 83.4679719,35.1692292 83.3967889,35.3257767 C83.3289677,35.4679645 83.2317993,35.5939325 83.1117776,35.6952618 C82.9887768,35.7972455 82.8474081,35.8743814 82.6954132,35.9224453 C82.5355766,35.9756842 82.3680777,36.0018368 82.1997414,35.9998374 C81.9398736,36.0032134 81.6819801,35.9539735 81.4413635,35.8550392 C81.2024843,35.7508534 80.9966948,35.5824241 80.8465572,35.3682175 L81.2530082,35.1035863 Z" id="Path"></path>
                <path d="M86.7574441,31.6883451 L87.9569699,31.6883451 C88.1094249,31.6897057 88.2613619,31.7064325 88.4105097,31.7382755 C88.5649181,31.7704353 88.7125442,31.8295805 88.8467009,31.913032 C88.9803575,31.9986484 89.0910143,32.1161182 89.1688876,32.2550555 C89.2583722,32.4200928 89.3020361,32.6063776 89.2952839,32.7943041 C89.300375,32.9664301 89.2655845,33.1373838 89.1936712,33.2936083 C89.1293067,33.4274353 89.0341409,33.5438405 88.916095,33.6331352 C88.7974595,33.7255533 88.6618535,33.793429 88.5170791,33.8328569 C88.3630168,33.8763793 88.2037179,33.8982229 88.0437125,33.8977665 L87.1465465,33.8977665 L87.1465465,35.8949835 L86.7574441,35.8949835 L86.7574441,31.6883451 Z M87.1465465,33.5357803 L88.026364,33.5357803 C88.1358182,33.5361862 88.2448917,33.5227667 88.3510291,33.4958266 C88.451193,33.4731725 88.5462092,33.4316688 88.6310837,33.373497 C88.7153445,33.3142936 88.7842035,33.2355103 88.8318308,33.1438171 C88.886697,33.0358503 88.9131498,32.9155103 88.9086599,32.7943041 C88.9115519,32.6753552 88.8842544,32.5576313 88.8293524,32.4522806 C88.7779611,32.3603329 88.707862,32.2803617 88.6236486,32.2176076 C88.5353498,32.1552705 88.4361135,32.1103716 88.3312022,32.085292 C88.2242945,32.0576858 88.1144216,32.0434318 88.0040588,32.0428511 L87.1465465,32.0428511 L87.1465465,33.5357803 Z" id="Shape"></path>
                <polygon id="Path" points="92.4799756 31.6883451 92.869078 31.6883451 92.869078 35.8800044 92.4799756 35.8800044"></polygon>
                <path d="M96.3586078,31.6883451 L97.4515642,31.6883451 L97.6746166,31.6883451 C97.776913,31.6943244 97.87873,31.7068321 97.9794548,31.7257929 C98.0945795,31.7463999 98.2074569,31.7781703 98.3165116,31.8206608 C98.429325,31.8635019 98.5328411,31.9279318 98.6213498,32.0103964 C98.7148336,32.0990871 98.7905536,32.2050243 98.8444021,32.3224615 C98.905614,32.4684417 98.935187,32.625902 98.9311447,32.784318 C98.9388679,32.9566629 98.9039505,33.1282397 98.829532,33.2836222 C98.7692009,33.4051968 98.6848672,33.5130855 98.5816961,33.6006805 C98.4784834,33.6809031 98.361798,33.7417874 98.2372041,33.78043 C98.1197533,33.8179592 97.9996119,33.8463367 97.877842,33.8653117 L99.0897597,35.8775079 L98.6386983,35.8775079 L97.4689128,33.8802908 L96.7551453,33.8802908 L96.7551453,35.8775079 L96.3586078,35.8775079 L96.3586078,31.6883451 Z M96.7452319,33.5357709 L97.5680471,33.5357709 C97.7366365,33.5416721 97.9048137,33.5154136 98.063719,33.4583787 C98.1742926,33.4169585 98.2748338,33.3522768 98.3586437,33.2686431 C98.4269652,33.1991784 98.4764571,33.1132222 98.5023886,33.018991 C98.5552663,32.865364 98.5552663,32.6982789 98.5023886,32.5446519 C98.4764571,32.4504208 98.4269652,32.3644645 98.3586437,32.2949998 C98.2748338,32.2113662 98.1742926,32.1466844 98.063719,32.1052642 C97.9045057,32.0494641 97.736559,32.0232416 97.5680471,32.027872 L96.7551453,32.027872 L96.7452319,33.5357709 Z" id="Shape"></path>
                <polygon id="Path" points="102.192665 31.6883451 102.581768 31.6883451 102.581768 35.8800044 102.192665 35.8800044"></polygon>
                <polygon id="Path" points="106.993247 32.0428511 105.570669 32.0428511 105.570669 31.6883451 108.792536 31.6883451 108.792536 32.0428511 107.372436 32.0428511 107.372436 35.8800044 106.983334 35.8800044"></polygon>
                <path d="M111.905355,35.1035863 C111.996994,35.2714818 112.134648,35.4092772 112.301893,35.5005332 C112.473382,35.5895426 112.664167,35.6341566 112.857045,35.6303523 C112.980968,35.6311876 113.10414,35.6109305 113.221364,35.5704358 C113.329884,35.5347963 113.430774,35.4788998 113.518767,35.4056654 C113.601925,35.337793 113.669555,35.2526356 113.717036,35.1560132 C113.767916,35.0502796 113.793386,34.9339701 113.791387,34.8164863 C113.796994,34.6893453 113.765085,34.5633804 113.699688,34.4544907 C113.636187,34.3580264 113.551355,34.2777003 113.451852,34.2198177 C113.342423,34.1561307 113.227036,34.1034497 113.10736,34.0625369 L112.713301,33.9327178 C112.579469,33.8902769 112.448116,33.8403465 112.319241,33.785423 C112.194603,33.7316009 112.079178,33.6582999 111.977228,33.5682257 C111.872035,33.4766348 111.787529,33.3634182 111.729392,33.2361883 C111.665341,33.0778627 111.634947,32.9077706 111.640171,32.7368841 C111.628655,32.4035397 111.778319,32.0852665 112.041665,31.8830738 C112.169134,31.7840553 112.313646,31.7095774 112.467943,31.6633799 C112.628618,31.614027 112.795636,31.5887908 112.963615,31.5884619 C113.180179,31.5873562 113.394871,31.6289131 113.595596,31.7108138 C113.795339,31.79711 113.967061,31.9380896 114.091268,32.1177468 L113.75669,32.3673989 C113.66921,32.2363114 113.550854,32.1290962 113.412198,32.0553338 C113.267469,31.9835328 113.107531,31.9483971 112.946266,31.9529764 C112.82468,31.9515145 112.703558,31.9683434 112.586904,32.0029068 C112.480357,32.0330988 112.380337,32.0830519 112.291979,32.1502016 C112.206017,32.2165033 112.136459,32.3019515 112.088754,32.3998537 C112.035007,32.5073304 112.008607,32.6265734 112.011925,32.7468702 C111.999786,32.923007 112.056739,33.0969099 112.17054,33.2311953 C112.282389,33.346983 112.417616,33.4372276 112.567077,33.4958266 C112.736013,33.5640393 112.909008,33.621571 113.085054,33.6680865 C113.263453,33.7148852 113.436294,33.7810126 113.600553,33.8653117 C113.757954,33.9480058 113.893803,34.0668889 113.997091,34.2123282 C114.113057,34.3950168 114.168585,34.6100174 114.155706,34.8264724 C114.158361,34.9986395 114.122798,35.1692292 114.051615,35.3257767 C113.983793,35.4679645 113.886625,35.5939325 113.766603,35.6952618 C113.644622,35.7973848 113.504034,35.8745541 113.352717,35.9224453 C113.192775,35.9752414 113.025349,36.0013825 112.857045,35.9998374 C112.597178,36.0032134 112.339284,35.9539735 112.098667,35.8550392 C111.860084,35.751476 111.654942,35.5828735 111.50634,35.3682175 L111.905355,35.1035863 Z" id="Path"></path>
            </g>
        </g>
    </g>
</svg>