<?xml version="1.0" encoding="UTF-8"?>
<svg width="625px" height="557px" viewBox="0 0 625 557" version="1.1" xmlns="http://www.w3.org/2000/svg" xmlns:xlink="http://www.w3.org/1999/xlink">
    <title>Moët &amp; Chandon Logo</title>
    <defs>
        <polygon id="path-1" points="0.385926132 8.8395779 481.304782 8.8395779 481.304782 42.6989725 0.385926132 42.6989725"></polygon>
        <polygon id="path-3" points="0.60613163 0.0933074146 132.609997 0.0933074146 132.609997 153.117467 0.60613163 153.117467"></polygon>
        <polygon id="path-5" points="0 548.201477 623.940461 548.201477 623.940461 0.00175506804 0 0.00175506804"></polygon>
    </defs>
    <g id="Export" stroke="none" stroke-width="1" fill="none" fill-rule="evenodd" opacity="0.150095385">
        <g id="Moët-&amp;-Chandon-Logo">
            <path d="M566.846276,402.607076 C560.277434,409.424738 552.812841,410.220961 552.315201,409.872613 C550.772519,408.976862 555.400567,399.919822 555.400567,399.919822 C555.400567,399.919822 553.708592,397.381861 552.613785,395.98847 C551.41945,394.644843 547.886209,391.559478 547.886209,391.559478 C547.886209,391.559478 551.91709,390.066559 555.599622,390.464671 C559.132863,390.862783 560.974129,393.151924 561.023893,393.301216 C561.173185,393.002633 561.869881,392.156645 563.860439,389.917267 C569.234946,383.746537 573.31559,379.367309 573.31559,379.367309 C573.31559,379.367309 572.419839,397.083277 566.846276,402.607076 M451.941305,348.862005 C451.941305,348.862005 449.652163,347.020739 446.069159,345.079944 C442.884265,343.288442 437.360467,341.74576 437.360467,341.74576 C437.360467,341.74576 442.088042,337.814407 448.756412,338.162755 C453.085876,338.262283 454.927142,339.506382 454.927142,339.506382 C454.927142,339.506382 454.578795,338.262283 457.763688,330.698162 C461.94386,320.397023 470.553024,311.539039 470.553024,311.539039 C470.553024,311.539039 472.344527,323.681444 469.507981,334.480222 C467.368131,342.442455 466.372852,343.437734 466.372852,343.437734 C466.372852,343.437734 468.61223,343.63679 472.145471,345.726876 C477.918089,349.110825 479.31148,355.331319 479.31148,355.331319 C479.31148,355.331319 474.285321,353.639345 470.353968,352.843121 C466.671436,352.146426 463.337251,352.544538 463.337251,352.544538 C463.337251,352.544538 456.071713,363.741427 453.732808,362.198745 C451.24461,362.198745 451.941305,348.862005 451.941305,348.862005 M311.855773,342.790803 L311.855773,342.790803 C308.073713,342.790803 305.336695,329.006187 305.336695,329.006187 C305.336695,329.006187 301.753691,327.66256 297.872102,327.115157 C293.592402,326.717045 287.371908,326.866337 287.371908,326.866337 C287.371908,326.866337 291.353024,321.193246 298.319978,319.799856 C302.699206,318.705049 305.336695,319.152924 305.336695,319.152924 C305.336695,319.152924 304.440944,319.252452 305.13764,310.79258 C305.884099,299.695218 311.706482,288.3988 311.855773,288.199745 C312.005065,288.3988 317.827448,299.695218 318.673435,310.79258 C319.270603,319.252452 318.424615,319.152924 318.424615,319.152924 C318.424615,319.152924 320.962577,318.705049 325.391569,319.700328 C332.95569,321.193246 336.439167,326.866337 336.439167,326.866337 C336.439167,326.866337 330.3182,326.567753 325.938973,327.115157 C321.7588,327.811852 318.374851,329.006187 318.374851,329.006187 C318.374851,329.006187 315.787126,342.790803 311.855773,342.790803 M169.978739,362.099217 C167.689597,363.641899 160.42406,352.395246 160.42406,352.395246 C160.42406,352.395246 156.741527,352.146426 153.407342,352.693829 C149.874102,353.340761 144.499595,355.231791 144.499595,355.231791 C144.499595,355.231791 146.689209,348.662949 151.765132,345.627348 C155.348137,343.537262 157.687042,343.288442 157.687042,343.288442 C157.687042,343.288442 156.343416,342.293163 154.303094,334.33093 C151.566076,323.63168 153.208287,311.339983 153.208287,311.339983 C153.208287,311.339983 161.966743,320.297495 166.047387,330.54887 C169.282044,338.212519 168.834168,339.854729 168.834168,339.854729 C168.834168,339.854729 170.824726,338.85945 174.955135,338.361811 C181.324921,337.665115 186.450608,341.695996 186.450608,341.695996 C186.450608,341.695996 181.374685,342.940094 177.642388,344.930653 C174.706315,346.572863 171.770242,348.712713 171.770242,348.712713 C171.770242,348.712713 172.665993,362.099217 169.978739,362.099217 M71.1475257,395.888942 C70.1024826,397.381861 68.4602721,399.919822 68.4602721,399.919822 C68.4602721,399.919822 73.038556,408.976862 71.4461094,409.822849 C71.0977617,410.220961 63.5834046,409.424738 56.8652708,402.607076 C51.3414718,397.083277 50.4457206,379.367309 50.4457206,379.367309 C50.4457206,379.367309 54.5761289,383.746537 59.900872,389.917267 C63.7326965,394.246731 63.0360011,393.500272 63.0360011,393.500272 C63.0360011,393.500272 65.5739628,391.012074 69.1072036,390.464671 C72.5409164,389.917267 75.8751014,391.559478 75.8751014,391.559478 C75.8751014,391.559478 72.2920966,394.644843 71.1475257,395.888942 M602.427503,351.350203 C594.863382,351.350203 590.782738,353.141705 583.517201,360.50677 C577.197179,366.826793 568.289431,376.381472 568.289431,376.381472 L562.516812,369.762866 C560.426726,366.329153 558.038056,356.376362 562.715868,352.693829 C563.959967,351.599022 563.213507,350.703271 562.019172,350.703271 C562.019172,350.703271 556.047498,350.05634 551.319922,357.023294 C547.736918,362.099217 546.492819,367.324432 546.492819,367.324432 C546.492819,367.324432 539.724921,366.777029 534.499706,372.002244 C527.532752,378.969197 529.473546,390.365143 529.473546,390.365143 C529.473546,390.365143 522.357301,396.038234 520.615562,399.969586 C516.93303,408.877334 520.615562,416.043344 520.615562,416.043344 C521.312258,417.187914 522.357301,417.436734 522.954468,416.043344 C525.193846,410.768364 530.717645,406.886776 536.291208,406.737484 C544.850608,406.68772 547.935973,408.528986 547.886209,410.867892 C547.537862,413.306326 537.037667,425.996134 524.795735,425.996134 C515.390347,425.996134 510.01584,423.109825 506.23378,416.789803 C501.108092,408.379695 502.053607,402.009908 502.053607,402.009908 C502.053607,402.009908 512.454274,403.502827 518.376184,389.767976 C522.954468,379.018961 520.018395,371.852952 515.788459,369.464282 C510.314424,366.528209 501.655496,371.106493 497.574851,379.068725 C490.906482,392.405465 496.131697,399.272891 496.131697,399.272891 C496.131697,399.272891 486.079378,414.799245 465.97474,407.633235 C447.462549,401.064393 456.569353,366.528209 456.569353,366.528209 C456.569353,366.528209 461.894096,365.085054 464.233002,366.528209 C466.970019,368.070891 467.666715,374.589969 470.105149,379.964477 C471.846887,383.945593 475.230836,390.315379 479.211952,390.315379 C481.94897,390.315379 486.875601,380.860228 487.373241,373.544926 C494.78807,372.002244 500.809508,367.075612 498.321311,352.992413 C498.321311,352.992413 507.229059,343.288442 506.034724,336.868892 C505.885432,335.923377 501.108092,333.883055 493.991847,334.977862 C486.825837,335.873613 476.773518,339.605909 476.773518,339.605909 C476.773518,339.605909 476.972574,333.634235 478.913369,331.444621 C480.854163,329.454063 491.155301,321.939706 494.190903,317.46095 C497.027448,313.081722 500.909036,306.363588 497.724143,304.37303 C494.53925,302.382472 488.418284,300.889553 484.33764,300.740261 C484.33764,300.740261 481.550858,296.410797 476.773518,294.718823 L476.126587,294.420239 C471.349247,292.877556 466.47238,294.519767 466.47238,294.519767 C463.088431,291.882277 457.365576,289.543371 453.583516,289.095496 C449.751691,288.697384 448.408064,296.261505 447.810897,301.536484 C447.313257,306.662172 451.145082,320.197967 451.543194,323.034513 C451.692485,325.821294 448.209009,330.847453 448.209009,330.847453 C448.209009,330.847453 444.227892,320.148203 439.550081,314.57464 C434.922033,309.150369 430.343749,307.956034 428.701538,308.304382 C426.163577,308.851786 422.082933,319.003632 422.779628,327.811852 C412.428725,333.484943 413.473768,344.980417 415.862438,350.753035 C412.528253,356.028014 410.040056,366.528209 412.727309,370.360033 C414.269992,372.549647 422.481044,371.504604 429.647054,367.523488 C434.922033,364.637179 439.351025,359.611019 442.336862,359.810075 C445.322699,360.108659 448.756412,364.239067 448.756412,364.239067 C448.756412,364.239067 434.324865,391.559478 416.50937,391.808298 C401.779239,391.907826 396.205676,385.28922 396.205676,385.28922 C388.741083,379.267781 388.143916,371.554368 388.143916,371.554368 C388.143916,371.554368 400.336084,367.374196 401.829003,351.897606 C402.973574,339.854729 395.956856,333.634235 389.83589,332.838012 C382.222005,331.94226 374.11048,339.406854 372.617562,348.712713 C369.980072,364.139539 380.082155,369.961922 380.082155,369.961922 C380.082155,369.961922 374.906704,388.623405 351.965521,386.831902 C341.216507,386.035679 337.23539,384.592524 328.67599,378.222738 C316.981461,369.56381 316.434057,346.722155 316.434057,346.722155 C316.434057,346.722155 322.355968,343.686554 326.0385,344.482777 C329.621505,345.179472 332.408287,351.599022 337.882322,356.077778 C343.90376,361.00441 350.223782,366.279389 357.140972,365.582694 C360.425393,365.433402 363.560522,350.902327 360.972796,343.537262 C367.541638,336.669836 368.039278,325.721766 363.013119,318.306937 C363.013119,318.306937 367.342583,303.029403 363.361466,298.252063 C362.316423,296.908437 357.638611,295.863394 349.676379,299.84451 C341.863438,303.775862 330.417728,313.778417 330.417728,313.778417 C330.417728,313.778417 328.476934,307.90627 329.920089,305.219017 C331.512535,302.681055 339.12642,289.195024 340.818395,283.87028 C342.609897,278.645065 344.500928,270.633069 339.723588,269.836845 C335.34436,268.841566 327.581183,269.538262 322.803843,271.329764 C320.514701,269.538262 316.235001,266.900772 311.855773,266.900772 C307.625837,266.900772 303.296373,269.538262 301.056995,271.329764 C296.180128,269.538262 288.516479,268.841566 283.938195,269.836845 C279.310147,270.633069 281.250941,278.645065 282.99268,283.87028 C284.734418,289.195024 292.199011,302.681055 293.791458,305.219017 C295.383904,307.90627 293.393346,313.778417 293.393346,313.778417 C293.393346,313.778417 281.947637,303.775862 274.084932,299.84451 C266.222227,295.863394 261.494651,296.908437 260.399844,298.252063 C256.468492,303.029403 260.84772,318.306937 260.84772,318.306937 C255.722033,325.721766 256.269436,336.669836 262.888042,343.537262 C260.350081,350.802799 263.435446,365.383638 266.769631,365.582694 C273.637056,366.279389 279.907315,361.00441 285.978517,356.077778 C291.353024,351.599022 294.18957,345.179472 297.772574,344.482777 C301.504871,343.686554 307.327254,346.722155 307.327254,346.722155 C307.327254,346.722155 306.730086,369.56381 295.234613,378.222738 C286.575685,384.592524 282.594568,386.035679 271.895318,386.831902 C249.003899,388.623405 243.629392,369.961922 243.629392,369.961922 C243.629392,369.961922 253.93053,364.139539 251.342805,348.712713 C249.750358,339.406854 241.688598,331.94226 233.875657,332.838012 C227.854218,333.584471 220.787737,339.854729 221.882544,351.897606 C223.524754,367.374196 235.617395,371.554368 235.617395,371.554368 C235.617395,371.554368 235.16952,379.267781 227.655162,385.28922 C227.655162,385.28922 222.031836,391.907826 207.351469,391.808298 C189.535973,391.559478 175.004899,364.239067 175.004899,364.239067 C175.004899,364.239067 178.438611,360.108659 181.374685,359.810075 C184.410286,359.611019 188.889042,364.537651 194.164021,367.523488 C201.429558,371.504604 209.491319,372.549647 211.13353,370.360033 C213.771019,366.528209 211.233057,356.028014 207.898873,350.753035 C210.38707,344.980417 211.382349,333.484943 201.031447,327.811852 C201.728142,319.003632 197.697262,308.851786 195.109536,308.304382 C193.566854,307.956034 188.889042,309.150369 184.21123,314.57464 C179.632946,320.098439 175.502538,330.847453 175.502538,330.847453 C175.502538,330.847453 172.019061,325.821294 172.267881,323.034513 C172.665993,320.197967 176.547581,306.662172 176.049942,301.536484 C175.40301,296.261505 174.109147,288.697384 170.277323,289.095496 C166.545026,289.543371 160.722644,291.882277 157.388459,294.519767 C157.388459,294.519767 152.511591,292.877556 147.684488,294.420239 L146.888264,294.718823 C142.309981,296.410797 139.622727,300.740261 139.622727,300.740261 C135.343027,300.889553 129.222061,302.382472 126.086931,304.37303 C123.001566,306.363588 126.833391,313.081722 129.769464,317.46095 C132.655773,321.939706 142.907148,329.454063 144.897706,331.444621 C146.788736,333.634235 146.888264,339.605909 146.888264,339.605909 C146.888264,339.605909 137.035001,335.873613 129.819228,334.977862 C122.603455,333.883055 118.025171,335.923377 117.826115,336.868892 C116.63178,343.288442 125.44,352.892885 125.44,352.892885 C123.101094,367.075612 129.023005,371.95248 136.487598,373.544926 C136.985237,380.860228 141.862105,390.315379 144.648886,390.315379 C148.729531,390.315379 151.914424,383.945593 153.705926,379.964477 C156.044832,374.589969 156.890819,368.070891 159.478545,366.528209 C161.966743,365.085054 167.391014,366.528209 167.391014,366.528209 C167.391014,366.528209 176.348525,401.064393 157.886098,407.583471 C137.681933,414.799245 127.679378,399.272891 127.679378,399.272891 C127.679378,399.272891 132.904593,392.405465 126.236223,379.068725 C122.105815,371.106493 113.446887,366.528209 108.122144,369.464282 C103.742916,371.852952 100.757079,379.018961 105.484654,389.767976 C111.356801,403.502827 121.657939,401.960144 121.657939,401.960144 C121.657939,401.960144 122.603455,408.379695 117.676823,416.690275 C113.745471,423.109825 108.470492,425.996134 99.1148681,425.996134 C86.8729353,425.996134 76.1239211,413.306326 75.8751014,410.867892 C75.7755735,408.528986 78.9604665,406.68772 87.5198667,406.737484 C93.0436656,406.886776 98.6172285,410.768364 100.856606,416.043344 C101.453774,417.436734 102.598345,417.187914 103.195512,416.043344 C103.195512,416.043344 106.977573,408.877334 103.195512,399.969586 C101.453774,396.038234 94.3375285,390.365143 94.3375285,390.365143 C94.3375285,390.365143 96.3778506,378.86967 89.361133,371.95248 C84.2354457,366.777029 77.2684921,367.324432 77.2684921,367.324432 C77.2684921,367.324432 76.0741572,362.099217 72.4413885,357.023294 C67.8133407,350.106104 61.8416662,350.603743 61.8416662,350.603743 C60.6970953,350.603743 59.8013441,351.599022 61.1947348,352.693829 C65.7730186,356.376362 63.4341127,366.329153 61.2942627,369.762866 L55.5714079,376.281944 C55.5714079,376.281944 46.6636601,366.826793 40.3934018,360.50677 C32.9785726,353.141705 28.8481644,351.350203 21.4333352,351.350203 C10.734085,351.350203 7.59895585,359.959367 7.59895585,359.959367 C7.59895585,359.959367 15.113313,357.769753 24.8172841,364.537651 C30.390847,368.469003 44.0261705,381.805743 44.0261705,381.805743 C42.7323077,400.666282 49.002566,414.351369 67.2161733,416.093107 L79.0102305,431.868281 L544.850608,431.868281 L556.594901,416.192635 C574.858273,414.351369 581.128531,400.666282 579.73514,381.805743 C579.73514,381.805743 593.420228,368.469003 598.944027,364.537651 C608.697762,357.769753 616.162355,359.959367 616.162355,359.959367 C616.162355,359.959367 613.07699,351.350203 602.427503,351.350203" id="Fill-1" fill="#B39759"></path>
            <g id="Group-5" transform="translate(70.980561, 505.502505)">
                <mask id="mask-2" fill="white">
                    <use xlink:href="#path-1"></use>
                </mask>
                <g id="Clip-4"></g>
                <path d="M472.09845,42.604421 L9.54249375,42.604421 L9.44296584,42.604421 C4.41680644,42.604421 0.385926132,38.6730686 0.385926132,33.6469092 C0.385926132,28.6705137 4.41680644,24.7391613 9.44296584,24.7391613 L9.54249375,24.7391613 L472.09845,24.7391613 L472.297506,24.7391613 C477.323666,24.7391613 481.304782,28.6705137 481.304782,33.6469092 C481.304782,38.6730686 477.323666,42.7039489 472.297506,42.7039489 L472.09845,42.604421 Z" id="Fill-3" fill="#B39759" mask="url(#mask-2)"></path>
            </g>
            <path d="M543.079011,458.979683 L543.278067,458.979683 C548.304227,458.979683 552.285343,454.998567 552.285343,449.922644 C552.285343,445.045776 548.304227,441.06466 543.278067,441.06466 L543.079011,441.06466 L80.5230547,441.06466 L80.4235268,441.06466 C75.3973674,441.06466 71.3664871,445.045776 71.3664871,449.922644 C71.3664871,454.998567 75.3973674,458.979683 80.4235268,458.979683 L80.5230547,458.979683 L543.079011,458.979683 Z" id="Fill-6" fill="#B39759"></path>
            <path d="M184.574507,305.945571 C188.505859,300.770119 194.129186,298.331686 196.020217,297.834046 C196.169508,296.440655 196.766676,289.07559 190.546182,273.549236 C184.873091,259.366509 179.598112,240.655262 190.39689,224.730797 C204.181505,204.228048 231.103804,205.322855 248.570953,205.123799 C248.570953,205.123799 254.393335,204.974507 254.691919,204.974507 C266.933852,204.825215 276.189947,203.282533 282.559733,200.844099 C275.990891,219.007942 276.389003,244.188503 282.410442,262.750458 C285.595335,261.904471 292.014885,262.153291 296.394113,262.451874 C287.237545,241.998889 290.123854,212.140517 300.026881,184.471758 L294.353791,184.521522 C294.204499,184.521522 281.365399,191.687531 253.049708,192.135407 L251.357734,192.135407 C230.058761,192.68281 196.866204,190.941072 178.453541,218.460539 C164.768453,238.764232 171.785171,262.203055 177.508026,275.788614 C183.280644,289.374174 184.823327,293.653874 184.574507,305.945571 M327.44682,262.451874 C331.776284,262.153291 338.245598,261.904471 341.380728,262.750458 C347.501694,244.188503 347.800278,219.007942 341.2812,200.844099 C347.601222,203.282533 356.907081,204.825215 369.149014,204.974507 C369.397834,204.974507 375.269981,205.123799 375.269981,205.123799 C392.786893,205.422383 419.758956,204.228048 433.593335,224.730797 C444.242821,240.655262 438.868314,259.366509 433.294751,273.549236 C427.173785,289.07559 427.721189,296.440655 427.820716,297.834046 C429.761511,298.331686 435.484365,300.770119 439.365954,305.945571 C439.117134,293.653874 440.659817,289.374174 446.432435,275.788614 C452.105526,262.203055 459.271536,238.764232 445.387392,218.460539 C426.924965,190.941072 393.782172,192.68281 372.483199,192.135407 L370.890753,192.135407 C342.575062,191.687531 329.636434,184.521522 329.536906,184.521522 L323.814052,184.471758 C333.717079,212.140517 336.653152,241.998889 327.44682,262.451874" id="Fill-8" fill="#B39759"></path>
            <path d="M561.013941,250.399045 C548.224604,237.858528 529.513357,227.358334 498.261594,224.173441 C501.993891,227.905737 503.536573,232.533785 503.536573,237.858528 L504.432324,238.00782 C538.719689,241.590825 567.184671,263.984604 567.781838,301.506626 C567.980894,310.36461 566.28892,324.149225 563.104027,334.500128 C561.611108,339.327231 561.561344,339.625815 560.964177,341.168498 C565.343405,342.860472 569.473813,344.900794 571.962011,352.614207 C573.007054,349.479078 572.061538,352.464915 573.604221,347.687576 C581.466926,323.004654 590.772785,279.461194 561.013941,250.399045 M119.309081,238.00782 L120.403888,237.808764 C120.403888,232.533785 121.847042,227.756445 125.529575,224.173441 C94.1782838,227.258806 75.4670369,237.858528 62.6777006,250.399045 C33.0183838,279.461194 42.2744793,323.004654 50.1869481,347.687576 C51.8789225,352.464915 50.7343516,349.479078 51.9784504,352.614207 C55.0638156,344.60221 58.5472924,342.860472 62.7274646,341.06897 C62.279589,339.625815 62.1800611,339.327231 60.7866704,334.500128 C57.4524854,324.149225 55.9595668,310.36461 56.0590947,301.506626 C56.5567342,263.984604 84.9719522,241.590825 119.309081,238.00782" id="Fill-10" fill="#B39759"></path>
            <path d="M131.944149,205.397501 C131.944149,198.281255 126.121766,192.5584 118.955757,192.5584 C111.988803,192.5584 106.16642,198.281255 106.16642,205.397501 C106.16642,212.513746 111.988803,218.236601 118.955757,218.236601 C126.121766,218.236601 131.944149,212.513746 131.944149,205.397501 M99.3985226,212.911858 C99.3985226,205.497029 93.3770841,199.425826 86.0120189,199.425826 C78.4976618,199.425826 72.4762233,205.497029 72.4762233,212.911858 C72.4762233,220.376451 78.4976618,226.497417 86.0120189,226.497417 C93.3770841,226.497417 99.3985226,220.376451 99.3985226,212.911858 M68.395579,228.189392 C68.395579,220.426215 62.1253207,214.255485 54.4616718,214.255485 C46.6487309,214.255485 40.3784726,220.426215 40.3784726,228.189392 C40.3784726,235.853041 46.6487309,242.222827 54.4616718,242.222827 C62.1253207,242.222827 68.395579,235.853041 68.395579,228.189392 M43.9614774,254.962399 C43.9614774,246.751347 37.3926354,240.082977 29.1318189,240.082977 C20.9705304,240.082977 14.3021605,246.751347 14.3021605,254.962399 C14.3021605,263.223216 20.9705304,269.94135 29.1318189,269.94135 C37.3926354,269.94135 43.9614774,263.223216 43.9614774,254.962399 M37.5916912,330.85243 C37.5916912,322.740905 30.9730853,316.172063 22.7620328,316.172063 C14.6505082,316.122299 8.13143016,322.740905 8.13143016,330.85243 C8.13143016,339.063482 14.6505082,345.532796 22.7620328,345.532796 C30.9730853,345.532796 37.5916912,339.063482 37.5916912,330.85243 M32.6650597,292.982061 C32.6650597,301.989336 25.2999944,309.304638 16.2927187,309.304638 C7.23567898,309.304638 0.0199055818,301.989336 0.0199055818,292.982061 C0.0199055818,283.925021 7.23567898,276.659483 16.2927187,276.659483 C25.2999944,276.659483 32.6650597,283.925021 32.6650597,292.982061" id="Fill-12" fill="#B39759"></path>
            <g id="Group-16" transform="translate(491.330464, 192.544715)">
                <mask id="mask-4" fill="white">
                    <use xlink:href="#path-3"></use>
                </mask>
                <g id="Clip-15"></g>
                <path d="M0.60613163,12.7831158 C0.60613163,19.9988892 6.4285143,25.67198 13.4452319,25.67198 C20.5614774,25.67198 26.38386,19.9988892 26.38386,12.7831158 C26.38386,5.81616218 20.5614774,0.0933074146 13.4452319,0.0933074146 C6.4285143,0.0933074146 0.60613163,5.81616218 0.60613163,12.7831158 M33.1019939,20.3472369 C33.1019939,27.81183 39.0736684,33.8830325 46.4884976,33.8830325 C54.0028548,33.8830325 60.0242933,27.81183 60.0242933,20.3472369 C60.0242933,12.9324077 54.0028548,6.91096918 46.4884976,6.91096918 C39.0736684,6.91096918 33.1019939,12.9324077 33.1019939,20.3472369 M64.1547015,35.6745349 C64.1547015,43.3879478 70.3254318,49.6582061 78.1383727,49.6582061 C85.8517856,49.6582061 92.1220439,43.3879478 92.1220439,35.6745349 C92.1220439,27.911358 85.8517856,21.6410997 78.1383727,21.6410997 C70.3254318,21.6410997 64.1547015,27.911358 64.1547015,35.6745349 M88.4892752,62.4475423 C88.4892752,70.7581227 95.2074091,77.3269647 103.368698,77.3269647 C111.679278,77.3269647 118.347648,70.7581227 118.347648,62.4475423 C118.347648,54.2364899 111.679278,47.6676479 103.368698,47.6676479 C95.2074091,47.6676479 88.4892752,54.2364899 88.4892752,62.4475423 M94.9088253,138.337573 C94.9088253,146.498861 101.527431,153.117467 109.68872,153.117467 C117.850008,153.117467 124.518378,146.498861 124.518378,138.337573 C124.518378,130.176284 117.850008,123.557678 109.68872,123.557678 C101.527431,123.557678 94.9088253,130.176284 94.9088253,138.337573 M99.9847487,100.467204 C99.9847487,109.524243 107.150758,116.740017 116.207798,116.740017 C125.364365,116.740017 132.629903,109.524243 132.629903,100.467204 C132.629903,91.4599278 125.364365,84.0450986 116.207798,84.0450986 C107.150758,84.0450986 99.9847487,91.4599278 99.9847487,100.467204" id="Fill-14" fill="#B39759" mask="url(#mask-4)"></path>
            </g>
            <path d="M253.925554,174.58366 C253.925554,168.611986 249.048686,163.834646 243.17654,163.834646 C237.204865,163.834646 232.377762,168.611986 232.377762,174.58366 C232.377762,180.455807 237.204865,185.233146 243.17654,185.233146 C249.048686,185.233146 253.925554,180.455807 253.925554,174.58366 M226.306559,176.524454 C226.306559,169.955612 221.03158,164.581105 214.36321,164.581105 C207.844132,164.581105 202.419861,169.955612 202.419861,176.524454 C202.419861,183.093296 207.844132,188.418039 214.36321,188.418039 C221.03158,188.418039 226.306559,183.093296 226.306559,176.524454 M198.289453,184.785271 C198.289453,177.22115 192.168487,171.000655 184.455074,171.000655 C176.741661,171.000655 170.521166,177.22115 170.521166,184.785271 C170.521166,192.399156 176.741661,198.669414 184.455074,198.669414 C192.168487,198.669414 198.289453,192.399156 198.289453,184.785271 M173.855351,206.681411 C173.855351,198.569886 167.386037,192.150336 159.274513,192.150336 C151.362044,192.150336 144.793202,198.569886 144.793202,206.681411 C144.793202,214.643643 151.362044,221.162721 159.274513,221.162721 C167.386037,221.162721 173.855351,214.643643 173.855351,206.681411 M161.663182,239.077745 C161.663182,230.667637 154.845521,223.849975 146.435412,223.849975 C138.075068,223.849975 131.207642,230.667637 131.207642,239.077745 C131.207642,247.587381 138.075068,254.405043 146.435412,254.405043 C154.845521,254.405043 161.663182,247.587381 161.663182,239.077745 M156.288675,288.09524 C163.90256,285.407987 167.833913,276.699295 164.897839,268.886354 C162.111058,260.924121 153.651186,256.793713 146.037301,259.580494 C138.47318,262.317512 134.442299,270.97644 137.278845,278.988437 C140.11539,286.801377 148.724554,290.882022 156.288675,288.09524 M268.506393,183.242588 C273.482788,183.242588 277.314613,179.361 277.314613,174.484132 C277.314613,169.706793 273.482788,165.77544 268.506393,165.77544 C263.629525,165.77544 259.548881,169.706793 259.548881,174.484132 C259.548881,179.361 263.629525,183.242588 268.506393,183.242588" id="Fill-17" fill="#B39759"></path>
            <path d="M370.02486,174.58366 C370.02486,180.505571 374.951491,185.233146 380.823638,185.233146 C386.695785,185.233146 391.572652,180.505571 391.572652,174.58366 C391.572652,168.711513 386.695785,163.834646 380.823638,163.834646 C374.951491,163.834646 370.02486,168.711513 370.02486,174.58366 M397.693618,176.524454 C397.693618,183.093296 402.968598,188.418039 409.53744,188.418039 C416.156046,188.418039 421.580317,183.093296 421.580317,176.524454 C421.580317,169.955612 416.156046,164.581105 409.53744,164.581105 C402.968598,164.581105 397.693618,169.955612 397.693618,176.524454 M425.561433,184.884799 C425.561433,192.44892 431.831691,198.669414 439.49534,198.669414 C447.158989,198.669414 453.379483,192.44892 453.379483,184.884799 C453.379483,177.22115 447.158989,171.000655 439.49534,171.000655 C431.831691,171.000655 425.561433,177.22115 425.561433,184.884799 M450.045299,206.681411 C450.045299,214.643643 456.564377,221.162721 464.626137,221.162721 C472.638134,221.162721 479.107448,214.643643 479.107448,206.681411 C479.107448,198.569886 472.638134,192.150336 464.626137,192.150336 C456.564377,192.150336 450.045299,198.569886 450.045299,206.681411 M462.237467,239.127509 C462.237467,247.587381 469.005365,254.405043 477.465237,254.405043 C485.92511,254.405043 492.792535,247.587381 492.792535,239.127509 C492.792535,230.667637 485.92511,223.899739 477.465237,223.899739 C469.005365,223.899739 462.237467,230.667637 462.237467,239.127509 M467.661738,288.09524 C475.275623,290.882022 483.78526,286.801377 486.671569,278.988437 C489.508114,270.97644 485.626526,262.466804 477.962877,259.680022 C470.398756,256.793713 461.88912,260.973885 458.953046,268.886354 C456.166265,276.749059 459.898562,285.407987 467.661738,288.09524 M346.23769,174.484132 C346.23769,179.361 350.26857,183.242588 355.294729,183.242588 C360.121833,183.242588 364.202477,179.361 364.202477,174.484132 C364.202477,169.706793 360.121833,165.77544 355.294729,165.77544 C350.26857,165.77544 346.23769,169.706793 346.23769,174.484132" id="Fill-19" fill="#B39759"></path>
            <path d="M321.281066,194.364832 C321.281066,189.189381 316.951602,185.058973 311.975207,185.058973 C306.749992,185.058973 302.619583,189.189381 302.619583,194.364832 C302.619583,199.540283 306.749992,203.670691 311.975207,203.670691 C316.951602,203.670691 321.281066,199.540283 321.281066,194.364832 M325.112891,249.45353 C325.112891,242.237756 319.240744,236.216318 312.024971,236.216318 C304.659906,236.216318 298.887287,242.237756 298.887287,249.45353 C298.887287,256.719067 304.659906,262.591214 312.024971,262.591214 C319.240744,262.591214 325.112891,256.719067 325.112891,249.45353 M323.321389,219.993269 C323.321389,213.673246 318.195701,208.497795 311.975207,208.497795 C305.605421,208.497795 300.479733,213.673246 300.479733,219.993269 C300.479733,226.263527 305.605421,231.389214 311.975207,231.389214 C318.195701,231.389214 323.321389,226.263527 323.321389,219.993269" id="Fill-21" fill="#B39759"></path>
            <polygon id="Fill-23" fill="#B39759" points="295.622771 0.0216606498 328.267926 0.0216606498 321.002388 28.2875868 345.983893 20.2258262 345.983893 53.3686198 321.002388 46.2523743 321.002388 76.5088587 302.838545 76.5088587 302.838545 46.2523743 277.85704 53.3686198 277.85704 20.2258262 302.888309 28.2875868"></polygon>
            <path d="M302.813663,76.563599 L302.813663,114.83208 C289.228103,115.379483 275.990891,116.97193 263.151791,119.659184 C265.192113,98.0118634 281.663982,80.4949514 302.813663,76.563599" id="Fill-25" fill="#B39759"></path>
            <path d="M320.987459,76.613363 C342.087376,80.4949514 358.409953,98.0118634 360.649331,119.659184 C347.81023,116.97193 334.473491,115.379483 320.987459,114.83208 L320.987459,76.613363 Z" id="Fill-27" fill="#B39759"></path>
            <path d="M359.529642,135.99669 C354.304427,157.594246 335.045776,173.717767 311.855773,173.717767 C288.665771,173.717767 269.257828,157.693774 264.181905,135.99669 C279.509203,132.612741 295.533196,130.821239 311.855773,130.821239 C328.17835,130.821239 344.102816,132.612741 359.529642,135.99669" id="Fill-29" fill="#B39759"></path>
            <mask id="mask-6" fill="white">
                <use xlink:href="#path-5"></use>
            </mask>
            <g id="Clip-32"></g>
            <path d="M495.648986,505.205421 L526.353346,505.205421 L526.353346,484.354324 L495.648986,484.354324 L495.648986,505.205421 Z M446.084088,507.992202 L418.465093,494.75499 L446.084088,481.617306 L473.603555,494.75499 L446.084088,507.992202 Z M383.281977,508.838189 C375.120689,508.838189 368.303027,502.518167 368.303027,494.75499 C368.303027,487.041577 375.120689,480.771319 383.281977,480.771319 C391.443266,480.771319 398.260928,487.041577 398.260928,494.75499 C398.260928,502.518167 391.443266,508.838189 383.281977,508.838189 L383.281977,508.838189 Z M281.365399,505.205421 L342.624826,505.205421 L342.624826,484.354324 L281.365399,484.354324 L281.365399,505.205421 Z M240.509192,508.838189 C232.397667,508.838189 225.679533,502.518167 225.679533,494.75499 C225.679533,487.041577 232.397667,480.771319 240.509192,480.771319 C248.969064,480.771319 255.488142,487.041577 255.488142,494.75499 C255.488142,502.518167 248.969064,508.838189 240.509192,508.838189 L240.509192,508.838189 Z M178.204721,507.992202 L150.685254,494.75499 L178.204721,481.617306 L205.823716,494.75499 L178.204721,507.992202 Z M97.5373507,505.205421 L128.241711,505.205421 L128.241711,484.354324 L97.5373507,484.354324 L97.5373507,505.205421 Z M83.9517912,521.577762 L539.98867,521.577762 L539.98867,467.733163 L83.9517912,467.733163 L83.9517912,521.577762 Z" id="Fill-31" fill="#B39759" mask="url(#mask-6)"></path>
        </g>
    </g>
</svg>