<?xml version="1.0" encoding="UTF-8"?>
<svg width="24px" height="24px" viewBox="0 0 24 24" version="1.1" xmlns="http://www.w3.org/2000/svg" xmlns:xlink="http://www.w3.org/1999/xlink">
    <title>My Reviews</title>
    <g id="Assets" stroke="none" stroke-width="1" fill="none" fill-rule="evenodd">
        <g id="My-Reviews">
            <polygon id="Path" points="0 0 24 0 24 24 0 24"></polygon>
            <path d="M20,17 L20,5 C20,3.879 19.121,3 18,3 C16.879,3 16,3.879 16,5 L16,17 L18,19 L20,17 Z" id="Path" stroke="#000000" stroke-width="1.25" stroke-linecap="round" stroke-linejoin="round"></path>
            <line x1="16" y1="7" x2="20" y2="7" id="Path" stroke="#000000" stroke-width="1.25" stroke-linecap="round" stroke-linejoin="round"></line>
            <path d="M18,19 L5,19 C3.8954305,19 3,18.1045695 3,17 C3,15.8954305 3.8954305,15 5,15 L9,15 C10.1045695,15 11,14.1045695 11,13 C11,11.8954305 10.1045695,11 9,11 L6,11" id="Path" stroke="#000000" stroke-width="1.25" stroke-linecap="round" stroke-linejoin="round"></path>
        </g>
    </g>
</svg>