<?xml version="1.0" encoding="UTF-8"?>
<svg width="36px" height="36px" viewBox="0 0 36 36" version="1.1" xmlns="http://www.w3.org/2000/svg" xmlns:xlink="http://www.w3.org/1999/xlink">
    <title>Search Order Number</title>
    <g id="Search-Order-Number" stroke="none" stroke-width="1" fill="none" fill-rule="evenodd" stroke-linecap="round" stroke-linejoin="round">
        <g id="Group-11" transform="translate(8.000000, 6.000000)" stroke="#000000" stroke-width="2">
            <g id="Group-10">
                <path d="M19.2001,1.6512 C19.2001,1.0162 18.6851,0.5012 18.0501,0.5012 L1.9501,0.5012 C1.3151,0.5012 0.8001,1.0162 0.8001,1.6512 L0.8001,22.1112 C0.8001,22.6242 1.4191,22.8802 1.7821,22.5182 L3.4601,20.8402 C3.6841,20.6152 4.0491,20.6152 4.2731,20.8402 L6.5271,23.0932 C6.7511,23.3182 7.1151,23.3182 7.3401,23.0932 L9.5931,20.8402 C9.8181,20.6152 10.1821,20.6152 10.4071,20.8402 L12.6601,23.0932 C12.8851,23.3182 13.2481,23.3182 13.4731,23.0932 L15.7261,20.8402 C15.9511,20.6152 16.3151,20.6152 16.5401,20.8402 L18.2181,22.5182 C18.5801,22.8802 19.2001,22.6242 19.2001,22.1112 L19.2001,1.6512 Z" id="Stroke-2"></path>
                <line x1="5.3998" y1="9.7029" x2="14.5998" y2="9.7029" id="Stroke-4"></line>
                <line x1="5.3998" y1="5.1028" x2="9.9998" y2="5.1028" id="Stroke-6"></line>
                <line x1="5.3998" y1="14.303" x2="14.5998" y2="14.303" id="Stroke-8"></line>
            </g>
        </g>
    </g>
</svg>