<?xml version="1.0" encoding="UTF-8"?>
<svg width="24px" height="24px" viewBox="0 0 24 24" version="1.1" xmlns="http://www.w3.org/2000/svg" xmlns:xlink="http://www.w3.org/1999/xlink">
    <title>Print</title>
    <g id="Assets" stroke="none" stroke-width="1" fill="none" fill-rule="evenodd">
        <g id="Print">
            <polygon id="Path" points="0 0 24 0 24 24 0 24"></polygon>
            <path d="M17,17 L19,17 C20.1045695,17 21,16.1045695 21,15 L21,11 C21,9.8954305 20.1045695,9 19,9 L5,9 C3.8954305,9 3,9.8954305 3,11 L3,15 C3,16.1045695 3.8954305,17 5,17 L7,17" id="Path" stroke="#000000" stroke-width="1.25" stroke-linecap="round" stroke-linejoin="round"></path>
            <path d="M17,9 L17,5 C17,3.8954305 16.1045695,3 15,3 L9,3 C7.8954305,3 7,3.8954305 7,5 L7,9" id="Path" stroke="#000000" stroke-width="1.25" stroke-linecap="round" stroke-linejoin="round"></path>
            <rect id="Rectangle" stroke="#000000" stroke-width="1.25" stroke-linecap="round" stroke-linejoin="round" x="7" y="13" width="10" height="8" rx="2"></rect>
        </g>
    </g>
</svg>