<?xml version="1.0" encoding="UTF-8"?>
<svg width="24px" height="24px" viewBox="0 0 24 24" version="1.1" xmlns="http://www.w3.org/2000/svg" xmlns:xlink="http://www.w3.org/1999/xlink">
    <title>Start Half Filled</title>
    <g id="Assets" stroke="none" stroke-width="1" fill="none" fill-rule="evenodd">
        <g id="Start-Half-Filled">
            <polygon id="Path" points="0 0 24 0 24 24 0 24"></polygon>
            <polygon id="Path" stroke="#000000" stroke-width="1.5" fill="#000000" opacity="0.240711301" stroke-linecap="round" stroke-linejoin="round" points="12 17.75 5.828 20.995 7.007 14.122 2.007 9.255 8.907 8.255 11.993 2.002 15.079 8.255 21.979 9.255 16.979 14.122 18.158 20.995"></polygon>
            <path d="M11.3204462,1.67007918 C11.4657317,1.37569484 11.7342969,1.2458735 11.9992658,1.25104119 L11.9991793,18.595893 L6.17702165,21.6588403 C5.65736082,21.9320579 5.05486374,21.530471 5.07806368,20.9688606 L5.08879713,20.8681965 L6.2,14.384 L1.4838659,9.79242973 C1.06437774,9.38409995 1.25734859,8.68986338 1.79470379,8.53522441 L1.79470379,8.53522441 L1.8994282,8.51275455 L8.409,7.569 Z" id="Combined-Shape" fill="#000000" fill-rule="nonzero"></path>
        </g>
    </g>
</svg>