<?xml version="1.0" encoding="UTF-8"?>
<svg width="24px" height="24px" viewBox="0 0 24 24" version="1.1" xmlns="http://www.w3.org/2000/svg" xmlns:xlink="http://www.w3.org/1999/xlink">
    <title>Upload File</title>
    <g id="Assets" stroke="none" stroke-width="1" fill="none" fill-rule="evenodd">
        <g id="Upload-File">
            <polygon id="Path" points="0 0 24 0 24 24 0 24"></polygon>
            <path d="M14,3 L14,7 C14,7.55228475 14.4477153,8 15,8 L19,8" id="Path" stroke="#FF7758" stroke-width="1.25" stroke-linecap="round" stroke-linejoin="round"></path>
            <path d="M17,21 L7,21 C5.8954305,21 5,20.1045695 5,19 L5,5 C5,3.8954305 5.8954305,3 7,3 L14,3 L19,8 L19,19 C19,20.1045695 18.1045695,21 17,21 Z" id="Path" stroke="#FF7758" stroke-width="1.25" stroke-linecap="round" stroke-linejoin="round"></path>
            <line x1="12" y1="11" x2="12" y2="17" id="Path" stroke="#FF7758" stroke-width="1.25" stroke-linecap="round" stroke-linejoin="round"></line>
            <polyline id="Path" stroke="#FF7758" stroke-width="1.25" stroke-linecap="round" stroke-linejoin="round" points="9 14 12 11 15 14"></polyline>
        </g>
    </g>
</svg>